RobotoSlab-Thin.ufo
<glyph name="numbersign" format="1">
  <advance width="1246"/>
  <unicode hex="0023"/>
  <outline>
    <contour>
      <point x="754" y="410" type="line"/>
      <point x="390" y="410" type="line"/>
      <point x="316" y="0" type="line"/>
      <point x="260" y="0" type="line"/>
      <point x="334" y="410" type="line"/>
      <point x="63" y="410" type="line"/>
      <point x="63" y="462" type="line"/>
      <point x="344" y="462" type="line"/>
      <point x="439" y="986" type="line"/>
      <point x="139" y="986" type="line"/>
      <point x="139" y="1040" type="line"/>
      <point x="449" y="1040" type="line"/>
      <point x="524" y="1456" type="line"/>
      <point x="580" y="1456" type="line"/>
      <point x="504" y="1040" type="line"/>
      <point x="869" y="1040" type="line"/>
      <point x="945" y="1456" type="line"/>
      <point x="1001" y="1456" type="line"/>
      <point x="925" y="1040" type="line"/>
      <point x="1179" y="1040" type="line"/>
      <point x="1179" y="986" type="line"/>
      <point x="915" y="986" type="line"/>
      <point x="819" y="462" type="line"/>
      <point x="1104" y="462" type="line"/>
      <point x="1104" y="410" type="line"/>
      <point x="810" y="410" type="line"/>
      <point x="735" y="0" type="line"/>
      <point x="679" y="0" type="line"/>
    </contour>
    <contour>
      <point x="400" y="462" type="line"/>
      <point x="763" y="462" type="line"/>
      <point x="859" y="986" type="line"/>
      <point x="494" y="986" type="line"/>
    </contour>
  </outline>
</glyph>
<glyph name="dollar" format="1">
  <advance width="1086"/>
  <unicode hex="0024"/>
  <outline>
    <contour>
      <point x="903" y="344" type="curve" smooth="yes"/>
      <point x="903.0" y="517.3333333333334"/>
      <point x="815.9999999999999" y="599.3333333333333"/>
      <point x="532" y="702" type="curve" smooth="yes"/>
      <point x="245.33333333333337" y="796.6666666666667"/>
      <point x="124.0" y="887.3333333333333"/>
      <point x="124" y="1110" type="curve" smooth="yes"/>
      <point x="124.0" y="1323.3333333333335"/>
      <point x="273.99999999999994" y="1466.6666666666665"/>
      <point x="510" y="1476" type="curve"/>
      <point x="510" y="1663" type="line"/>
      <point x="565" y="1663" type="line"/>
      <point x="565" y="1476" type="line"/>
      <point x="806.3333333333333" y="1462.6666666666665"/>
      <point x="948.0" y="1309.3333333333335"/>
      <point x="944" y="1052" type="curve"/>
      <point x="942" y="1047" type="line"/>
      <point x="895" y="1047" type="line"/>
      <point x="895.0" y="1268.3333333333335"/>
      <point x="761.6666666666667" y="1424.0"/>
      <point x="535" y="1424" type="curve" smooth="yes"/>
      <point x="303.0" y="1424.0"/>
      <point x="178.0" y="1284.0"/>
      <point x="178" y="1112" type="curve" smooth="yes"/>
      <point x="178.0" y="937.3333333333335"/>
      <point x="250.33333333333337" y="851.3333333333333"/>
      <point x="549" y="754" type="curve" smooth="yes"/>
      <point x="829.0" y="656.6666666666667"/>
      <point x="957.0" y="566.0"/>
      <point x="957" y="346" type="curve" smooth="yes"/>
      <point x="957.0" y="131.33333333333337"/>
      <point x="806.6666666666667" y="-6.666666666666668"/>
      <point x="576" y="-20" type="curve"/>
      <point x="576" y="-208" type="line"/>
      <point x="521" y="-208" type="line"/>
      <point x="521" y="-21" type="line"/>
      <point x="268.99999999999994" y="-12.999999999999998"/>
      <point x="76.33333333333334" y="117.66666666666674"/>
      <point x="83" y="403" type="curve"/>
      <point x="85" y="409" type="line"/>
      <point x="131" y="409" type="line"/>
      <point x="131.0" y="143.66666666666674"/>
      <point x="318.0" y="32.0"/>
      <point x="542" y="32" type="curve" smooth="yes"/>
      <point x="759.3333333333333" y="32.0"/>
      <point x="903.0" y="173.33333333333337"/>
    </contour>
  </outline>
</glyph>
<glyph name="percent" format="2">
  <advance width="1457"/>
  <unicode hex="0025"/>
  <outline>
    <contour>
      <point x="77" y="1176" type="line" smooth="yes"/>
      <point x="77" y="1302"/>
      <point x="229" y="1477"/>
      <point x="349" y="1477" type="qcurve" smooth="yes"/>
      <point x="468" y="1477"/>
      <point x="620" y="1302"/>
      <point x="620" y="1176" type="qcurve" smooth="yes"/>
      <point x="620" y="1099" type="line" smooth="yes"/>
      <point x="620" y="973"/>
      <point x="469" y="800"/>
      <point x="351" y="800" type="qcurve" smooth="yes"/>
      <point x="229" y="800"/>
      <point x="77" y="973"/>
      <point x="77" y="1099" type="qcurve" smooth="yes"/>
    </contour>
    <contour>
      <point x="132" y="1099" type="line" smooth="yes"/>
      <point x="132" y="999"/>
      <point x="245" y="855"/>
      <point x="351" y="855" type="qcurve" smooth="yes"/>
      <point x="453" y="855"/>
      <point x="565" y="999"/>
      <point x="565" y="1099" type="qcurve" smooth="yes"/>
      <point x="565" y="1176" type="line" smooth="yes"/>
      <point x="565" y="1276"/>
      <point x="452" y="1422"/>
      <point x="349" y="1422" type="qcurve" smooth="yes"/>
      <point x="246" y="1422"/>
      <point x="132" y="1275"/>
      <point x="132" y="1176" type="qcurve" smooth="yes"/>
    </contour>
    <contour>
      <point x="833" y="357" type="line" smooth="yes"/>
      <point x="833" y="482"/>
      <point x="984" y="657"/>
      <point x="1104" y="657" type="qcurve" smooth="yes"/>
      <point x="1224" y="657"/>
      <point x="1376" y="483"/>
      <point x="1376" y="357" type="qcurve" smooth="yes"/>
      <point x="1376" y="279" type="line" smooth="yes"/>
      <point x="1376" y="153"/>
      <point x="1225" y="-21"/>
      <point x="1106" y="-21" type="qcurve" smooth="yes"/>
      <point x="985" y="-21"/>
      <point x="833" y="153"/>
      <point x="833" y="279" type="qcurve" smooth="yes"/>
    </contour>
    <contour>
      <point x="888" y="279" type="line" smooth="yes"/>
      <point x="888" y="178"/>
      <point x="1000" y="34"/>
      <point x="1106" y="34" type="qcurve" smooth="yes"/>
      <point x="1209" y="34"/>
      <point x="1321" y="178"/>
      <point x="1321" y="279" type="qcurve" smooth="yes"/>
      <point x="1321" y="357" type="line" smooth="yes"/>
      <point x="1321" y="463"/>
      <point x="1209" y="602"/>
      <point x="1104" y="602" type="qcurve" smooth="yes"/>
      <point x="1001" y="602"/>
      <point x="888" y="462"/>
      <point x="888" y="357" type="qcurve" smooth="yes"/>
    </contour>
    <contour>
      <point x="439" y="131" type="line"/>
      <point x="394" y="162" type="line"/>
      <point x="1105" y="1300" type="line"/>
      <point x="1150" y="1269" type="line"/>
    </contour>
  </outline>
</glyph>
<glyph name="ampersand" format="2">
  <advance width="1253"/>
  <unicode hex="0026"/>
  <outline>
    <contour>
      <point x="381" y="803" type="line"/>
      <point x="299" y="906"/>
      <point x="221" y="1076"/>
      <point x="221" y="1167" type="qcurve" smooth="yes"/>
      <point x="221" y="1316"/>
      <point x="384" y="1477"/>
      <point x="526" y="1477" type="qcurve" smooth="yes"/>
      <point x="658" y="1477"/>
      <point x="802" y="1333"/>
      <point x="802" y="1215" type="qcurve" smooth="yes"/>
      <point x="802" y="1131"/>
      <point x="725" y="1014"/>
      <point x="655" y="958" type="qcurve" smooth="yes"/>
      <point x="453" y="797" type="line"/>
      <point x="928" y="257" type="line"/>
      <point x="982" y="333"/>
      <point x="1043" y="523"/>
      <point x="1043" y="632" type="qcurve"/>
      <point x="1098" y="632" type="line"/>
      <point x="1098" y="507"/>
      <point x="1028" y="302"/>
      <point x="965" y="216" type="qcurve"/>
      <point x="1150" y="5" type="line"/>
      <point x="1148" y="0" type="line"/>
      <point x="1088" y="0" type="line"/>
      <point x="931" y="177" type="line"/>
      <point x="926" y="172"/>
      <point x="920" y="166"/>
      <point x="919" y="164" type="qcurve"/>
      <point x="829" y="75"/>
      <point x="632" y="-21"/>
      <point x="508" y="-21" type="qcurve" smooth="yes"/>
      <point x="306" y="-21"/>
      <point x="74" y="180"/>
      <point x="74" y="352" type="qcurve" smooth="yes"/>
      <point x="74" y="466"/>
      <point x="209" y="660"/>
      <point x="330" y="762" type="qcurve" smooth="yes"/>
    </contour>
    <contour>
      <point x="508" y="33" type="qcurve" smooth="yes"/>
      <point x="618" y="33"/>
      <point x="820" y="128"/>
      <point x="896" y="216" type="qcurve"/>
      <point x="447" y="725" type="line"/>
      <point x="439" y="733"/>
      <point x="424" y="751"/>
      <point x="413" y="764" type="qcurve"/>
      <point x="361" y="723" type="line" smooth="yes"/>
      <point x="224" y="605"/>
      <point x="128" y="430"/>
      <point x="128" y="352" type="qcurve" smooth="yes"/>
      <point x="128" y="218"/>
      <point x="324" y="33"/>
    </contour>
    <contour>
      <point x="276" y="1169" type="qcurve" smooth="yes"/>
      <point x="276" y="1090"/>
      <point x="346" y="922"/>
      <point x="421" y="834" type="qcurve"/>
      <point x="630" y="1000" type="line" smooth="yes"/>
      <point x="690" y="1050"/>
      <point x="746" y="1157"/>
      <point x="746" y="1215" type="qcurve" smooth="yes"/>
      <point x="746" y="1309"/>
      <point x="633" y="1423"/>
      <point x="526" y="1423" type="qcurve" smooth="yes"/>
      <point x="406" y="1423"/>
      <point x="276" y="1278"/>
    </contour>
  </outline>
</glyph>
<glyph name="parenleft" format="2">
  <advance width="615"/>
  <unicode hex="0028"/>
  <outline>
    <contour>
      <point x="114" y="586" type="line" smooth="yes"/>
      <point x="114" y="924"/>
      <point x="355" y="1513"/>
      <point x="525" y="1616" type="qcurve"/>
      <point x="531" y="1616" type="line"/>
      <point x="547" y="1580" type="line"/>
      <point x="394" y="1479"/>
      <point x="168" y="906"/>
      <point x="168" y="590" type="qcurve" smooth="yes"/>
      <point x="168" y="564" type="line" smooth="yes"/>
      <point x="168" y="247"/>
      <point x="394" y="-326"/>
      <point x="547" y="-427" type="qcurve"/>
      <point x="531" y="-463" type="line"/>
      <point x="525" y="-463" type="line"/>
      <point x="353" y="-358"/>
      <point x="114" y="213"/>
      <point x="114" y="566" type="qcurve" smooth="yes"/>
    </contour>
  </outline>
</glyph>
<glyph name="parenright" format="2">
  <advance width="608"/>
  <unicode hex="0029"/>
  <outline>
    <contour>
      <point x="444" y="566" type="line" smooth="yes"/>
      <point x="444" y="213"/>
      <point x="204" y="-358"/>
      <point x="33" y="-463" type="qcurve"/>
      <point x="27" y="-463" type="line"/>
      <point x="11" y="-427" type="line"/>
      <point x="163" y="-326"/>
      <point x="390" y="247"/>
      <point x="390" y="564" type="qcurve" smooth="yes"/>
      <point x="390" y="590" type="line" smooth="yes"/>
      <point x="390" y="906"/>
      <point x="163" y="1479"/>
      <point x="11" y="1580" type="qcurve"/>
      <point x="27" y="1616" type="line"/>
      <point x="33" y="1616" type="line"/>
      <point x="202" y="1513"/>
      <point x="444" y="924"/>
      <point x="444" y="586" type="qcurve" smooth="yes"/>
    </contour>
  </outline>
</glyph>
<glyph name="comma" format="2">
  <advance width="383"/>
  <unicode hex="002C"/>
  <outline>
    <contour>
      <point x="235" y="27" type="line" smooth="yes"/>
      <point x="235" y="-61"/>
      <point x="179" y="-201"/>
      <point x="129" y="-255" type="qcurve"/>
      <point x="92" y="-223" type="line"/>
      <point x="138" y="-162"/>
      <point x="181" y="-49"/>
      <point x="181" y="25" type="qcurve" smooth="yes"/>
      <point x="181" y="159" type="line"/>
      <point x="235" y="159" type="line"/>
    </contour>
  </outline>
</glyph>
<glyph name="hyphen" format="1">
  <advance width="789"/>
  <unicode hex="002D"/>
  <outline>
    <contour>
      <point x="624" y="599" type="line"/>
      <point x="154" y="599" type="line"/>
      <point x="154" y="653" type="line"/>
      <point x="624" y="653" type="line"/>
    </contour>
  </outline>
</glyph>
<glyph name="period" format="2">
  <advance width="444"/>
  <unicode hex="002E"/>
  <outline>
    <contour>
      <point x="231" y="0" type="line"/>
      <point x="145" y="0" type="line"/>
      <point x="145" y="130" type="line"/>
      <point x="231" y="130" type="line"/>
    </contour>
  </outline>
</glyph>
<glyph name="two" format="1">
  <advance width="1104"/>
  <unicode hex="0032"/>
  <outline>
    <contour>
      <point x="106" y="0" type="line"/>
      <point x="106" y="54" type="line"/>
      <point x="583" y="604" type="line" smooth="yes"/>
      <point x="764.3333333333333" y="813.3333333333333"/>
      <point x="844.0" y="956.6666666666667"/>
      <point x="844" y="1086" type="curve" smooth="yes"/>
      <point x="844.0" y="1298.0"/>
      <point x="724.3333333333333" y="1423.0"/>
      <point x="499" y="1423" type="curve" smooth="yes"/>
      <point x="260.33333333333337" y="1423.0"/>
      <point x="124.0" y="1268.6666666666665"/>
      <point x="124" y="1046" type="curve"/>
      <point x="78" y="1046" type="line"/>
      <point x="76" y="1052" type="line"/>
      <point x="69.33333333333334" y="1288.0"/>
      <point x="238.99999999999994" y="1477.0"/>
      <point x="499" y="1477" type="curve" smooth="yes"/>
      <point x="740.3333333333333" y="1477.0"/>
      <point x="899.0" y="1334.0"/>
      <point x="899" y="1086" type="curve" smooth="yes"/>
      <point x="899.0" y="924.6666666666667"/>
      <point x="789.6666666666667" y="768.6666666666667"/>
      <point x="599" y="546" type="curve" smooth="yes"/>
      <point x="182" y="59" type="line"/>
      <point x="184" y="54" type="line"/>
      <point x="923" y="54" type="line"/>
      <point x="923" y="293" type="line"/>
      <point x="977" y="293" type="line"/>
      <point x="977" y="0" type="line"/>
    </contour>
  </outline>
</glyph>
<glyph name="three" format="2">
  <advance width="1098"/>
  <unicode hex="0033"/>
  <outline>
    <contour>
      <point x="383" y="771" type="line"/>
      <point x="494" y="771" type="line" smooth="yes"/>
      <point x="677" y="771"/>
      <point x="887" y="953"/>
      <point x="887" y="1086" type="qcurve" smooth="yes"/>
      <point x="887" y="1233"/>
      <point x="706" y="1423"/>
      <point x="530" y="1423" type="qcurve" smooth="yes"/>
      <point x="368" y="1423"/>
      <point x="154" y="1233"/>
      <point x="154" y="1075" type="qcurve"/>
      <point x="108" y="1075" type="line"/>
      <point x="106" y="1081" type="line"/>
      <point x="101" y="1258"/>
      <point x="348" y="1477"/>
      <point x="530" y="1477" type="qcurve" smooth="yes"/>
      <point x="718" y="1477"/>
      <point x="941" y="1264"/>
      <point x="941" y="1082" type="qcurve" smooth="yes"/>
      <point x="941" y="967"/>
      <point x="796" y="785"/>
      <point x="673" y="745" type="qcurve"/>
      <point x="815" y="710"/>
      <point x="973" y="526"/>
      <point x="973" y="386" type="qcurve" smooth="yes"/>
      <point x="973" y="196"/>
      <point x="731" y="-21"/>
      <point x="539" y="-21" type="qcurve" smooth="yes"/>
      <point x="354" y="-21"/>
      <point x="70" y="198"/>
      <point x="75" y="399" type="qcurve"/>
      <point x="77" y="405" type="line"/>
      <point x="123" y="405" type="line"/>
      <point x="123" y="243"/>
      <point x="360" y="33"/>
      <point x="539" y="33" type="qcurve" smooth="yes"/>
      <point x="719" y="33"/>
      <point x="919" y="218"/>
      <point x="919" y="382" type="qcurve" smooth="yes"/>
      <point x="919" y="552"/>
      <point x="690" y="715"/>
      <point x="494" y="715" type="qcurve" smooth="yes"/>
      <point x="383" y="715" type="line"/>
    </contour>
  </outline>
</glyph>
<glyph name="four" format="1">
  <advance width="1170"/>
  <unicode hex="0034"/>
  <outline>
    <contour>
      <point x="823" y="451" type="line"/>
      <point x="1075" y="451" type="line"/>
      <point x="1075" y="397" type="line"/>
      <point x="823" y="397" type="line"/>
      <point x="823" y="54" type="line"/>
      <point x="986" y="54" type="line"/>
      <point x="986" y="0" type="line"/>
      <point x="606" y="0" type="line"/>
      <point x="606" y="54" type="line"/>
      <point x="769" y="54" type="line"/>
      <point x="769" y="397" type="line"/>
      <point x="63" y="397" type="line"/>
      <point x="63" y="427" type="line"/>
      <point x="758" y="1456" type="line"/>
      <point x="823" y="1456" type="line"/>
    </contour>
    <contour>
      <point x="147" y="451" type="line"/>
      <point x="769" y="451" type="line"/>
      <point x="769" y="1380" type="line"/>
      <point x="763" y="1382" type="line"/>
      <point x="685" y="1253" type="line"/>
    </contour>
  </outline>
</glyph>
<glyph name="five" format="2">
  <advance width="1061"/>
  <unicode hex="0035"/>
  <outline>
    <contour>
      <point x="834" y="1265" type="line"/>
      <point x="834" y="1403" type="line"/>
      <point x="237" y="1403" type="line"/>
      <point x="176" y="785" type="line"/>
      <point x="239" y="848"/>
      <point x="388" y="912"/>
      <point x="533" y="916" type="qcurve" smooth="yes"/>
      <point x="707" y="921"/>
      <point x="933" y="673"/>
      <point x="933" y="464" type="qcurve" smooth="yes"/>
      <point x="933" y="241"/>
      <point x="723" y="-21"/>
      <point x="503" y="-21" type="qcurve" smooth="yes"/>
      <point x="326" y="-21"/>
      <point x="92" y="180"/>
      <point x="97" y="377" type="qcurve"/>
      <point x="99" y="383" type="line"/>
      <point x="146" y="383" type="line"/>
      <point x="146" y="211"/>
      <point x="338" y="33"/>
      <point x="503" y="33" type="qcurve" smooth="yes"/>
      <point x="697" y="33"/>
      <point x="878" y="247"/>
      <point x="878" y="462" type="qcurve" smooth="yes"/>
      <point x="878" y="646"/>
      <point x="697" y="858"/>
      <point x="534" y="858" type="qcurve" smooth="yes"/>
      <point x="374" y="858"/>
      <point x="191" y="751"/>
      <point x="151" y="646" type="qcurve"/>
      <point x="110" y="662" type="line"/>
      <point x="188" y="1456" type="line"/>
      <point x="888" y="1456" type="line"/>
      <point x="888" y="1265" type="line"/>
    </contour>
  </outline>
</glyph>
<glyph name="six" format="2">
  <advance width="1107"/>
  <unicode hex="0036"/>
  <outline>
    <contour>
      <point x="574" y="1477" type="qcurve" smooth="yes"/>
      <point x="650" y="1477"/>
      <point x="795" y="1444"/>
      <point x="859" y="1407" type="qcurve"/>
      <point x="838" y="1356" type="line"/>
      <point x="772" y="1394"/>
      <point x="659" y="1423"/>
      <point x="574" y="1423" type="qcurve" smooth="yes"/>
      <point x="399" y="1423"/>
      <point x="175" y="1154"/>
      <point x="175" y="881" type="qcurve" smooth="yes"/>
      <point x="175" y="706" type="line"/>
      <point x="222" y="815"/>
      <point x="429" y="957"/>
      <point x="565" y="957" type="qcurve" smooth="yes"/>
      <point x="762" y="957"/>
      <point x="986" y="685"/>
      <point x="986" y="460" type="qcurve" smooth="yes"/>
      <point x="986" y="253"/>
      <point x="743" y="-21"/>
      <point x="555" y="-21" type="qcurve" smooth="yes"/>
      <point x="362" y="-21"/>
      <point x="121" y="279"/>
      <point x="121" y="552" type="qcurve" smooth="yes"/>
      <point x="121" y="880" type="line" smooth="yes"/>
      <point x="121" y="1172"/>
      <point x="377" y="1477"/>
    </contour>
    <contour>
      <point x="175" y="556" type="line"/>
      <point x="175" y="553" type="line" smooth="yes"/>
      <point x="175" y="305"/>
      <point x="383" y="32"/>
      <point x="555" y="32" type="qcurve" smooth="yes"/>
      <point x="722" y="32"/>
      <point x="932" y="284"/>
      <point x="932" y="460" type="qcurve" smooth="yes"/>
      <point x="932" y="662"/>
      <point x="740" y="903"/>
      <point x="558" y="903" type="qcurve" smooth="yes"/>
      <point x="405" y="903"/>
      <point x="176" y="698"/>
      <point x="176" y="556" type="qcurve"/>
    </contour>
  </outline>
</glyph>
<glyph name="seven" format="2">
  <advance width="1104"/>
  <unicode hex="0037"/>
  <outline>
    <contour>
      <point x="1006" y="1402" type="line"/>
      <point x="791" y="1152"/>
      <point x="490" y="511"/>
      <point x="445" y="91" type="qcurve" smooth="yes"/>
      <point x="439" y="0" type="line"/>
      <point x="385" y="0" type="line"/>
      <point x="391" y="91" type="line" smooth="yes"/>
      <point x="434" y="485"/>
      <point x="715" y="1135"/>
      <point x="941" y="1402" type="qcurve"/>
      <point x="130" y="1402" type="line"/>
      <point x="130" y="1163" type="line"/>
      <point x="76" y="1163" type="line"/>
      <point x="76" y="1456" type="line"/>
      <point x="1006" y="1456" type="line"/>
    </contour>
  </outline>
</glyph>
<glyph name="eight" format="2">
  <advance width="1123"/>
  <unicode hex="0038"/>
  <outline>
    <contour>
      <point x="978" y="1086" type="qcurve" smooth="yes"/>
      <point x="978" y="964"/>
      <point x="829" y="782"/>
      <point x="708" y="745" type="qcurve"/>
      <point x="847" y="707"/>
      <point x="1020" y="511"/>
      <point x="1020" y="379" type="qcurve" smooth="yes"/>
      <point x="1020" y="187"/>
      <point x="759" y="-21"/>
      <point x="557" y="-21" type="qcurve" smooth="yes"/>
      <point x="351" y="-21"/>
      <point x="92" y="187"/>
      <point x="92" y="379" type="qcurve" smooth="yes"/>
      <point x="92" y="512"/>
      <point x="261" y="708"/>
      <point x="401" y="745" type="qcurve"/>
      <point x="279" y="782"/>
      <point x="133" y="963"/>
      <point x="133" y="1086" type="qcurve" smooth="yes"/>
      <point x="133" y="1270"/>
      <point x="370" y="1477"/>
      <point x="555" y="1477" type="qcurve" smooth="yes"/>
      <point x="738" y="1477"/>
      <point x="978" y="1269"/>
    </contour>
    <contour>
      <point x="965" y="374" type="qcurve" smooth="yes"/>
      <point x="965" y="528"/>
      <point x="729" y="718"/>
      <point x="555" y="718" type="qcurve" smooth="yes"/>
      <point x="378" y="718"/>
      <point x="146" y="528"/>
      <point x="146" y="374" type="qcurve" smooth="yes"/>
      <point x="146" y="213"/>
      <point x="376" y="33"/>
      <point x="557" y="33" type="qcurve" smooth="yes"/>
      <point x="733" y="33"/>
      <point x="965" y="214"/>
    </contour>
    <contour>
      <point x="924" y="1091" type="qcurve" smooth="yes"/>
      <point x="924" y="1234"/>
      <point x="710" y="1423"/>
      <point x="555" y="1423" type="qcurve" smooth="yes"/>
      <point x="394" y="1423"/>
      <point x="187" y="1242"/>
      <point x="187" y="1091" type="qcurve" smooth="yes"/>
      <point x="187" y="945"/>
      <point x="395" y="772"/>
      <point x="557" y="772" type="qcurve" smooth="yes"/>
      <point x="714" y="772"/>
      <point x="924" y="946"/>
    </contour>
  </outline>
</glyph>
<glyph name="nine" format="2">
  <advance width="1125"/>
  <unicode hex="0039"/>
  <outline>
    <contour>
      <point x="501" y="33" type="qcurve" smooth="yes"/>
      <point x="689" y="33"/>
      <point x="900" y="309"/>
      <point x="900" y="578" type="qcurve" smooth="yes"/>
      <point x="900" y="701" type="line"/>
      <point x="844" y="592"/>
      <point x="639" y="468"/>
      <point x="512" y="468" type="qcurve" smooth="yes"/>
      <point x="324" y="468"/>
      <point x="84" y="755"/>
      <point x="84" y="958" type="qcurve" smooth="yes"/>
      <point x="84" y="1173"/>
      <point x="330" y="1477"/>
      <point x="520" y="1477" type="qcurve" smooth="yes"/>
      <point x="720" y="1477"/>
      <point x="962" y="1205"/>
      <point x="962" y="923" type="qcurve" smooth="yes"/>
      <point x="962" y="580" type="line" smooth="yes"/>
      <point x="962" y="281"/>
      <point x="714" y="-21"/>
      <point x="501" y="-21" type="qcurve" smooth="yes"/>
      <point x="423" y="-21"/>
      <point x="267" y="11"/>
      <point x="188" y="42" type="qcurve"/>
      <point x="204" y="99" type="line"/>
      <point x="279" y="65"/>
      <point x="415" y="33"/>
    </contour>
    <contour>
      <point x="512" y="521" type="qcurve" smooth="yes"/>
      <point x="660" y="521"/>
      <point x="860" y="692"/>
      <point x="900" y="811" type="qcurve"/>
      <point x="900" y="922" type="line" smooth="yes"/>
      <point x="900" y="1178"/>
      <point x="695" y="1423"/>
      <point x="524" y="1423" type="qcurve" smooth="yes"/>
      <point x="356" y="1423"/>
      <point x="146" y="1143"/>
      <point x="146" y="958" type="qcurve" smooth="yes"/>
      <point x="146" y="780"/>
      <point x="346" y="521"/>
    </contour>
  </outline>
</glyph>
<glyph name="question" format="2">
  <advance width="901"/>
  <unicode hex="003F"/>
  <outline>
    <contour>
      <point x="362" y="400" type="line"/>
      <point x="363" y="517"/>
      <point x="402" y="614"/>
      <point x="487" y="692" type="qcurve" smooth="yes"/>
      <point x="608" y="808"/>
      <point x="714" y="971"/>
      <point x="714" y="1112" type="qcurve" smooth="yes"/>
      <point x="714" y="1258"/>
      <point x="558" y="1424"/>
      <point x="415" y="1424" type="qcurve" smooth="yes"/>
      <point x="273" y="1424"/>
      <point x="117" y="1255"/>
      <point x="114" y="1116" type="qcurve"/>
      <point x="68" y="1116" type="line"/>
      <point x="65" y="1122" type="line"/>
      <point x="63" y="1292"/>
      <point x="260" y="1477"/>
      <point x="415" y="1477" type="qcurve" smooth="yes"/>
      <point x="579" y="1477"/>
      <point x="768" y="1275"/>
      <point x="768" y="1110" type="qcurve" smooth="yes"/>
      <point x="768" y="969"/>
      <point x="643" y="765"/>
      <point x="515" y="650" type="qcurve"/>
      <point x="446" y="597"/>
      <point x="416" y="500"/>
      <point x="416" y="400" type="qcurve"/>
    </contour>
    <contour>
      <point x="440" y="0" type="line"/>
      <point x="358" y="0" type="line"/>
      <point x="358" y="106" type="line"/>
      <point x="440" y="106" type="line"/>
    </contour>
  </outline>
</glyph>
<glyph name="at" format="2">
  <advance width="1799"/>
  <unicode hex="0040"/>
  <outline>
    <contour>
      <point x="1724" y="523" type="qcurve" smooth="yes"/>
      <point x="1714" y="304"/>
      <point x="1506" y="-21"/>
      <point x="1314" y="-21" type="qcurve" smooth="yes"/>
      <point x="1231" y="-21"/>
      <point x="1127" y="101"/>
      <point x="1118" y="209" type="qcurve"/>
      <point x="1063" y="95"/>
      <point x="895" y="-21"/>
      <point x="786" y="-21" type="qcurve" smooth="yes"/>
      <point x="650" y="-21"/>
      <point x="516" y="217"/>
      <point x="535" y="416" type="qcurve" smooth="yes"/>
      <point x="558" y="666"/>
      <point x="800" y="968"/>
      <point x="972" y="968" type="qcurve" smooth="yes"/>
      <point x="1055" y="968"/>
      <point x="1159" y="913"/>
      <point x="1222" y="858" type="qcurve"/>
      <point x="1173" y="293" type="line" smooth="yes"/>
      <point x="1162" y="141"/>
      <point x="1257" y="34"/>
      <point x="1317" y="34" type="qcurve" smooth="yes"/>
      <point x="1475" y="34"/>
      <point x="1656" y="303"/>
      <point x="1667" y="523" type="qcurve" smooth="yes"/>
      <point x="1687" y="919"/>
      <point x="1339" y="1354"/>
      <point x="954" y="1354" type="qcurve" smooth="yes"/>
      <point x="618" y="1354"/>
      <point x="161" y="875"/>
      <point x="141" y="478" type="qcurve" smooth="yes"/>
      <point x="121" y="95"/>
      <point x="510" y="-398"/>
      <point x="867" y="-398" type="qcurve" smooth="yes"/>
      <point x="954" y="-398"/>
      <point x="1135" y="-354"/>
      <point x="1197" y="-318" type="qcurve"/>
      <point x="1221" y="-364" type="line"/>
      <point x="1159" y="-404"/>
      <point x="955" y="-453"/>
      <point x="863" y="-453" type="qcurve" smooth="yes"/>
      <point x="483" y="-453"/>
      <point x="67" y="46"/>
      <point x="86" y="478" type="qcurve" smooth="yes"/>
      <point x="104" y="905"/>
      <point x="579" y="1411"/>
      <point x="958" y="1411" type="qcurve" smooth="yes"/>
      <point x="1360" y="1411"/>
      <point x="1741" y="943"/>
    </contour>
    <contour>
      <point x="589" y="416" type="qcurve" smooth="yes"/>
      <point x="570" y="249"/>
      <point x="671" y="33"/>
      <point x="784" y="33" type="qcurve" smooth="yes"/>
      <point x="892" y="33"/>
      <point x="1064" y="166"/>
      <point x="1122" y="345" type="qcurve"/>
      <point x="1164" y="831" type="line"/>
      <point x="1130" y="870"/>
      <point x="1033" y="913"/>
      <point x="969" y="913" type="qcurve" smooth="yes"/>
      <point x="827" y="913"/>
      <point x="615" y="660"/>
    </contour>
  </outline>
</glyph>
<glyph name="A" format="1">
  <advance width="1472"/>
  <unicode hex="0041"/>
  <outline>
    <contour>
      <point x="55" y="54" type="line"/>
      <point x="162" y="54" type="line"/>
      <point x="686" y="1456" type="line"/>
      <point x="752" y="1456" type="line"/>
      <point x="1277" y="54" type="line"/>
      <point x="1384" y="54" type="line"/>
      <point x="1384" y="0" type="line"/>
      <point x="1075" y="0" type="line"/>
      <point x="1075" y="54" type="line"/>
      <point x="1218" y="54" type="line"/>
      <point x="1075" y="435" type="line"/>
      <point x="363" y="435" type="line"/>
      <point x="221" y="54" type="line"/>
      <point x="364" y="54" type="line"/>
      <point x="364" y="0" type="line"/>
      <point x="55" y="0" type="line"/>
    </contour>
    <contour>
      <point x="383" y="489" type="line"/>
      <point x="1055" y="489" type="line"/>
      <point x="750" y="1309" type="line"/>
      <point x="722" y="1391" type="line"/>
      <point x="716" y="1391" type="line"/>
      <point x="689" y="1309" type="line"/>
    </contour>
  </outline>
</glyph>
<glyph name="B" format="2">
  <advance width="1303"/>
  <unicode hex="0042"/>
  <outline>
    <contour>
      <point x="617" y="1456" type="line" smooth="yes"/>
      <point x="843" y="1456"/>
      <point x="1093" y="1270"/>
      <point x="1093" y="1083" type="qcurve" smooth="yes"/>
      <point x="1093" y="953"/>
      <point x="959" y="775"/>
      <point x="837" y="753" type="qcurve"/>
      <point x="973" y="735"/>
      <point x="1159" y="533"/>
      <point x="1159" y="401" type="qcurve" smooth="yes"/>
      <point x="1159" y="210"/>
      <point x="912" y="0"/>
      <point x="709" y="0" type="qcurve" smooth="yes"/>
      <point x="71" y="0" type="line"/>
      <point x="71" y="54" type="line"/>
      <point x="234" y="54" type="line"/>
      <point x="234" y="1402" type="line"/>
      <point x="71" y="1402" type="line"/>
      <point x="71" y="1456" type="line"/>
      <point x="234" y="1456" type="line"/>
    </contour>
    <contour>
      <point x="288" y="719" type="line"/>
      <point x="288" y="54" type="line"/>
      <point x="709" y="54" type="line" smooth="yes"/>
      <point x="893" y="54"/>
      <point x="1105" y="236"/>
      <point x="1105" y="399" type="qcurve" smooth="yes"/>
      <point x="1105" y="533"/>
      <point x="902" y="719"/>
      <point x="719" y="719" type="qcurve" smooth="yes"/>
    </contour>
    <contour>
      <point x="288" y="773" type="line"/>
      <point x="637" y="773" type="line" smooth="yes"/>
      <point x="836" y="773"/>
      <point x="1038" y="928"/>
      <point x="1038" y="1087" type="qcurve" smooth="yes"/>
      <point x="1038" y="1243"/>
      <point x="825" y="1402"/>
      <point x="617" y="1402" type="qcurve" smooth="yes"/>
      <point x="288" y="1402" type="line"/>
    </contour>
  </outline>
</glyph>
<glyph name="C" format="1">
  <advance width="1373"/>
  <unicode hex="0043"/>
  <outline>
    <contour>
      <point x="1256" y="992" type="line"/>
      <point x="1201" y="992" type="line"/>
      <point x="1201" y="1226" type="line"/>
      <point x="1111.6666666666665" y="1346.0"/>
      <point x="957.6666666666669" y="1423.0"/>
      <point x="767" y="1423" type="curve" smooth="yes"/>
      <point x="421.66666666666674" y="1423.0"/>
      <point x="184.0" y="1147.0"/>
      <point x="184" y="739" type="curve" smooth="yes"/>
      <point x="184" y="719" type="line" smooth="yes"/>
      <point x="184.0" y="309.66666666666674"/>
      <point x="422.3333333333335" y="33.0"/>
      <point x="757" y="33" type="curve" smooth="yes"/>
      <point x="949.0" y="33.0"/>
      <point x="1113.0" y="110.0"/>
      <point x="1201" y="230" type="curve"/>
      <point x="1201" y="464" type="line"/>
      <point x="1256" y="464" type="line"/>
      <point x="1256" y="210" type="line"/>
      <point x="1158.6666666666665" y="67.33333333333346"/>
      <point x="970.3333333333334" y="-21.0"/>
      <point x="757" y="-21" type="curve" smooth="yes"/>
      <point x="387.66666666666674" y="-21.0"/>
      <point x="130.0" y="280.33333333333337"/>
      <point x="130" y="719" type="curve" smooth="yes"/>
      <point x="130" y="737" type="line" smooth="yes"/>
      <point x="130.0" y="1177.0"/>
      <point x="387.0" y="1477.0"/>
      <point x="767" y="1477" type="curve" smooth="yes"/>
      <point x="977.6666666666669" y="1477.0"/>
      <point x="1157.3333333333335" y="1388.6666666666665"/>
      <point x="1256" y="1246" type="curve"/>
    </contour>
  </outline>
</glyph>
<glyph name="D" format="2">
  <advance width="1386"/>
  <unicode hex="0044"/>
  <outline>
    <contour>
      <point x="637" y="1456" type="line" smooth="yes"/>
      <point x="888" y="1456"/>
      <point x="1238" y="1096"/>
      <point x="1238" y="817" type="qcurve" smooth="yes"/>
      <point x="1238" y="639" type="line" smooth="yes"/>
      <point x="1238" y="359"/>
      <point x="888" y="0"/>
      <point x="637" y="0" type="qcurve" smooth="yes"/>
      <point x="71" y="0" type="line"/>
      <point x="71" y="54" type="line"/>
      <point x="234" y="54" type="line"/>
      <point x="234" y="1402" type="line"/>
      <point x="71" y="1402" type="line"/>
      <point x="71" y="1456" type="line"/>
      <point x="234" y="1456" type="line"/>
    </contour>
    <contour>
      <point x="288" y="1402" type="line"/>
      <point x="288" y="54" type="line"/>
      <point x="637" y="54" type="line" smooth="yes"/>
      <point x="864" y="54"/>
      <point x="1184" y="386"/>
      <point x="1184" y="639" type="qcurve" smooth="yes"/>
      <point x="1184" y="820" type="line" smooth="yes"/>
      <point x="1184" y="1070"/>
      <point x="864" y="1402"/>
      <point x="637" y="1402" type="qcurve" smooth="yes"/>
    </contour>
  </outline>
</glyph>
<glyph name="E" format="1">
  <advance width="1270"/>
  <unicode hex="0045"/>
  <outline>
    <contour>
      <point x="71" y="0" type="line"/>
      <point x="71" y="54" type="line"/>
      <point x="234" y="54" type="line"/>
      <point x="234" y="1402" type="line"/>
      <point x="71" y="1402" type="line"/>
      <point x="71" y="1456" type="line"/>
      <point x="1090" y="1456" type="line"/>
      <point x="1090" y="1163" type="line"/>
      <point x="1036" y="1163" type="line"/>
      <point x="1036" y="1402" type="line"/>
      <point x="288" y="1402" type="line"/>
      <point x="288" y="786" type="line"/>
      <point x="918" y="786" type="line"/>
      <point x="918" y="732" type="line"/>
      <point x="288" y="732" type="line"/>
      <point x="288" y="54" type="line"/>
      <point x="1066" y="54" type="line"/>
      <point x="1066" y="293" type="line"/>
      <point x="1120" y="293" type="line"/>
      <point x="1120" y="0" type="line"/>
    </contour>
  </outline>
</glyph>
<glyph name="G" format="1">
  <advance width="1449"/>
  <unicode hex="0047"/>
  <outline>
    <contour>
      <point x="1248" y="156" type="line"/>
      <point x="1186.6666666666665" y="70.66666666666669"/>
      <point x="1004.3333333333333" y="-21.0"/>
      <point x="751" y="-21" type="curve" smooth="yes"/>
      <point x="381.66666666666674" y="-21.0"/>
      <point x="130.0" y="280.0"/>
      <point x="130" y="720" type="curve" smooth="yes"/>
      <point x="130" y="758" type="line" smooth="yes"/>
      <point x="130.0" y="1183.3333333333333"/>
      <point x="383.3333333333335" y="1477.0"/>
      <point x="754" y="1477" type="curve" smooth="yes"/>
      <point x="975.3333333333334" y="1477.0"/>
      <point x="1151.6666666666665" y="1397.3333333333335"/>
      <point x="1253" y="1256" type="curve"/>
      <point x="1253" y="1012" type="line"/>
      <point x="1199" y="1012" type="line"/>
      <point x="1200" y="1236" type="line"/>
      <point x="1108.0" y="1354.6666666666665"/>
      <point x="955.3333333333331" y="1423.0"/>
      <point x="754" y="1423" type="curve" smooth="yes"/>
      <point x="411.3333333333335" y="1423.0"/>
      <point x="184.0" y="1150.6666666666665"/>
      <point x="184" y="760" type="curve" smooth="yes"/>
      <point x="184" y="720" type="line" smooth="yes"/>
      <point x="184.0" y="313.3333333333335"/>
      <point x="409.66666666666674" y="33.0"/>
      <point x="751" y="33" type="curve" smooth="yes"/>
      <point x="965.6666666666666" y="33.0"/>
      <point x="1139.3333333333335" y="108.99999999999996"/>
      <point x="1194" y="181" type="curve"/>
      <point x="1194" y="565" type="line"/>
      <point x="879" y="565" type="line"/>
      <point x="879" y="620" type="line"/>
      <point x="1248" y="620" type="line"/>
    </contour>
  </outline>
</glyph>
<glyph name="H" format="1">
  <advance width="1506"/>
  <unicode hex="0048"/>
  <outline>
    <contour>
      <point x="71" y="1402" type="line"/>
      <point x="71" y="1456" type="line"/>
      <point x="451" y="1456" type="line"/>
      <point x="451" y="1402" type="line"/>
      <point x="288" y="1402" type="line"/>
      <point x="288" y="749" type="line"/>
      <point x="1218" y="749" type="line"/>
      <point x="1218" y="1402" type="line"/>
      <point x="1055" y="1402" type="line"/>
      <point x="1055" y="1456" type="line"/>
      <point x="1218" y="1456" type="line"/>
      <point x="1272" y="1456" type="line"/>
      <point x="1435" y="1456" type="line"/>
      <point x="1435" y="1402" type="line"/>
      <point x="1272" y="1402" type="line"/>
      <point x="1272" y="54" type="line"/>
      <point x="1435" y="54" type="line"/>
      <point x="1435" y="0" type="line"/>
      <point x="1055" y="0" type="line"/>
      <point x="1055" y="54" type="line"/>
      <point x="1218" y="54" type="line"/>
      <point x="1218" y="695" type="line"/>
      <point x="288" y="695" type="line"/>
      <point x="288" y="54" type="line"/>
      <point x="451" y="54" type="line"/>
      <point x="451" y="0" type="line"/>
      <point x="71" y="0" type="line"/>
      <point x="71" y="54" type="line"/>
      <point x="234" y="54" type="line"/>
      <point x="234" y="1402" type="line"/>
    </contour>
  </outline>
</glyph>
<glyph name="J" format="1">
  <advance width="1137"/>
  <unicode hex="004A"/>
  <outline>
    <contour>
      <point x="1043" y="1456" type="line"/>
      <point x="1043" y="1402" type="line"/>
      <point x="880" y="1402" type="line"/>
      <point x="880" y="422" type="line" smooth="yes"/>
      <point x="880.0" y="151.333333333"/>
      <point x="711.0" y="-21.0"/>
      <point x="471" y="-21" type="curve" smooth="yes"/>
      <point x="204.333333333" y="-21.0"/>
      <point x="39.3333333333" y="123.0"/>
      <point x="46" y="395" type="curve"/>
      <point x="48" y="401" type="line"/>
      <point x="94" y="401" type="line"/>
      <point x="94.0" y="163.666666667"/>
      <point x="227.0" y="33.0"/>
      <point x="471" y="33" type="curve" smooth="yes"/>
      <point x="675.0" y="33.0"/>
      <point x="826.0" y="183.333333333"/>
      <point x="826" y="422" type="curve" smooth="yes"/>
      <point x="826" y="1402" type="line"/>
      <point x="663" y="1402" type="line"/>
      <point x="663" y="1456" type="line"/>
    </contour>
  </outline>
</glyph>
<glyph name="M" format="2">
  <advance width="1824"/>
  <unicode hex="004D"/>
  <outline>
    <contour>
      <point x="932" y="0" type="line"/>
      <point x="889" y="0" type="line"/>
      <point x="294" y="1356" type="line"/>
      <point x="288" y="1354" type="line"/>
      <point x="288" y="54" type="line"/>
      <point x="451" y="54" type="line"/>
      <point x="451" y="0" type="line"/>
      <point x="71" y="0" type="line"/>
      <point x="71" y="54" type="line"/>
      <point x="234" y="54" type="line"/>
      <point x="234" y="1402" type="line"/>
      <point x="71" y="1402" type="line"/>
      <point x="71" y="1456" type="line"/>
      <point x="234" y="1456" type="line"/>
      <point x="311" y="1456" type="line"/>
      <point x="907" y="86" type="line"/>
      <point x="913" y="86" type="line"/>
      <point x="1511" y="1456" type="line"/>
      <point x="1753" y="1456" type="line"/>
      <point x="1753" y="1402" type="line"/>
      <point x="1590" y="1402" type="line"/>
      <point x="1590" y="54" type="line"/>
      <point x="1753" y="54" type="line"/>
      <point x="1753" y="0" type="line"/>
      <point x="1373" y="0" type="line"/>
      <point x="1373" y="54" type="line"/>
      <point x="1536" y="54" type="line"/>
      <point x="1536" y="1361" type="line"/>
      <point x="1530" y="1363" type="line"/>
    </contour>
  </outline>
</glyph>
<glyph name="O" format="2">
  <advance width="1488"/>
  <unicode hex="004F"/>
  <outline>
    <contour>
      <point x="1348" y="719" type="line" smooth="yes"/>
      <point x="1348" y="383"/>
      <point x="1011" y="-21"/>
      <point x="740" y="-21" type="qcurve" smooth="yes"/>
      <point x="468" y="-21"/>
      <point x="130" y="384"/>
      <point x="130" y="719" type="qcurve" smooth="yes"/>
      <point x="130" y="737" type="line" smooth="yes"/>
      <point x="130" y="1072"/>
      <point x="466" y="1477"/>
      <point x="738" y="1477" type="qcurve" smooth="yes"/>
      <point x="1009" y="1477"/>
      <point x="1348" y="1072"/>
      <point x="1348" y="737" type="qcurve" smooth="yes"/>
    </contour>
    <contour>
      <point x="1294" y="739" type="line" smooth="yes"/>
      <point x="1294" y="1048"/>
      <point x="991" y="1423"/>
      <point x="738" y="1423" type="qcurve" smooth="yes"/>
      <point x="486" y="1423"/>
      <point x="185" y="1048"/>
      <point x="185" y="739" type="qcurve" smooth="yes"/>
      <point x="185" y="719" type="line" smooth="yes"/>
      <point x="185" y="408"/>
      <point x="487" y="33"/>
      <point x="740" y="33" type="qcurve" smooth="yes"/>
      <point x="993" y="33"/>
      <point x="1294" y="408"/>
      <point x="1294" y="719" type="qcurve" smooth="yes"/>
    </contour>
  </outline>
</glyph>
<glyph name="P" format="2">
  <advance width="1255"/>
  <unicode hex="0050"/>
  <outline>
    <contour>
      <point x="639" y="1456" type="line" smooth="yes"/>
      <point x="865" y="1456"/>
      <point x="1109" y="1229"/>
      <point x="1109" y="1041" type="qcurve" smooth="yes"/>
      <point x="1109" y="851"/>
      <point x="866" y="625"/>
      <point x="639" y="625" type="qcurve" smooth="yes"/>
      <point x="288" y="625" type="line"/>
      <point x="288" y="54" type="line"/>
      <point x="451" y="54" type="line"/>
      <point x="451" y="0" type="line"/>
      <point x="71" y="0" type="line"/>
      <point x="71" y="54" type="line"/>
      <point x="234" y="54" type="line"/>
      <point x="234" y="1402" type="line"/>
      <point x="71" y="1402" type="line"/>
      <point x="71" y="1456" type="line"/>
      <point x="234" y="1456" type="line"/>
    </contour>
    <contour>
      <point x="288" y="679" type="line"/>
      <point x="639" y="679" type="line" smooth="yes"/>
      <point x="846" y="679"/>
      <point x="1055" y="885"/>
      <point x="1055" y="1039" type="qcurve" smooth="yes"/>
      <point x="1055" y="1197"/>
      <point x="847" y="1402"/>
      <point x="639" y="1402" type="qcurve" smooth="yes"/>
      <point x="288" y="1402" type="line"/>
    </contour>
  </outline>
</glyph>
<glyph name="Q" format="1">
  <advance width="1478"/>
  <unicode hex="0051"/>
  <outline>
    <contour>
      <point x="1348" y="719" type="line" smooth="yes"/>
      <point x="1348.0" y="409.66666666666674"/>
      <point x="1230.3333333333335" y="170.66666666666666"/>
      <point x="1033" y="56" type="curve"/>
      <point x="1343" y="-165" type="line"/>
      <point x="1304" y="-203" type="line"/>
      <point x="979" y="28" type="line"/>
      <point x="905.6666666666667" y="-5.333333333333329"/>
      <point x="825.3333333333333" y="-21.0"/>
      <point x="740" y="-21" type="curve" smooth="yes"/>
      <point x="377.3333333333334" y="-21.0"/>
      <point x="130.0" y="272.33333333333337"/>
      <point x="130" y="719" type="curve" smooth="yes"/>
      <point x="130" y="737" type="line" smooth="yes"/>
      <point x="130.0" y="1183.6666666666665"/>
      <point x="375.3333333333335" y="1477.0"/>
      <point x="738" y="1477" type="curve" smooth="yes"/>
      <point x="1099.3333333333333" y="1477.0"/>
      <point x="1348.0" y="1183.6666666666665"/>
      <point x="1348" y="737" type="curve" smooth="yes"/>
    </contour>
    <contour>
      <point x="1294" y="739" type="line" smooth="yes"/>
      <point x="1294.0" y="1151.0"/>
      <point x="1075.3333333333333" y="1423.0"/>
      <point x="738" y="1423" type="curve" smooth="yes"/>
      <point x="402.0" y="1423.0"/>
      <point x="185.0" y="1151.0"/>
      <point x="185" y="739" type="curve" smooth="yes"/>
      <point x="185" y="719" type="line" smooth="yes"/>
      <point x="185.0" y="304.33333333333337"/>
      <point x="402.66666666666674" y="33.0"/>
      <point x="740" y="33" type="curve" smooth="yes"/>
      <point x="1077.3333333333333" y="33.0"/>
      <point x="1294.0" y="304.33333333333337"/>
      <point x="1294" y="719" type="curve" smooth="yes"/>
    </contour>
  </outline>
</glyph>
<glyph name="R" format="2">
  <advance width="1364"/>
  <unicode hex="0052"/>
  <outline>
    <contour>
      <point x="648" y="1455" type="line" smooth="yes"/>
      <point x="878" y="1455"/>
      <point x="1126" y="1256"/>
      <point x="1126" y="1065" type="qcurve" smooth="yes"/>
      <point x="1126" y="942"/>
      <point x="969" y="741"/>
      <point x="833" y="711" type="qcurve"/>
      <point x="990" y="684"/>
      <point x="1126" y="508"/>
      <point x="1126" y="371" type="qcurve" smooth="yes"/>
      <point x="1126" y="224" type="line" smooth="yes"/>
      <point x="1126" y="138"/>
      <point x="1185" y="54"/>
      <point x="1243" y="54" type="qcurve" smooth="yes"/>
      <point x="1294" y="54" type="line"/>
      <point x="1294" y="0" type="line"/>
      <point x="1243" y="0" type="line" smooth="yes"/>
      <point x="1146" y="0"/>
      <point x="1072" y="131"/>
      <point x="1072" y="226" type="qcurve" smooth="yes"/>
      <point x="1072" y="369" type="line" smooth="yes"/>
      <point x="1072" y="517"/>
      <point x="869" y="683"/>
      <point x="681" y="683" type="qcurve" smooth="yes"/>
      <point x="288" y="683" type="line"/>
      <point x="288" y="53" type="line"/>
      <point x="451" y="53" type="line"/>
      <point x="451" y="-1" type="line"/>
      <point x="71" y="-1" type="line"/>
      <point x="71" y="53" type="line"/>
      <point x="234" y="53" type="line"/>
      <point x="234" y="1401" type="line"/>
      <point x="71" y="1401" type="line"/>
      <point x="71" y="1455" type="line"/>
      <point x="234" y="1455" type="line"/>
    </contour>
    <contour>
      <point x="288" y="737" type="line"/>
      <point x="638" y="737" type="line" smooth="yes"/>
      <point x="861" y="737"/>
      <point x="1072" y="925"/>
      <point x="1072" y="1065" type="qcurve" smooth="yes"/>
      <point x="1072" y="1228"/>
      <point x="859" y="1401"/>
      <point x="648" y="1401" type="qcurve" smooth="yes"/>
      <point x="288" y="1401" type="line"/>
    </contour>
  </outline>
</glyph>
<glyph name="S" format="1">
  <advance width="1198"/>
  <unicode hex="0053"/>
  <outline>
    <contour>
      <point x="1050" y="1088" type="line"/>
      <point x="996" y="1088" type="line"/>
      <point x="996" y="1292" type="line"/>
      <point x="892" y="1379"/>
      <point x="753" y="1423"/>
      <point x="597" y="1423" type="curve" smooth="yes"/>
      <point x="343" y="1423"/>
      <point x="201" y="1286"/>
      <point x="201" y="1131" type="curve" smooth="yes"/>
      <point x="201" y="966"/>
      <point x="277" y="870"/>
      <point x="609" y="781" type="curve" smooth="yes"/>
      <point x="932" y="694"/>
      <point x="1098" y="580"/>
      <point x="1098" y="351" type="curve" smooth="yes"/>
      <point x="1098" y="120"/>
      <point x="887" y="-21"/>
      <point x="604" y="-21" type="curve" smooth="yes"/>
      <point x="429" y="-21"/>
      <point x="249" y="38"/>
      <point x="100" y="158" type="curve"/>
      <point x="100" y="404" type="line"/>
      <point x="154" y="404" type="line"/>
      <point x="154" y="185" type="line"/>
      <point x="288" y="84"/>
      <point x="451" y="33"/>
      <point x="604" y="33" type="curve" smooth="yes"/>
      <point x="860" y="33"/>
      <point x="1043.0" y="162.33333333333334"/>
      <point x="1043" y="349" type="curve" smooth="yes"/>
      <point x="1043.0" y="531.6666666666666"/>
      <point x="925" y="637"/>
      <point x="594" y="729" type="curve" smooth="yes"/>
      <point x="262" y="821"/>
      <point x="147" y="917"/>
      <point x="147" y="1129" type="curve" smooth="yes"/>
      <point x="147" y="1336"/>
      <point x="326" y="1477"/>
      <point x="597" y="1477" type="curve" smooth="yes"/>
      <point x="785" y="1477"/>
      <point x="936" y="1417"/>
      <point x="1050" y="1322" type="curve"/>
    </contour>
  </outline>
</glyph>
<glyph name="U" format="2">
  <advance width="1441"/>
  <unicode hex="0055"/>
  <outline>
    <contour>
      <point x="440" y="1456" type="line"/>
      <point x="440" y="1402" type="line"/>
      <point x="277" y="1402" type="line"/>
      <point x="277" y="469" type="line" smooth="yes"/>
      <point x="277" y="264"/>
      <point x="525" y="33"/>
      <point x="721" y="33" type="qcurve" smooth="yes"/>
      <point x="916" y="33"/>
      <point x="1164" y="264"/>
      <point x="1164" y="469" type="qcurve" smooth="yes"/>
      <point x="1164" y="1402" type="line"/>
      <point x="1001" y="1402" type="line"/>
      <point x="1001" y="1456" type="line"/>
      <point x="1218" y="1456" type="line"/>
      <point x="1381" y="1456" type="line"/>
      <point x="1381" y="1402" type="line"/>
      <point x="1218" y="1402" type="line"/>
      <point x="1218" y="469" type="line" smooth="yes"/>
      <point x="1218" y="231"/>
      <point x="942" y="-21"/>
      <point x="721" y="-21" type="qcurve" smooth="yes"/>
      <point x="498" y="-21"/>
      <point x="223" y="232"/>
      <point x="223" y="469" type="qcurve" smooth="yes"/>
      <point x="223" y="1402" type="line"/>
      <point x="60" y="1402" type="line"/>
      <point x="60" y="1456" type="line"/>
      <point x="223" y="1456" type="line"/>
      <point x="277" y="1456" type="line"/>
    </contour>
  </outline>
</glyph>
<glyph name="V" format="1">
  <advance width="1442"/>
  <unicode hex="0056"/>
  <outline>
    <contour>
      <point x="376" y="1402" type="line"/>
      <point x="223" y="1402" type="line"/>
      <point x="692" y="142" type="line"/>
      <point x="718" y="63" type="line"/>
      <point x="724" y="63" type="line"/>
      <point x="750" y="142" type="line"/>
      <point x="1219" y="1402" type="line"/>
      <point x="1066" y="1402" type="line"/>
      <point x="1066" y="1456" type="line"/>
      <point x="1385" y="1456" type="line"/>
      <point x="1385" y="1402" type="line"/>
      <point x="1278" y="1402" type="line"/>
      <point x="754" y="0" type="line"/>
      <point x="688" y="0" type="line"/>
      <point x="164" y="1402" type="line"/>
      <point x="57" y="1402" type="line"/>
      <point x="57" y="1456" type="line"/>
      <point x="376" y="1456" type="line"/>
    </contour>
  </outline>
</glyph>
<glyph name="W" format="2">
  <advance width="1960"/>
  <unicode hex="0057"/>
  <outline>
    <contour>
      <point x="367" y="1402" type="line"/>
      <point x="217" y="1402" type="line"/>
      <point x="486" y="330" type="line"/>
      <point x="549" y="101" type="line"/>
      <point x="555" y="101" type="line"/>
      <point x="618" y="330" type="line"/>
      <point x="982" y="1456" type="line"/>
      <point x="1042" y="1456" type="line"/>
      <point x="1404" y="330" type="line"/>
      <point x="1466" y="101" type="line"/>
      <point x="1472" y="101" type="line"/>
      <point x="1537" y="330" type="line"/>
      <point x="1803" y="1402" type="line"/>
      <point x="1654" y="1402" type="line"/>
      <point x="1654" y="1456" type="line"/>
      <point x="1963" y="1456" type="line"/>
      <point x="1963" y="1402" type="line"/>
      <point x="1862" y="1402" type="line"/>
      <point x="1504" y="0" type="line"/>
      <point x="1443" y="0" type="line"/>
      <point x="1062" y="1214" type="line"/>
      <point x="1014" y="1359" type="line"/>
      <point x="1008" y="1359" type="line"/>
      <point x="962" y="1214" type="line"/>
      <point x="578" y="0" type="line"/>
      <point x="517" y="0" type="line"/>
      <point x="158" y="1402" type="line"/>
      <point x="57" y="1402" type="line"/>
      <point x="57" y="1456" type="line"/>
      <point x="367" y="1456" type="line"/>
    </contour>
  </outline>
</glyph>
<glyph name="X" format="1">
  <advance width="1391"/>
  <unicode hex="0058"/>
  <outline>
    <contour>
      <point x="63" y="54" type="line"/>
      <point x="178" y="54" type="line"/>
      <point x="664" y="743" type="line"/>
      <point x="198" y="1402" type="line"/>
      <point x="83" y="1402" type="line"/>
      <point x="83" y="1456" type="line"/>
      <point x="431" y="1456" type="line"/>
      <point x="431" y="1402" type="line"/>
      <point x="265" y="1402" type="line"/>
      <point x="697" y="785" type="line"/>
      <point x="1130" y="1402" type="line"/>
      <point x="965" y="1402" type="line"/>
      <point x="965" y="1456" type="line"/>
      <point x="1312" y="1456" type="line"/>
      <point x="1312" y="1402" type="line"/>
      <point x="1197" y="1402" type="line"/>
      <point x="732" y="743" type="line"/>
      <point x="1218" y="54" type="line"/>
      <point x="1333" y="54" type="line"/>
      <point x="1333" y="0" type="line"/>
      <point x="986" y="0" type="line"/>
      <point x="986" y="54" type="line"/>
      <point x="1151" y="54" type="line"/>
      <point x="697" y="701" type="line"/>
      <point x="244" y="54" type="line"/>
      <point x="409" y="54" type="line"/>
      <point x="409" y="0" type="line"/>
      <point x="63" y="0" type="line"/>
    </contour>
  </outline>
</glyph>
<glyph name="Y" format="1">
  <advance width="1429"/>
  <unicode hex="0059"/>
  <outline>
    <contour>
      <point x="371" y="1402" type="line"/>
      <point x="240" y="1402" type="line"/>
      <point x="689" y="647" type="line"/>
      <point x="715" y="597" type="line"/>
      <point x="742" y="647" type="line"/>
      <point x="1193" y="1402" type="line"/>
      <point x="1062" y="1402" type="line"/>
      <point x="1062" y="1456" type="line"/>
      <point x="1378" y="1456" type="line"/>
      <point x="1378" y="1402" type="line"/>
      <point x="1258" y="1402" type="line"/>
      <point x="744" y="553" type="line"/>
      <point x="744" y="54" type="line"/>
      <point x="907" y="54" type="line"/>
      <point x="907" y="0" type="line"/>
      <point x="526" y="0" type="line"/>
      <point x="526" y="54" type="line"/>
      <point x="689" y="54" type="line"/>
      <point x="689" y="553" type="line"/>
      <point x="174" y="1402" type="line"/>
      <point x="55" y="1402" type="line"/>
      <point x="55" y="1456" type="line"/>
      <point x="371" y="1456" type="line"/>
    </contour>
  </outline>
</glyph>
<glyph name="backslash" format="1">
  <advance width="784"/>
  <unicode hex="005C"/>
  <outline>
    <contour>
      <point x="36" y="1456" type="line"/>
      <point x="94" y="1456" type="line"/>
      <point x="702" y="-125" type="line"/>
      <point x="644" y="-125" type="line"/>
    </contour>
  </outline>
</glyph>
<glyph name="asciicircum" format="1">
  <advance width="828"/>
  <unicode hex="005E"/>
  <outline>
    <contour>
      <point x="130" y="729" type="line"/>
      <point x="71" y="729" type="line"/>
      <point x="370" y="1456" type="line"/>
      <point x="422" y="1456" type="line"/>
      <point x="721" y="729" type="line"/>
      <point x="660" y="729" type="line"/>
      <point x="438" y="1272" type="line"/>
      <point x="398" y="1386" type="line"/>
      <point x="392" y="1386" type="line"/>
      <point x="349" y="1272" type="line"/>
    </contour>
  </outline>
</glyph>
<glyph name="grave" format="1">
  <advance width="546"/>
  <unicode hex="0060"/>
  <outline>
    <contour>
      <point x="395" y="1215" type="line"/>
      <point x="393" y="1210" type="line"/>
      <point x="318" y="1210" type="line"/>
      <point x="84" y="1471" type="line"/>
      <point x="86" y="1476" type="line"/>
      <point x="175" y="1476" type="line"/>
    </contour>
  </outline>
</glyph>
<glyph name="a" format="2">
  <advance width="1132"/>
  <unicode hex="0061"/>
  <outline>
    <contour>
      <point x="885" y="0" type="line"/>
      <point x="872" y="71"/>
      <point x="863" y="142"/>
      <point x="863" y="183" type="qcurve" smooth="yes"/>
      <point x="863" y="199" type="line"/>
      <point x="801" y="102"/>
      <point x="578" y="-21"/>
      <point x="427" y="-21" type="qcurve" smooth="yes"/>
      <point x="277" y="-21"/>
      <point x="104" y="142"/>
      <point x="104" y="274" type="qcurve" smooth="yes"/>
      <point x="104" y="420"/>
      <point x="370" y="604"/>
      <point x="594" y="604" type="qcurve" smooth="yes"/>
      <point x="863" y="604" type="line"/>
      <point x="863" y="762" type="line" smooth="yes"/>
      <point x="863" y="897"/>
      <point x="690" y="1048"/>
      <point x="533" y="1048" type="qcurve" smooth="yes"/>
      <point x="430" y="1048"/>
      <point x="251" y="990"/>
      <point x="188" y="939" type="qcurve"/>
      <point x="187" y="766" type="line"/>
      <point x="133" y="766" type="line"/>
      <point x="134" y="972" type="line"/>
      <point x="211" y="1029"/>
      <point x="420" y="1102"/>
      <point x="533" y="1102" type="qcurve" smooth="yes"/>
      <point x="707" y="1102"/>
      <point x="917" y="926"/>
      <point x="917" y="760" type="qcurve" smooth="yes"/>
      <point x="917" y="218" type="line" smooth="yes"/>
      <point x="917" y="176"/>
      <point x="924" y="94"/>
      <point x="932" y="54" type="qcurve"/>
      <point x="1062" y="54" type="line"/>
      <point x="1062" y="0" type="line"/>
    </contour>
    <contour>
      <point x="427" y="32" type="qcurve" smooth="yes"/>
      <point x="580" y="32"/>
      <point x="806" y="170"/>
      <point x="863" y="292" type="qcurve"/>
      <point x="863" y="549" type="line"/>
      <point x="597" y="549" type="line" smooth="yes"/>
      <point x="398" y="549"/>
      <point x="158" y="394"/>
      <point x="158" y="270" type="qcurve" smooth="yes"/>
      <point x="158" y="169"/>
      <point x="306" y="32"/>
    </contour>
  </outline>
</glyph>
<glyph name="b" format="2">
  <advance width="1088"/>
  <unicode hex="0062"/>
  <outline>
    <contour>
      <point x="984" y="521" type="line" smooth="yes"/>
      <point x="984" y="271"/>
      <point x="768" y="-21"/>
      <point x="578" y="-21" type="qcurve" smooth="yes"/>
      <point x="449" y="-21"/>
      <point x="260" y="84"/>
      <point x="207" y="173" type="qcurve"/>
      <point x="200" y="0" type="line"/>
      <point x="155" y="0" type="line"/>
      <point x="155" y="1506" type="line"/>
      <point x="-8" y="1506" type="line"/>
      <point x="-8" y="1560" type="line"/>
      <point x="209" y="1560" type="line"/>
      <point x="209" y="885" type="line"/>
      <point x="263" y="986"/>
      <point x="447" y="1102"/>
      <point x="576" y="1102" type="qcurve" smooth="yes"/>
      <point x="767" y="1102"/>
      <point x="984" y="799"/>
      <point x="984" y="542" type="qcurve" smooth="yes"/>
    </contour>
    <contour>
      <point x="928" y="542" type="line" smooth="yes"/>
      <point x="928" y="767"/>
      <point x="748" y="1048"/>
      <point x="577" y="1048" type="qcurve" smooth="yes"/>
      <point x="419" y="1048"/>
      <point x="246" y="887"/>
      <point x="209" y="770" type="qcurve"/>
      <point x="209" y="274" type="line"/>
      <point x="248" y="164"/>
      <point x="435" y="33"/>
      <point x="579" y="33" type="qcurve" smooth="yes"/>
      <point x="750" y="33"/>
      <point x="928" y="297"/>
      <point x="928" y="521" type="qcurve" smooth="yes"/>
    </contour>
  </outline>
</glyph>
<glyph name="e" format="2">
  <advance width="1104"/>
  <unicode hex="0065"/>
  <outline>
    <contour>
      <point x="566" y="-21" type="qcurve" smooth="yes"/>
      <point x="381" y="-21"/>
      <point x="112" y="278"/>
      <point x="112" y="500" type="qcurve" smooth="yes"/>
      <point x="112" y="564" type="line" smooth="yes"/>
      <point x="112" y="797"/>
      <point x="372" y="1102"/>
      <point x="563" y="1102" type="qcurve" smooth="yes"/>
      <point x="746" y="1102"/>
      <point x="977" y="862"/>
      <point x="977" y="660" type="qcurve" smooth="yes"/>
      <point x="977" y="577" type="line"/>
      <point x="166" y="577" type="line"/>
      <point x="166" y="564" type="line"/>
      <point x="166" y="500" type="line" smooth="yes"/>
      <point x="166" y="304"/>
      <point x="396" y="33"/>
      <point x="566" y="33" type="qcurve" smooth="yes"/>
      <point x="687" y="33"/>
      <point x="850" y="99"/>
      <point x="908" y="165" type="qcurve"/>
      <point x="937" y="123" type="line"/>
      <point x="873" y="52"/>
      <point x="690" y="-21"/>
    </contour>
    <contour>
      <point x="563" y="1048" type="qcurve" smooth="yes"/>
      <point x="402" y="1048"/>
      <point x="188" y="813"/>
      <point x="174" y="637" type="qcurve"/>
      <point x="177" y="631" type="line"/>
      <point x="923" y="631" type="line"/>
      <point x="923" y="664" type="line" smooth="yes"/>
      <point x="923" y="829"/>
      <point x="723" y="1048"/>
    </contour>
  </outline>
</glyph>
<glyph name="f" format="2">
  <advance width="722"/>
  <unicode hex="0066"/>
  <outline>
    <contour>
      <point x="114" y="54" type="line"/>
      <point x="277" y="54" type="line"/>
      <point x="277" y="1027" type="line"/>
      <point x="89" y="1027" type="line"/>
      <point x="89" y="1082" type="line"/>
      <point x="277" y="1082" type="line"/>
      <point x="277" y="1260" type="line" smooth="yes"/>
      <point x="277" y="1413"/>
      <point x="426" y="1581"/>
      <point x="560" y="1581" type="qcurve" smooth="yes"/>
      <point x="593" y="1581"/>
      <point x="658" y="1573"/>
      <point x="688" y="1564" type="qcurve"/>
      <point x="680" y="1512" type="line"/>
      <point x="648" y="1520"/>
      <point x="599" y="1527"/>
      <point x="561" y="1527" type="qcurve" smooth="yes"/>
      <point x="453" y="1527"/>
      <point x="331" y="1385"/>
      <point x="331" y="1260" type="qcurve" smooth="yes"/>
      <point x="331" y="1082" type="line"/>
      <point x="617" y="1082" type="line"/>
      <point x="617" y="1027" type="line"/>
      <point x="331" y="1027" type="line"/>
      <point x="331" y="54" type="line"/>
      <point x="494" y="54" type="line"/>
      <point x="494" y="0" type="line"/>
      <point x="114" y="0" type="line"/>
    </contour>
  </outline>
</glyph>
<glyph name="g" format="2">
  <advance width="1140"/>
  <unicode hex="0067"/>
  <outline>
    <contour>
      <point x="112" y="542" type="line" smooth="yes"/>
      <point x="112" y="799"/>
      <point x="328" y="1102"/>
      <point x="520" y="1102" type="qcurve" smooth="yes"/>
      <point x="648" y="1102"/>
      <point x="833" y="984"/>
      <point x="887" y="882" type="qcurve"/>
      <point x="895" y="1082" type="line"/>
      <point x="941" y="1082" type="line"/>
      <point x="941" y="14" type="line" smooth="yes"/>
      <point x="941" y="-194"/>
      <point x="722" y="-437"/>
      <point x="532" y="-437" type="qcurve" smooth="yes"/>
      <point x="453" y="-437"/>
      <point x="282" y="-404"/>
      <point x="218" y="-375" type="qcurve"/>
      <point x="234" y="-321" type="line"/>
      <point x="307" y="-353"/>
      <point x="443" y="-384"/>
      <point x="530" y="-384" type="qcurve" smooth="yes"/>
      <point x="703" y="-384"/>
      <point x="886" y="-171"/>
      <point x="886" y="14" type="qcurve" smooth="yes"/>
      <point x="886" y="171" type="line"/>
      <point x="832" y="83"/>
      <point x="645" y="-21"/>
      <point x="518" y="-21" type="qcurve" smooth="yes"/>
      <point x="327" y="-21"/>
      <point x="112" y="271"/>
      <point x="112" y="521" type="qcurve" smooth="yes"/>
    </contour>
    <contour>
      <point x="167" y="521" type="line" smooth="yes"/>
      <point x="167" y="297"/>
      <point x="345" y="33"/>
      <point x="517" y="33" type="qcurve" smooth="yes"/>
      <point x="661" y="33"/>
      <point x="846" y="165"/>
      <point x="886" y="276" type="qcurve"/>
      <point x="886" y="767" type="line"/>
      <point x="848" y="886"/>
      <point x="677" y="1048"/>
      <point x="519" y="1048" type="qcurve" smooth="yes"/>
      <point x="347" y="1048"/>
      <point x="167" y="767"/>
      <point x="167" y="542" type="qcurve" smooth="yes"/>
    </contour>
  </outline>
</glyph>
<glyph name="h" format="2">
  <advance width="1278"/>
  <unicode hex="0068"/>
  <outline>
    <contour>
      <point x="62" y="1506" type="line"/>
      <point x="62" y="1560" type="line"/>
      <point x="279" y="1560" type="line"/>
      <point x="279" y="854" type="line"/>
      <point x="329" y="972"/>
      <point x="523" y="1102"/>
      <point x="663" y="1102" type="qcurve" smooth="yes"/>
      <point x="832" y="1102"/>
      <point x="1007" y="888"/>
      <point x="1007" y="658" type="qcurve" smooth="yes"/>
      <point x="1007" y="54" type="line"/>
      <point x="1170" y="54" type="line"/>
      <point x="1170" y="0" type="line"/>
      <point x="789" y="0" type="line"/>
      <point x="789" y="54" type="line"/>
      <point x="952" y="54" type="line"/>
      <point x="952" y="660" type="line" smooth="yes"/>
      <point x="952" y="873"/>
      <point x="795" y="1048"/>
      <point x="664" y="1048" type="qcurve" smooth="yes"/>
      <point x="489" y="1048"/>
      <point x="303" y="839"/>
      <point x="279" y="676" type="qcurve"/>
      <point x="279" y="54" type="line"/>
      <point x="442" y="54" type="line"/>
      <point x="442" y="0" type="line"/>
      <point x="62" y="0" type="line"/>
      <point x="62" y="54" type="line"/>
      <point x="225" y="54" type="line"/>
      <point x="225" y="1506" type="line"/>
    </contour>
  </outline>
</glyph>
<glyph name="i" format="1">
  <advance width="609"/>
  <unicode hex="0069"/>
  <outline>
    <contour>
      <point x="89" y="54" type="line"/>
      <point x="252" y="54" type="line"/>
      <point x="252" y="1028" type="line"/>
      <point x="89" y="1028" type="line"/>
      <point x="89" y="1082" type="line"/>
      <point x="306" y="1082" type="line"/>
      <point x="306" y="54" type="line"/>
      <point x="469" y="54" type="line"/>
      <point x="469" y="0" type="line"/>
      <point x="89" y="0" type="line"/>
    </contour>
    <contour>
      <point x="306" y="1420" type="line"/>
      <point x="234" y="1420" type="line"/>
      <point x="234" y="1560" type="line"/>
      <point x="306" y="1560" type="line"/>
    </contour>
  </outline>
</glyph>
<glyph name="j" format="2">
  <advance width="555"/>
  <unicode hex="006A"/>
  <outline>
    <contour>
      <point x="384" y="-89" type="line" smooth="yes"/>
      <point x="384" y="-256"/>
      <point x="234" y="-437"/>
      <point x="99" y="-437" type="qcurve" smooth="yes"/>
      <point x="69" y="-437"/>
      <point x="17" y="-427"/>
      <point x="-13" y="-417" type="qcurve"/>
      <point x="0" y="-365" type="line"/>
      <point x="18" y="-371"/>
      <point x="73" y="-383"/>
      <point x="99" y="-383" type="qcurve" smooth="yes"/>
      <point x="209" y="-383"/>
      <point x="330" y="-229"/>
      <point x="330" y="-89" type="qcurve" smooth="yes"/>
      <point x="330" y="1028" type="line"/>
      <point x="167" y="1028" type="line"/>
      <point x="167" y="1082" type="line"/>
      <point x="384" y="1082" type="line"/>
    </contour>
    <contour>
      <point x="378" y="1426" type="line"/>
      <point x="324" y="1426" type="line"/>
      <point x="324" y="1560" type="line"/>
      <point x="378" y="1560" type="line"/>
    </contour>
  </outline>
</glyph>
<glyph name="k" format="1">
  <advance width="1152"/>
  <unicode hex="006B"/>
  <outline>
    <contour>
      <point x="62" y="1506" type="line"/>
      <point x="62" y="1560" type="line"/>
      <point x="279" y="1560" type="line"/>
      <point x="279" y="607" type="line"/>
      <point x="406" y="607" type="line"/>
      <point x="836" y="1022" type="line"/>
      <point x="834" y="1028" type="line"/>
      <point x="715" y="1028" type="line"/>
      <point x="715" y="1082" type="line"/>
      <point x="1036" y="1082" type="line"/>
      <point x="1036" y="1028" type="line"/>
      <point x="914" y="1028" type="line"/>
      <point x="467" y="589" type="line"/>
      <point x="956" y="54" type="line"/>
      <point x="1073" y="54" type="line"/>
      <point x="1073" y="0" type="line"/>
      <point x="753" y="0" type="line"/>
      <point x="753" y="54" type="line"/>
      <point x="879" y="54" type="line"/>
      <point x="881" y="59" type="line"/>
      <point x="427" y="553" type="line"/>
      <point x="279" y="553" type="line"/>
      <point x="279" y="54" type="line"/>
      <point x="442" y="54" type="line"/>
      <point x="442" y="0" type="line"/>
      <point x="62" y="0" type="line"/>
      <point x="62" y="54" type="line"/>
      <point x="225" y="54" type="line"/>
      <point x="225" y="1506" type="line"/>
    </contour>
  </outline>
</glyph>
<glyph name="m" format="1">
  <advance width="1980"/>
  <unicode hex="006D"/>
  <outline>
    <contour>
      <point x="89" y="54" type="line"/>
      <point x="252" y="54" type="line"/>
      <point x="252" y="1028" type="line"/>
      <point x="89" y="1028" type="line"/>
      <point x="89" y="1082" type="line"/>
      <point x="299" y="1082" type="line"/>
      <point x="306" y="859" type="line"/>
      <point x="371.33333333333337" y="1012.3333333333333"/>
      <point x="495.0000000000001" y="1102.0"/>
      <point x="671" y="1102" type="curve" smooth="yes"/>
      <point x="857.6666666666666" y="1102.0"/>
      <point x="975.0" y="1008.6666666666669"/>
      <point x="1019" y="810" type="curve"/>
      <point x="1076.3333333333335" y="994.0000000000001"/>
      <point x="1208.3333333333335" y="1103.0"/>
      <point x="1403" y="1103" type="curve" smooth="yes"/>
      <point x="1641.6666666666665" y="1103.0"/>
      <point x="1768.0" y="952.6666666666665"/>
      <point x="1768" y="618" type="curve" smooth="yes"/>
      <point x="1768" y="55" type="line"/>
      <point x="1931" y="55" type="line"/>
      <point x="1931" y="1" type="line"/>
      <point x="1550" y="1" type="line"/>
      <point x="1550" y="55" type="line"/>
      <point x="1713" y="55" type="line"/>
      <point x="1713" y="620" type="line" smooth="yes"/>
      <point x="1713.0" y="933.3333333333333"/>
      <point x="1591.6666666666665" y="1049.0"/>
      <point x="1405" y="1049" type="curve" smooth="yes"/>
      <point x="1175.6666666666665" y="1049.0"/>
      <point x="1064.3333333333335" y="896.6666666666667"/>
      <point x="1035" y="678" type="curve"/>
      <point x="1035.0" y="651.3333333333333"/>
      <point x="1037.0" y="633.6666666666667"/>
      <point x="1037" y="615" type="curve" smooth="yes"/>
      <point x="1037" y="54" type="line"/>
      <point x="1200" y="54" type="line"/>
      <point x="1200" y="0" type="line"/>
      <point x="819" y="0" type="line"/>
      <point x="819" y="54" type="line"/>
      <point x="982" y="54" type="line"/>
      <point x="982" y="619" type="line" smooth="yes"/>
      <point x="982.0" y="933.6666666666665"/>
      <point x="861.0" y="1048.0"/>
      <point x="673" y="1048" type="curve" smooth="yes"/>
      <point x="449.0" y="1048.0"/>
      <point x="339.0" y="903.3333333333333"/>
      <point x="307" y="694" type="curve"/>
      <point x="307" y="54" type="line"/>
      <point x="470" y="54" type="line"/>
      <point x="470" y="0" type="line"/>
      <point x="89" y="0" type="line"/>
    </contour>
  </outline>
</glyph>
<glyph name="n" format="2">
  <advance width="1320"/>
  <unicode hex="006E"/>
  <outline>
    <contour>
      <point x="89" y="54" type="line"/>
      <point x="252" y="54" type="line"/>
      <point x="252" y="1028" type="line"/>
      <point x="89" y="1028" type="line"/>
      <point x="89" y="1082" type="line"/>
      <point x="298" y="1082" type="line"/>
      <point x="305" y="859" type="line"/>
      <point x="354" y="975"/>
      <point x="542" y="1102"/>
      <point x="680" y="1102" type="qcurve" smooth="yes"/>
      <point x="857" y="1102"/>
      <point x="1034" y="879"/>
      <point x="1034" y="637" type="qcurve" smooth="yes"/>
      <point x="1034" y="54" type="line"/>
      <point x="1197" y="54" type="line"/>
      <point x="1197" y="0" type="line"/>
      <point x="817" y="0" type="line"/>
      <point x="817" y="54" type="line"/>
      <point x="980" y="54" type="line"/>
      <point x="980" y="639" type="line" smooth="yes"/>
      <point x="980" y="864"/>
      <point x="819" y="1048"/>
      <point x="681" y="1048" type="qcurve" smooth="yes"/>
      <point x="506" y="1048"/>
      <point x="328" y="839"/>
      <point x="306" y="676" type="qcurve"/>
      <point x="306" y="54" type="line"/>
      <point x="469" y="54" type="line"/>
      <point x="469" y="0" type="line"/>
      <point x="89" y="0" type="line"/>
    </contour>
  </outline>
</glyph>
<glyph name="o" format="1">
  <advance width="1155"/>
  <unicode hex="006F"/>
  <outline>
    <contour>
      <point x="104" y="562" type="line" smooth="yes"/>
      <point x="104.0" y="879.3333333333333"/>
      <point x="297.00000000000006" y="1102.0"/>
      <point x="577" y="1102" type="curve" smooth="yes"/>
      <point x="858.3333333333331" y="1102.0"/>
      <point x="1051.0" y="879.3333333333334"/>
      <point x="1051" y="562" type="curve" smooth="yes"/>
      <point x="1051" y="520" type="line" smooth="yes"/>
      <point x="1051.0" y="201.33333333333337"/>
      <point x="857.6666666666665" y="-21.0"/>
      <point x="579" y="-21" type="curve" smooth="yes"/>
      <point x="297.66666666666674" y="-21.0"/>
      <point x="104.0" y="201.33333333333337"/>
      <point x="104" y="520" type="curve" smooth="yes"/>
    </contour>
    <contour>
      <point x="158" y="520" type="line" smooth="yes"/>
      <point x="158.0" y="248.0"/>
      <point x="321.66666666666674" y="33.0"/>
      <point x="579" y="33" type="curve" smooth="yes"/>
      <point x="832.3333333333333" y="33.0"/>
      <point x="997.0" y="249.33333333333331"/>
      <point x="997" y="520" type="curve" smooth="yes"/>
      <point x="997" y="562" type="line" smooth="yes"/>
      <point x="997.0" y="827.3333333333333"/>
      <point x="830.3333333333333" y="1048.0"/>
      <point x="577" y="1048" type="curve" smooth="yes"/>
      <point x="322.33333333333337" y="1048.0"/>
      <point x="158.0" y="827.3333333333333"/>
      <point x="158" y="562" type="curve" smooth="yes"/>
    </contour>
  </outline>
</glyph>
<glyph name="p" format="2">
  <advance width="1161"/>
  <unicode hex="0070"/>
  <outline>
    <contour>
      <point x="65" y="-362" type="line"/>
      <point x="228" y="-362" type="line"/>
      <point x="228" y="1028" type="line"/>
      <point x="65" y="1028" type="line"/>
      <point x="65" y="1082" type="line"/>
      <point x="270" y="1082" type="line"/>
      <point x="281" y="888" type="line"/>
      <point x="335" y="988"/>
      <point x="521" y="1102"/>
      <point x="649" y="1102" type="qcurve" smooth="yes"/>
      <point x="840" y="1102"/>
      <point x="1057" y="799"/>
      <point x="1057" y="542" type="qcurve" smooth="yes"/>
      <point x="1057" y="521" type="line" smooth="yes"/>
      <point x="1057" y="271"/>
      <point x="841" y="-21"/>
      <point x="651" y="-21" type="qcurve" smooth="yes"/>
      <point x="524" y="-21"/>
      <point x="335" y="81"/>
      <point x="282" y="168" type="qcurve"/>
      <point x="282" y="-362" type="line"/>
      <point x="445" y="-362" type="line"/>
      <point x="445" y="-416" type="line"/>
      <point x="65" y="-416" type="line"/>
    </contour>
    <contour>
      <point x="1002" y="542" type="line" smooth="yes"/>
      <point x="1002" y="767"/>
      <point x="821" y="1048"/>
      <point x="650" y="1048" type="qcurve" smooth="yes"/>
      <point x="493" y="1048"/>
      <point x="319" y="890"/>
      <point x="282" y="775" type="qcurve"/>
      <point x="282" y="269" type="line"/>
      <point x="322" y="161"/>
      <point x="510" y="33"/>
      <point x="652" y="33" type="qcurve" smooth="yes"/>
      <point x="823" y="33"/>
      <point x="1002" y="297"/>
      <point x="1002" y="521" type="qcurve" smooth="yes"/>
    </contour>
  </outline>
</glyph>
<glyph name="q" format="2">
  <advance width="1136"/>
  <unicode hex="0071"/>
  <outline>
    <contour>
      <point x="104" y="542" type="line" smooth="yes"/>
      <point x="104" y="799"/>
      <point x="320" y="1102"/>
      <point x="512" y="1102" type="qcurve" smooth="yes"/>
      <point x="639" y="1102"/>
      <point x="824" y="987"/>
      <point x="879" y="886" type="qcurve"/>
      <point x="884" y="1082" type="line"/>
      <point x="933" y="1082" type="line"/>
      <point x="933" y="-362" type="line"/>
      <point x="1096" y="-362" type="line"/>
      <point x="1096" y="-416" type="line"/>
      <point x="716" y="-416" type="line"/>
      <point x="716" y="-362" type="line"/>
      <point x="879" y="-362" type="line"/>
      <point x="879" y="170" type="line"/>
      <point x="825" y="82"/>
      <point x="637" y="-21"/>
      <point x="510" y="-21" type="qcurve" smooth="yes"/>
      <point x="319" y="-21"/>
      <point x="104" y="271"/>
      <point x="104" y="521" type="qcurve" smooth="yes"/>
    </contour>
    <contour>
      <point x="160" y="521" type="line" smooth="yes"/>
      <point x="160" y="297"/>
      <point x="337" y="33"/>
      <point x="509" y="33" type="qcurve" smooth="yes"/>
      <point x="652" y="33"/>
      <point x="839" y="164"/>
      <point x="879" y="274" type="qcurve"/>
      <point x="879" y="768" type="line"/>
      <point x="841" y="883"/>
      <point x="665" y="1048"/>
      <point x="511" y="1048" type="qcurve" smooth="yes"/>
      <point x="339" y="1048"/>
      <point x="160" y="767"/>
      <point x="160" y="542" type="qcurve" smooth="yes"/>
    </contour>
  </outline>
</glyph>
<glyph name="r" format="1">
  <advance width="803"/>
  <unicode hex="0072"/>
  <outline>
    <contour>
      <point x="296" y="1082" type="line"/>
      <point x="306" y="894" type="line"/>
      <point x="306" y="857" type="line"/>
      <point x="366.0" y="1011.6666666666667"/>
      <point x="485.66666666666674" y="1102.0"/>
      <point x="659" y="1102" type="curve" smooth="yes"/>
      <point x="689.6666666666667" y="1102.0"/>
      <point x="716.3333333333333" y="1096.3333333333335"/>
      <point x="735" y="1091" type="curve"/>
      <point x="729" y="1043" type="line"/>
      <point x="659" y="1049" type="line"/>
      <point x="465.66666666666674" y="1049.0"/>
      <point x="342.0" y="913.0"/>
      <point x="306" y="709" type="curve"/>
      <point x="306" y="54" type="line"/>
      <point x="469" y="54" type="line"/>
      <point x="469" y="0" type="line"/>
      <point x="89" y="0" type="line"/>
      <point x="89" y="54" type="line"/>
      <point x="252" y="54" type="line"/>
      <point x="252" y="1028" type="line"/>
      <point x="89" y="1028" type="line"/>
      <point x="89" y="1082" type="line"/>
      <point x="252" y="1082" type="line"/>
    </contour>
  </outline>
</glyph>
<glyph name="s" format="1">
  <advance width="1009"/>
  <unicode hex="0073"/>
  <outline>
    <contour>
      <point x="852" y="753" type="line"/>
      <point x="798" y="753" type="line"/>
      <point x="798" y="928" type="line"/>
      <point x="728.6666666666667" y="1005.3333333333333"/>
      <point x="620.3333333333333" y="1048.0"/>
      <point x="479" y="1048" type="curve" smooth="yes"/>
      <point x="276.3333333333335" y="1048.0"/>
      <point x="171.0" y="945.6666666666667"/>
      <point x="171" y="831" type="curve" smooth="yes"/>
      <point x="171.0" y="717.6666666666667"/>
      <point x="237.66666666666674" y="641.0"/>
      <point x="499" y="581" type="curve" smooth="yes"/>
      <point x="740.3333333333333" y="525.0"/>
      <point x="867.0" y="437.33333333333326"/>
      <point x="867" y="264" type="curve" smooth="yes"/>
      <point x="867.0" y="94.66666666666669"/>
      <point x="716.3333333333333" y="-21.0"/>
      <point x="487" y="-21" type="curve" smooth="yes"/>
      <point x="329.66666666666674" y="-21.0"/>
      <point x="192.33333333333331" y="32.666666666666686"/>
      <point x="103" y="122" type="curve"/>
      <point x="103" y="315" type="line"/>
      <point x="157" y="315" type="line"/>
      <point x="157" y="152" type="line"/>
      <point x="235.66666666666663" y="68.0"/>
      <point x="357.66666666666674" y="33.0"/>
      <point x="487" y="33" type="curve" smooth="yes"/>
      <point x="687.0" y="33.0"/>
      <point x="813.0" y="142.33333333333337"/>
      <point x="813" y="265" type="curve" smooth="yes"/>
      <point x="813.0" y="379.66666666666663"/>
      <point x="727.0" y="478.66666666666663"/>
      <point x="483" y="532" type="curve" smooth="yes"/>
      <point x="228.33333333333337" y="585.3333333333333"/>
      <point x="117.0" y="663.6666666666667"/>
      <point x="117" y="829" type="curve" smooth="yes"/>
      <point x="117.0" y="983.6666666666667"/>
      <point x="257.66666666666663" y="1102.0"/>
      <point x="479" y="1102" type="curve" smooth="yes"/>
      <point x="633.6666666666667" y="1102.0"/>
      <point x="772.0" y="1044.3333333333333"/>
      <point x="852" y="955" type="curve"/>
    </contour>
  </outline>
</glyph>
<glyph name="u" format="2">
  <advance width="1222"/>
  <unicode hex="0075"/>
  <outline>
    <contour>
      <point x="918" y="194" type="line"/>
      <point x="867" y="91"/>
      <point x="678" y="-21"/>
      <point x="543" y="-21" type="qcurve" smooth="yes"/>
      <point x="376" y="-21"/>
      <point x="187" y="216"/>
      <point x="187" y="465" type="qcurve" smooth="yes"/>
      <point x="187" y="1028" type="line"/>
      <point x="44" y="1028" type="line"/>
      <point x="44" y="1082" type="line"/>
      <point x="187" y="1082" type="line"/>
      <point x="241" y="1082" type="line"/>
      <point x="241" y="463" type="line" smooth="yes"/>
      <point x="241" y="243"/>
      <point x="403" y="33"/>
      <point x="541" y="33" type="qcurve" smooth="yes"/>
      <point x="710" y="33"/>
      <point x="891" y="199"/>
      <point x="916" y="336" type="qcurve"/>
      <point x="916" y="1028" type="line"/>
      <point x="753" y="1028" type="line"/>
      <point x="753" y="1082" type="line"/>
      <point x="916" y="1082" type="line"/>
      <point x="971" y="1082" type="line"/>
      <point x="971" y="54" type="line"/>
      <point x="1134" y="54" type="line"/>
      <point x="1134" y="0" type="line"/>
      <point x="926" y="0" type="line"/>
    </contour>
  </outline>
</glyph>
<glyph name="v" format="1">
  <advance width="1165"/>
  <unicode hex="0076"/>
  <outline>
    <contour>
      <point x="370" y="1028" type="line"/>
      <point x="228" y="1028" type="line"/>
      <point x="541" y="229" type="line"/>
      <point x="592" y="83" type="line"/>
      <point x="598" y="83" type="line"/>
      <point x="650" y="229" type="line"/>
      <point x="962" y="1028" type="line"/>
      <point x="820" y="1028" type="line"/>
      <point x="820" y="1082" type="line"/>
      <point x="1138" y="1082" type="line"/>
      <point x="1138" y="1028" type="line"/>
      <point x="1020" y="1028" type="line"/>
      <point x="620" y="1" type="line"/>
      <point x="621" y="0" type="line"/>
      <point x="569" y="0" type="line"/>
      <point x="170" y="1028" type="line"/>
      <point x="52" y="1028" type="line"/>
      <point x="52" y="1082" type="line"/>
      <point x="370" y="1082" type="line"/>
    </contour>
  </outline>
</glyph>
<glyph name="w" format="1">
  <advance width="1751"/>
  <unicode hex="0077"/>
  <outline>
    <contour>
      <point x="1709" y="1028" type="line"/>
      <point x="1586" y="1028" type="line"/>
      <point x="1267" y="0" type="line"/>
      <point x="1212" y="0" type="line"/>
      <point x="930" y="813" type="line"/>
      <point x="871" y="994" type="line"/>
      <point x="865" y="994" type="line"/>
      <point x="810" y="813" type="line"/>
      <point x="537" y="0" type="line"/>
      <point x="482" y="0" type="line"/>
      <point x="164" y="1028" type="line"/>
      <point x="42" y="1028" type="line"/>
      <point x="42" y="1082" type="line"/>
      <point x="374" y="1082" type="line"/>
      <point x="374" y="1028" type="line"/>
      <point x="226" y="1028" type="line"/>
      <point x="443" y="313" type="line"/>
      <point x="508" y="92" type="line"/>
      <point x="514" y="91" type="line"/>
      <point x="584" y="313" type="line"/>
      <point x="841" y="1082" type="line"/>
      <point x="896" y="1082" type="line"/>
      <point x="1160" y="313" type="line"/>
      <point x="1235" y="90" type="line"/>
      <point x="1241" y="91" type="line"/>
      <point x="1308" y="313" type="line" smooth="yes"/>
      <point x="1524" y="1028" type="line"/>
      <point x="1376" y="1028" type="line"/>
      <point x="1376" y="1082" type="line"/>
      <point x="1709" y="1082" type="line"/>
    </contour>
  </outline>
</glyph>
<glyph name="y" format="1">
  <advance width="1185"/>
  <unicode hex="0079"/>
  <outline>
    <contour>
      <point x="374" y="1028" type="line"/>
      <point x="232" y="1028" type="line"/>
      <point x="567" y="196" type="line"/>
      <point x="607" y="88" type="line"/>
      <point x="613" y="88" type="line"/>
      <point x="619" y="104" type="line"/>
      <point x="972" y="1028" type="line"/>
      <point x="830" y="1028" type="line"/>
      <point x="830" y="1082" type="line"/>
      <point x="1150" y="1082" type="line"/>
      <point x="1150" y="1028" type="line"/>
      <point x="1032" y="1028" type="line"/>
      <point x="572" y="-180" type="line" smooth="yes"/>
      <point x="513.3333333333333" y="-332.0"/>
      <point x="453.66666666666663" y="-437.0"/>
      <point x="283" y="-437" type="curve" smooth="yes"/>
      <point x="257.66666666666663" y="-437.0"/>
      <point x="221.66666666666669" y="-431.33333333333337"/>
      <point x="207" y="-426" type="curve"/>
      <point x="216" y="-375" type="line"/>
      <point x="230.6666666666667" y="-379.0"/>
      <point x="267.0" y="-384.0"/>
      <point x="283" y="-384" type="curve" smooth="yes"/>
      <point x="405.66666666666663" y="-384.0"/>
      <point x="464.66666666666663" y="-311.3333333333333"/>
      <point x="518" y="-170" type="curve" smooth="yes"/>
      <point x="583" y="6" type="line"/>
      <point x="173" y="1028" type="line"/>
      <point x="55" y="1028" type="line"/>
      <point x="55" y="1082" type="line"/>
      <point x="374" y="1082" type="line"/>
    </contour>
  </outline>
</glyph>
<glyph name="z" format="1">
  <advance width="1077"/>
  <unicode hex="007A"/>
  <outline>
    <contour>
      <point x="193" y="54" type="line"/>
      <point x="909" y="54" type="line"/>
      <point x="909" y="293" type="line"/>
      <point x="963" y="293" type="line"/>
      <point x="963" y="0" type="line"/>
      <point x="120" y="0" type="line"/>
      <point x="120" y="44" type="line"/>
      <point x="831" y="1027" type="line"/>
      <point x="175" y="1027" type="line"/>
      <point x="175" y="789" type="line"/>
      <point x="121" y="789" type="line"/>
      <point x="121" y="1082" type="line"/>
      <point x="904" y="1082" type="line"/>
      <point x="904" y="1034" type="line"/>
    </contour>
  </outline>
</glyph>
<glyph name="braceleft" format="2">
  <advance width="693"/>
  <unicode hex="007B"/>
  <outline>
    <contour>
      <point x="632" y="-441" type="line"/>
      <point x="459" y="-386"/>
      <point x="313" y="-150"/>
      <point x="313" y="20" type="qcurve" smooth="yes"/>
      <point x="313" y="265" type="line" smooth="yes"/>
      <point x="313" y="397"/>
      <point x="191" y="543"/>
      <point x="63" y="543" type="qcurve"/>
      <point x="63" y="609" type="line"/>
      <point x="191" y="609"/>
      <point x="313" y="753"/>
      <point x="313" y="885" type="qcurve" smooth="yes"/>
      <point x="313" y="1132" type="line" smooth="yes"/>
      <point x="313" y="1303"/>
      <point x="459" y="1542"/>
      <point x="632" y="1597" type="qcurve"/>
      <point x="647" y="1552" type="line"/>
      <point x="504" y="1506"/>
      <point x="367" y="1287"/>
      <point x="367" y="1132" type="qcurve" smooth="yes"/>
      <point x="367" y="885" type="line" smooth="yes"/>
      <point x="367" y="765"/>
      <point x="263" y="601"/>
      <point x="156" y="576" type="qcurve"/>
      <point x="263" y="550"/>
      <point x="367" y="384"/>
      <point x="367" y="265" type="qcurve" smooth="yes"/>
      <point x="367" y="20" type="line" smooth="yes"/>
      <point x="367" y="-134"/>
      <point x="508" y="-346"/>
      <point x="652" y="-395" type="qcurve"/>
    </contour>
  </outline>
</glyph>
<glyph name="braceright" format="2">
  <advance width="692"/>
  <unicode hex="007D"/>
  <outline>
    <contour>
      <point x="27" y="-395" type="line"/>
      <point x="170" y="-346"/>
      <point x="311" y="-134"/>
      <point x="311" y="20" type="qcurve" smooth="yes"/>
      <point x="311" y="265" type="line" smooth="yes"/>
      <point x="311" y="384"/>
      <point x="414" y="550"/>
      <point x="522" y="576" type="qcurve"/>
      <point x="414" y="601"/>
      <point x="311" y="765"/>
      <point x="311" y="885" type="qcurve" smooth="yes"/>
      <point x="311" y="1132" type="line" smooth="yes"/>
      <point x="311" y="1287"/>
      <point x="174" y="1506"/>
      <point x="32" y="1552" type="qcurve"/>
      <point x="46" y="1597" type="line"/>
      <point x="218" y="1542"/>
      <point x="365" y="1303"/>
      <point x="365" y="1132" type="qcurve" smooth="yes"/>
      <point x="365" y="885" type="line" smooth="yes"/>
      <point x="365" y="753"/>
      <point x="487" y="609"/>
      <point x="615" y="609" type="qcurve"/>
      <point x="615" y="543" type="line"/>
      <point x="487" y="543"/>
      <point x="365" y="396"/>
      <point x="365" y="265" type="qcurve" smooth="yes"/>
      <point x="365" y="20" type="line" smooth="yes"/>
      <point x="365" y="-151"/>
      <point x="219" y="-386"/>
      <point x="46" y="-441" type="qcurve"/>
    </contour>
  </outline>
</glyph>
<glyph name="asciitilde" format="2">
  <advance width="1368"/>
  <unicode hex="007E"/>
  <outline>
    <contour>
      <point x="1216" y="740" type="line"/>
      <point x="1216" y="619"/>
      <point x="1065" y="443"/>
      <point x="952" y="443" type="qcurve" smooth="yes"/>
      <point x="865" y="443"/>
      <point x="722" y="519"/>
      <point x="631" y="602" type="qcurve" smooth="yes"/>
      <point x="563" y="661"/>
      <point x="444" y="720"/>
      <point x="383" y="720" type="qcurve" smooth="yes"/>
      <point x="294" y="720"/>
      <point x="180" y="584"/>
      <point x="180" y="462" type="qcurve"/>
      <point x="121" y="474" type="line"/>
      <point x="121" y="602"/>
      <point x="268" y="774"/>
      <point x="383" y="774" type="qcurve" smooth="yes"/>
      <point x="469" y="774"/>
      <point x="614" y="695"/>
      <point x="706" y="614" type="qcurve" smooth="yes"/>
      <point x="773" y="552"/>
      <point x="889" y="496"/>
      <point x="952" y="496" type="qcurve" smooth="yes"/>
      <point x="1038" y="496"/>
      <point x="1155" y="637"/>
      <point x="1155" y="753" type="qcurve"/>
    </contour>
  </outline>
</glyph>
<glyph name="cent" format="2">
  <advance width="1063"/>
  <unicode hex="00A2"/>
  <outline>
    <contour>
      <point x="583" y="33" type="qcurve" smooth="yes"/>
      <point x="720" y="33"/>
      <point x="930" y="183"/>
      <point x="930" y="333" type="qcurve"/>
      <point x="976" y="333" type="line"/>
      <point x="978" y="327" type="line"/>
      <point x="982" y="181"/>
      <point x="776" y="-3"/>
      <point x="631" y="-18" type="qcurve"/>
      <point x="631" y="-245" type="line"/>
      <point x="576" y="-245" type="line"/>
      <point x="576" y="-21" type="line"/>
      <point x="371" y="-18"/>
      <point x="141" y="279"/>
      <point x="141" y="520" type="qcurve" smooth="yes"/>
      <point x="141" y="562" type="line" smooth="yes"/>
      <point x="141" y="802"/>
      <point x="372" y="1099"/>
      <point x="576" y="1102" type="qcurve"/>
      <point x="576" y="1318" type="line"/>
      <point x="631" y="1318" type="line"/>
      <point x="631" y="1100" type="line"/>
      <point x="737" y="1090"/>
      <point x="917" y="991"/>
      <point x="974" y="915" type="qcurve"/>
      <point x="974" y="683" type="line"/>
      <point x="920" y="683" type="line"/>
      <point x="920" y="895" type="line"/>
      <point x="863" y="965"/>
      <point x="690" y="1048"/>
      <point x="581" y="1048" type="qcurve" smooth="yes"/>
      <point x="391" y="1048"/>
      <point x="195" y="776"/>
      <point x="195" y="562" type="qcurve" smooth="yes"/>
      <point x="195" y="520" type="line" smooth="yes"/>
      <point x="195" y="304"/>
      <point x="391" y="33"/>
    </contour>
  </outline>
</glyph>
<glyph name="sterling" format="2">
  <advance width="1151"/>
  <unicode hex="00A3"/>
  <outline>
    <contour>
      <point x="132" y="0" type="line"/>
      <point x="132" y="54" type="line"/>
      <point x="142" y="54" type="line"/>
      <point x="231" y="70"/>
      <point x="319" y="329"/>
      <point x="319" y="466" type="qcurve" smooth="yes"/>
      <point x="311" y="667" type="line"/>
      <point x="68" y="667" type="line"/>
      <point x="68" y="721" type="line"/>
      <point x="309" y="721" type="line"/>
      <point x="298" y="1040" type="line" smooth="yes"/>
      <point x="298" y="1244"/>
      <point x="500" y="1477"/>
      <point x="669" y="1477" type="qcurve" smooth="yes"/>
      <point x="844" y="1477"/>
      <point x="1006" y="1273"/>
      <point x="1003" y="1095" type="qcurve"/>
      <point x="1001" y="1090" type="line"/>
      <point x="954" y="1090" type="line"/>
      <point x="954" y="1266"/>
      <point x="807" y="1423"/>
      <point x="669" y="1423" type="qcurve" smooth="yes"/>
      <point x="522" y="1423"/>
      <point x="352" y="1223"/>
      <point x="352" y="1040" type="qcurve" smooth="yes"/>
      <point x="363" y="721" type="line"/>
      <point x="841" y="721" type="line"/>
      <point x="841" y="667" type="line"/>
      <point x="365" y="667" type="line"/>
      <point x="373" y="466" type="line" smooth="yes"/>
      <point x="373" y="341"/>
      <point x="301" y="120"/>
      <point x="235" y="54" type="qcurve"/>
      <point x="990" y="54" type="line"/>
      <point x="990" y="293" type="line"/>
      <point x="1044" y="293" type="line"/>
      <point x="1044" y="0" type="line"/>
    </contour>
  </outline>
</glyph>
<glyph name="currency" format="2">
  <advance width="1461"/>
  <unicode hex="00A4"/>
  <outline>
    <contour>
      <point x="1139" y="156" type="line"/>
      <point x="1057" y="72"/>
      <point x="844" y="-20"/>
      <point x="725" y="-20" type="qcurve" smooth="yes"/>
      <point x="605" y="-20"/>
      <point x="392" y="71"/>
      <point x="310" y="154" type="qcurve"/>
      <point x="134" y="-26" type="line"/>
      <point x="94" y="13" type="line"/>
      <point x="273" y="195" type="line"/>
      <point x="204" y="279"/>
      <point x="129" y="490"/>
      <point x="129" y="608" type="qcurve" smooth="yes"/>
      <point x="129" y="730"/>
      <point x="209" y="947"/>
      <point x="283" y="1032" type="qcurve"/>
      <point x="94" y="1225" type="line"/>
      <point x="134" y="1264" type="line"/>
      <point x="322" y="1072" type="line"/>
      <point x="402" y="1149"/>
      <point x="609" y="1234"/>
      <point x="725" y="1234" type="qcurve" smooth="yes"/>
      <point x="839" y="1234"/>
      <point x="1046" y="1148"/>
      <point x="1128" y="1070" type="qcurve"/>
      <point x="1319" y="1265" type="line"/>
      <point x="1360" y="1225" type="line"/>
      <point x="1167" y="1029" type="line"/>
      <point x="1239" y="944"/>
      <point x="1319" y="728"/>
      <point x="1319" y="608" type="qcurve" smooth="yes"/>
      <point x="1319" y="491"/>
      <point x="1245" y="282"/>
      <point x="1178" y="199" type="qcurve"/>
      <point x="1360" y="13" type="line"/>
      <point x="1319" y="-27" type="line"/>
    </contour>
    <contour>
      <point x="184" y="608" type="qcurve" smooth="yes"/>
      <point x="184" y="370"/>
      <point x="502" y="33"/>
      <point x="725" y="33" type="qcurve" smooth="yes"/>
      <point x="946" y="33"/>
      <point x="1265" y="370"/>
      <point x="1265" y="608" type="qcurve" smooth="yes"/>
      <point x="1265" y="845"/>
      <point x="946" y="1181"/>
      <point x="725" y="1181" type="qcurve" smooth="yes"/>
      <point x="502" y="1181"/>
      <point x="184" y="845"/>
    </contour>
  </outline>
</glyph>
<glyph name="section" format="2">
  <advance width="1197"/>
  <unicode hex="00A7"/>
  <outline>
    <contour>
      <point x="1063" y="431" type="qcurve" smooth="yes"/>
      <point x="1063" y="326"/>
      <point x="899" y="184"/>
      <point x="759" y="164" type="qcurve"/>
      <point x="890" y="114"/>
      <point x="1019" y="-30"/>
      <point x="1019" y="-149" type="qcurve" smooth="yes"/>
      <point x="1019" y="-310"/>
      <point x="775" y="-495"/>
      <point x="569" y="-495" type="qcurve" smooth="yes"/>
      <point x="364" y="-495"/>
      <point x="85" y="-290"/>
      <point x="90" y="-69" type="qcurve"/>
      <point x="92" y="-64" type="line"/>
      <point x="138" y="-62" type="line"/>
      <point x="138" y="-261"/>
      <point x="392" y="-441"/>
      <point x="569" y="-441" type="qcurve" smooth="yes"/>
      <point x="754" y="-441"/>
      <point x="964" y="-280"/>
      <point x="964" y="-151" type="qcurve" smooth="yes"/>
      <point x="964" y="-31"/>
      <point x="803" y="106"/>
      <point x="576" y="166" type="qcurve" smooth="yes"/>
      <point x="331" y="224"/>
      <point x="90" y="393"/>
      <point x="90" y="551" type="qcurve" smooth="yes"/>
      <point x="90" y="659"/>
      <point x="242" y="801"/>
      <point x="377" y="822" type="qcurve"/>
      <point x="255" y="870"/>
      <point x="135" y="1015"/>
      <point x="135" y="1130" type="qcurve" smooth="yes"/>
      <point x="135" y="1287"/>
      <point x="381" y="1477"/>
      <point x="587" y="1477" type="qcurve" smooth="yes"/>
      <point x="801" y="1477"/>
      <point x="1039" y="1254"/>
      <point x="1035" y="1052" type="qcurve"/>
      <point x="1033" y="1046" type="line"/>
      <point x="987" y="1046" type="line"/>
      <point x="987" y="1208"/>
      <point x="774" y="1423"/>
      <point x="587" y="1423" type="qcurve" smooth="yes"/>
      <point x="390" y="1423"/>
      <point x="189" y="1260"/>
      <point x="189" y="1133" type="qcurve" smooth="yes"/>
      <point x="189" y="1007"/>
      <point x="348" y="871"/>
      <point x="585" y="804" type="qcurve" smooth="yes"/>
      <point x="837" y="740"/>
      <point x="1063" y="587"/>
    </contour>
    <contour>
      <point x="559" y="766" type="qcurve"/>
      <point x="529" y="772"/>
      <point x="475" y="787"/>
      <point x="451" y="796" type="qcurve"/>
      <point x="299" y="789"/>
      <point x="144" y="655"/>
      <point x="144" y="553" type="qcurve" smooth="yes"/>
      <point x="144" y="423"/>
      <point x="320" y="292"/>
      <point x="593" y="215" type="qcurve" smooth="yes"/>
      <point x="662" y="196" type="line"/>
      <point x="823" y="197"/>
      <point x="1009" y="329"/>
      <point x="1009" y="428" type="qcurve" smooth="yes"/>
      <point x="1009" y="551"/>
      <point x="818" y="694"/>
    </contour>
  </outline>
</glyph>
<glyph name="copyright" format="2">
  <advance width="1596"/>
  <unicode hex="00A9"/>
  <outline>
    <contour>
      <point x="1085" y="596" type="line"/>
      <point x="1088" y="590" type="line"/>
      <point x="1091" y="440"/>
      <point x="934" y="282"/>
      <point x="795" y="282" type="qcurve" smooth="yes"/>
      <point x="651" y="282"/>
      <point x="475" y="496"/>
      <point x="475" y="669" type="qcurve" smooth="yes"/>
      <point x="475" y="788" type="line" smooth="yes"/>
      <point x="475" y="960"/>
      <point x="652" y="1175"/>
      <point x="795" y="1175" type="qcurve" smooth="yes"/>
      <point x="934" y="1175"/>
      <point x="1092" y="1016"/>
      <point x="1089" y="868" type="qcurve"/>
      <point x="1086" y="862" type="line"/>
      <point x="1042" y="862" type="line"/>
      <point x="1042" y="991"/>
      <point x="914" y="1122"/>
      <point x="795" y="1122" type="qcurve" smooth="yes"/>
      <point x="672" y="1122"/>
      <point x="530" y="932"/>
      <point x="530" y="789" type="qcurve" smooth="yes"/>
      <point x="530" y="669" type="line" smooth="yes"/>
      <point x="530" y="524"/>
      <point x="671" y="337"/>
      <point x="795" y="337" type="qcurve" smooth="yes"/>
      <point x="915" y="337"/>
      <point x="1041" y="464"/>
      <point x="1041" y="596" type="qcurve"/>
    </contour>
    <contour>
      <point x="148" y="729" type="qcurve" smooth="yes"/>
      <point x="148" y="439"/>
      <point x="531" y="34"/>
      <point x="802" y="34" type="qcurve" smooth="yes"/>
      <point x="1071" y="34"/>
      <point x="1456" y="439"/>
      <point x="1456" y="729" type="qcurve" smooth="yes"/>
      <point x="1456" y="1018"/>
      <point x="1072" y="1421"/>
      <point x="802" y="1421" type="qcurve" smooth="yes"/>
      <point x="531" y="1421"/>
      <point x="148" y="1018"/>
    </contour>
    <contour>
      <point x="92" y="729" type="qcurve" smooth="yes"/>
      <point x="92" y="1044"/>
      <point x="506" y="1476"/>
      <point x="802" y="1476" type="qcurve" smooth="yes"/>
      <point x="1097" y="1476"/>
      <point x="1512" y="1044"/>
      <point x="1512" y="729" type="qcurve" smooth="yes"/>
      <point x="1512" y="413"/>
      <point x="1097" y="-21"/>
      <point x="802" y="-21" type="qcurve" smooth="yes"/>
      <point x="507" y="-21"/>
      <point x="92" y="413"/>
    </contour>
  </outline>
</glyph>
<glyph name="ordfeminine" format="2">
  <advance width="860"/>
  <unicode hex="00AA"/>
  <outline>
    <contour>
      <point x="638" y="706" type="line"/>
      <point x="628" y="734"/>
      <point x="617" y="795"/>
      <point x="616" y="826" type="qcurve"/>
      <point x="576" y="768"/>
      <point x="443" y="692"/>
      <point x="355" y="692" type="qcurve" smooth="yes"/>
      <point x="236" y="692"/>
      <point x="106" y="814"/>
      <point x="106" y="920" type="qcurve" smooth="yes"/>
      <point x="106" y="1021"/>
      <point x="254" y="1133"/>
      <point x="395" y="1133" type="qcurve" smooth="yes"/>
      <point x="615" y="1133" type="line"/>
      <point x="615" y="1202" type="line" smooth="yes"/>
      <point x="615" y="1307"/>
      <point x="513" y="1423"/>
      <point x="416" y="1423" type="qcurve" smooth="yes"/>
      <point x="302" y="1423"/>
      <point x="179" y="1329"/>
      <point x="179" y="1238" type="qcurve"/>
      <point x="133" y="1243" type="line"/>
      <point x="131" y="1249" type="line"/>
      <point x="126" y="1347"/>
      <point x="285" y="1477"/>
      <point x="416" y="1477" type="qcurve" smooth="yes"/>
      <point x="531" y="1477"/>
      <point x="670" y="1334"/>
      <point x="670" y="1201" type="qcurve" smooth="yes"/>
      <point x="670" y="887" type="line" smooth="yes"/>
      <point x="670" y="839"/>
      <point x="682" y="750"/>
      <point x="696" y="706" type="qcurve"/>
    </contour>
    <contour>
      <point x="356" y="747" type="qcurve" smooth="yes"/>
      <point x="443" y="747"/>
      <point x="595" y="842"/>
      <point x="615" y="900" type="qcurve"/>
      <point x="615" y="1077" type="line"/>
      <point x="396" y="1077" type="line" smooth="yes"/>
      <point x="283" y="1077"/>
      <point x="160" y="989"/>
      <point x="160" y="924" type="qcurve" smooth="yes"/>
      <point x="160" y="840"/>
      <point x="256" y="747"/>
    </contour>
  </outline>
</glyph>
<glyph name="logicalnot" format="1">
  <advance width="1104"/>
  <unicode hex="00AC"/>
  <outline>
    <contour>
      <point x="914" y="396" type="line"/>
      <point x="860" y="396" type="line"/>
      <point x="860" y="700" type="line"/>
      <point x="121" y="700" type="line"/>
      <point x="121" y="753" type="line"/>
      <point x="914" y="753" type="line"/>
    </contour>
  </outline>
</glyph>
<glyph name="registered" format="2">
  <advance width="1595"/>
  <unicode hex="00AE"/>
  <outline>
    <contour>
      <point x="92" y="729" type="qcurve" smooth="yes"/>
      <point x="92" y="1044"/>
      <point x="506" y="1476"/>
      <point x="802" y="1476" type="qcurve" smooth="yes"/>
      <point x="1097" y="1476"/>
      <point x="1512" y="1044"/>
      <point x="1512" y="729" type="qcurve" smooth="yes"/>
      <point x="1512" y="413"/>
      <point x="1097" y="-21"/>
      <point x="802" y="-21" type="qcurve" smooth="yes"/>
      <point x="506" y="-21"/>
      <point x="92" y="413"/>
    </contour>
    <contour>
      <point x="147" y="729" type="qcurve" smooth="yes"/>
      <point x="147" y="439"/>
      <point x="531" y="34"/>
      <point x="802" y="34" type="qcurve" smooth="yes"/>
      <point x="1071" y="34"/>
      <point x="1456" y="439"/>
      <point x="1456" y="729" type="qcurve" smooth="yes"/>
      <point x="1456" y="1018"/>
      <point x="1072" y="1421"/>
      <point x="802" y="1421" type="qcurve" smooth="yes"/>
      <point x="531" y="1421"/>
      <point x="147" y="1018"/>
    </contour>
    <contour>
      <point x="625" y="688" type="line"/>
      <point x="625" y="316" type="line"/>
      <point x="570" y="316" type="line"/>
      <point x="570" y="1166" type="line"/>
      <point x="809" y="1166" type="line" smooth="yes"/>
      <point x="952" y="1166"/>
      <point x="1098" y="1044"/>
      <point x="1098" y="926" type="qcurve" smooth="yes"/>
      <point x="1098" y="853"/>
      <point x="1018" y="749"/>
      <point x="945" y="720" type="qcurve"/>
      <point x="1015" y="698"/>
      <point x="1077" y="591"/>
      <point x="1077" y="515" type="qcurve" smooth="yes"/>
      <point x="1077" y="459" type="line" smooth="yes"/>
      <point x="1077" y="421"/>
      <point x="1085" y="354"/>
      <point x="1094" y="332" type="qcurve"/>
      <point x="1094" y="316" type="line"/>
      <point x="1035" y="316" type="line"/>
      <point x="1025" y="337"/>
      <point x="1021" y="418"/>
      <point x="1021" y="460" type="qcurve" smooth="yes"/>
      <point x="1021" y="514" type="line" smooth="yes"/>
      <point x="1021" y="608"/>
      <point x="937" y="688"/>
      <point x="837" y="688" type="qcurve" smooth="yes"/>
    </contour>
    <contour>
      <point x="625" y="744" type="line"/>
      <point x="830" y="744" type="line" smooth="yes"/>
      <point x="921" y="744"/>
      <point x="1043" y="840"/>
      <point x="1043" y="927" type="qcurve" smooth="yes"/>
      <point x="1043" y="1023"/>
      <point x="938" y="1111"/>
      <point x="809" y="1111" type="qcurve" smooth="yes"/>
      <point x="625" y="1111" type="line"/>
    </contour>
  </outline>
</glyph>
<glyph name="degree" format="2">
  <advance width="739"/>
  <unicode hex="00B0"/>
  <outline>
    <contour>
      <point x="124" y="1237" type="qcurve" smooth="yes"/>
      <point x="124" y="1335"/>
      <point x="262" y="1477"/>
      <point x="360" y="1477" type="qcurve" smooth="yes"/>
      <point x="455" y="1477"/>
      <point x="592" y="1335"/>
      <point x="592" y="1237" type="qcurve" smooth="yes"/>
      <point x="592" y="1137"/>
      <point x="455" y="1000"/>
      <point x="360" y="1000" type="qcurve" smooth="yes"/>
      <point x="262" y="1000"/>
      <point x="124" y="1137"/>
    </contour>
    <contour>
      <point x="179" y="1237" type="qcurve" smooth="yes"/>
      <point x="179" y="1158"/>
      <point x="282" y="1056"/>
      <point x="360" y="1056" type="qcurve" smooth="yes"/>
      <point x="436" y="1056"/>
      <point x="536" y="1158"/>
      <point x="536" y="1237" type="qcurve" smooth="yes"/>
      <point x="536" y="1317"/>
      <point x="436" y="1422"/>
      <point x="360" y="1422" type="qcurve" smooth="yes"/>
      <point x="282" y="1422"/>
      <point x="179" y="1316"/>
    </contour>
  </outline>
</glyph>
<glyph name="twosuperior" format="2">
  <advance width="807"/>
  <unicode hex="00B2"/>
  <outline>
    <contour>
      <point x="657" y="667" type="line"/>
      <point x="106" y="667" type="line"/>
      <point x="106" y="722" type="line"/>
      <point x="433" y="1022" type="line" smooth="yes"/>
      <point x="516" y="1102"/>
      <point x="579" y="1204"/>
      <point x="579" y="1255" type="qcurve" smooth="yes"/>
      <point x="579" y="1333"/>
      <point x="483" y="1424"/>
      <point x="387" y="1424" type="qcurve" smooth="yes"/>
      <point x="283" y="1424"/>
      <point x="171" y="1322"/>
      <point x="171" y="1242" type="qcurve"/>
      <point x="123" y="1242" type="line"/>
      <point x="120" y="1248" type="line"/>
      <point x="115" y="1343"/>
      <point x="263" y="1479"/>
      <point x="387" y="1479" type="qcurve" smooth="yes"/>
      <point x="502" y="1479"/>
      <point x="635" y="1364"/>
      <point x="635" y="1254" type="qcurve" smooth="yes"/>
      <point x="635" y="1184"/>
      <point x="536" y="1051"/>
      <point x="445" y="963" type="qcurve" smooth="yes"/>
      <point x="180" y="728" type="line"/>
      <point x="182" y="722" type="line"/>
      <point x="657" y="722" type="line"/>
    </contour>
  </outline>
</glyph>
<glyph name="threesuperior" format="2">
  <advance width="831"/>
  <unicode hex="00B3"/>
  <outline>
    <contour>
      <point x="376" y="1103" type="line" smooth="yes"/>
      <point x="483" y="1103"/>
      <point x="584" y="1184"/>
      <point x="584" y="1260" type="qcurve" smooth="yes"/>
      <point x="584" y="1333"/>
      <point x="479" y="1423"/>
      <point x="375" y="1423" type="qcurve" smooth="yes"/>
      <point x="283" y="1423"/>
      <point x="161" y="1332"/>
      <point x="161" y="1258" type="qcurve"/>
      <point x="115" y="1258" type="line"/>
      <point x="113" y="1264" type="line"/>
      <point x="107" y="1358"/>
      <point x="261" y="1478"/>
      <point x="375" y="1478" type="qcurve" smooth="yes"/>
      <point x="497" y="1478"/>
      <point x="639" y="1363"/>
      <point x="639" y="1257" type="qcurve" smooth="yes"/>
      <point x="639" y="1196"/>
      <point x="567" y="1100"/>
      <point x="502" y="1076" type="qcurve"/>
      <point x="576" y="1055"/>
      <point x="653" y="958"/>
      <point x="653" y="883" type="qcurve" smooth="yes"/>
      <point x="653" y="776"/>
      <point x="498" y="655"/>
      <point x="375" y="655" type="qcurve" smooth="yes"/>
      <point x="260" y="655"/>
      <point x="94" y="772"/>
      <point x="99" y="882" type="qcurve"/>
      <point x="101" y="888" type="line"/>
      <point x="149" y="888" type="line"/>
      <point x="149" y="810"/>
      <point x="274" y="710"/>
      <point x="375" y="710" type="qcurve" smooth="yes"/>
      <point x="481" y="710"/>
      <point x="597" y="801"/>
      <point x="597" y="881" type="qcurve" smooth="yes"/>
      <point x="597" y="967"/>
      <point x="486" y="1047"/>
      <point x="376" y="1047" type="qcurve" smooth="yes"/>
      <point x="262" y="1047" type="line"/>
      <point x="262" y="1103" type="line"/>
    </contour>
  </outline>
</glyph>
<glyph name="acute" format="2">
  <advance width="553"/>
  <unicode hex="00B4"/>
  <outline>
    <contour>
      <point x="320" y="1478" type="line"/>
      <point x="398" y="1478" type="line"/>
      <point x="400" y="1473" type="line"/>
      <point x="169" y="1212" type="line"/>
      <point x="102" y="1212" type="line"/>
      <point x="100" y="1217" type="line"/>
    </contour>
  </outline>
</glyph>
<glyph name="mu" format="2">
  <advance width="1282"/>
  <unicode hex="00B5"/>
  <outline>
    <contour>
      <point x="959" y="205" type="line"/>
      <point x="911" y="96"/>
      <point x="731" y="-21"/>
      <point x="596" y="-21" type="qcurve" smooth="yes"/>
      <point x="493" y="-21"/>
      <point x="328" y="69"/>
      <point x="281" y="171" type="qcurve"/>
      <point x="281" y="-416" type="line"/>
      <point x="229" y="-416" type="line"/>
      <point x="229" y="1028" type="line"/>
      <point x="66" y="1028" type="line"/>
      <point x="66" y="1082" type="line"/>
      <point x="229" y="1082" type="line"/>
      <point x="281" y="1082" type="line"/>
      <point x="281" y="440" type="line" smooth="yes"/>
      <point x="281" y="217"/>
      <point x="451" y="33"/>
      <point x="587" y="33" type="qcurve" smooth="yes"/>
      <point x="771" y="33"/>
      <point x="939" y="219"/>
      <point x="957" y="389" type="qcurve"/>
      <point x="957" y="1028" type="line"/>
      <point x="794" y="1028" type="line"/>
      <point x="794" y="1082" type="line"/>
      <point x="1011" y="1082" type="line"/>
      <point x="1011" y="505" type="line"/>
      <point x="1013" y="505" type="line"/>
      <point x="1013" y="489"/>
      <point x="1012" y="460"/>
      <point x="1011" y="438" type="qcurve"/>
      <point x="1011" y="54" type="line"/>
      <point x="1174" y="54" type="line"/>
      <point x="1174" y="0" type="line"/>
      <point x="970" y="0" type="line"/>
    </contour>
  </outline>
</glyph>
<glyph name="paragraph" format="2">
  <advance width="1044"/>
  <unicode hex="00B6"/>
  <outline>
    <contour>
      <point x="570" y="520" type="line" smooth="yes"/>
      <point x="336" y="520"/>
      <point x="78" y="779"/>
      <point x="78" y="988" type="qcurve" smooth="yes"/>
      <point x="78" y="1195"/>
      <point x="337" y="1456"/>
      <point x="570" y="1456" type="qcurve" smooth="yes"/>
      <point x="912" y="1456" type="line"/>
      <point x="912" y="1402" type="line"/>
      <point x="749" y="1402" type="line"/>
      <point x="749" y="54" type="line"/>
      <point x="912" y="54" type="line"/>
      <point x="912" y="0" type="line"/>
      <point x="532" y="0" type="line"/>
      <point x="532" y="54" type="line"/>
      <point x="695" y="54" type="line"/>
      <point x="695" y="520" type="line"/>
    </contour>
  </outline>
</glyph>
<glyph name="periodcentered" format="2">
  <advance width="480"/>
  <unicode hex="00B7"/>
  <outline>
    <contour>
      <point x="277" y="624" type="line"/>
      <point x="159" y="624" type="line"/>
      <point x="159" y="776" type="line"/>
      <point x="277" y="776" type="line"/>
    </contour>
  </outline>
</glyph>
<glyph name="cedilla" format="2">
  <advance width="470"/>
  <unicode hex="00B8"/>
  <outline>
    <contour>
      <point x="229" y="0" type="line"/>
      <point x="218" y="-76" type="line"/>
      <point x="309" y="-83"/>
      <point x="415" y="-160"/>
      <point x="415" y="-245" type="qcurve" smooth="yes"/>
      <point x="415" y="-332"/>
      <point x="257" y="-435"/>
      <point x="110" y="-435" type="qcurve"/>
      <point x="103" y="-386" type="line"/>
      <point x="207" y="-386"/>
      <point x="360" y="-314"/>
      <point x="360" y="-245" type="qcurve" smooth="yes"/>
      <point x="360" y="-181"/>
      <point x="269" y="-131"/>
      <point x="151" y="-121" type="qcurve"/>
      <point x="176" y="0" type="line"/>
    </contour>
  </outline>
</glyph>
<glyph name="ordmasculine" format="2">
  <advance width="904"/>
  <unicode hex="00BA"/>
  <outline>
    <contour>
      <point x="121" y="1142" type="line" smooth="yes"/>
      <point x="121" y="1290"/>
      <point x="285" y="1477"/>
      <point x="425" y="1477" type="qcurve" smooth="yes"/>
      <point x="565" y="1477"/>
      <point x="730" y="1290"/>
      <point x="730" y="1142" type="qcurve" smooth="yes"/>
      <point x="730" y="1025" type="line" smooth="yes"/>
      <point x="730" y="876"/>
      <point x="566" y="691"/>
      <point x="427" y="691" type="qcurve" smooth="yes"/>
      <point x="286" y="691"/>
      <point x="121" y="876"/>
      <point x="121" y="1025" type="qcurve" smooth="yes"/>
    </contour>
    <contour>
      <point x="175" y="1025" type="line" smooth="yes"/>
      <point x="175" y="900"/>
      <point x="301" y="745"/>
      <point x="427" y="745" type="qcurve" smooth="yes"/>
      <point x="547" y="745"/>
      <point x="677" y="902"/>
      <point x="677" y="1025" type="qcurve" smooth="yes"/>
      <point x="677" y="1142" type="line" smooth="yes"/>
      <point x="677" y="1264"/>
      <point x="547" y="1423"/>
      <point x="425" y="1423" type="qcurve" smooth="yes"/>
      <point x="304" y="1423"/>
      <point x="175" y="1264"/>
      <point x="175" y="1142" type="qcurve" smooth="yes"/>
    </contour>
  </outline>
</glyph>
<glyph name="questiondown" format="2">
  <advance width="839"/>
  <unicode hex="00BF"/>
  <outline>
    <contour>
      <point x="464" y="683" type="line"/>
      <point x="462" y="565"/>
      <point x="423" y="468"/>
      <point x="339" y="391" type="qcurve" smooth="yes"/>
      <point x="217" y="274"/>
      <point x="112" y="111"/>
      <point x="112" y="-29" type="qcurve" smooth="yes"/>
      <point x="112" y="-175"/>
      <point x="267" y="-341"/>
      <point x="411" y="-341" type="qcurve" smooth="yes"/>
      <point x="552" y="-341"/>
      <point x="708" y="-172"/>
      <point x="712" y="-33" type="qcurve"/>
      <point x="758" y="-33" type="line"/>
      <point x="761" y="-39" type="line"/>
      <point x="762" y="-209"/>
      <point x="565" y="-394"/>
      <point x="411" y="-394" type="qcurve" smooth="yes"/>
      <point x="246" y="-394"/>
      <point x="58" y="-192"/>
      <point x="58" y="-27" type="qcurve" smooth="yes"/>
      <point x="58" y="113"/>
      <point x="182" y="317"/>
      <point x="311" y="433" type="qcurve"/>
      <point x="379" y="485"/>
      <point x="410" y="582"/>
      <point x="410" y="683" type="qcurve"/>
    </contour>
    <contour>
      <point x="386" y="1083" type="line"/>
      <point x="468" y="1083" type="line"/>
      <point x="468" y="977" type="line"/>
      <point x="386" y="977" type="line"/>
    </contour>
  </outline>
</glyph>
<glyph name="AE" format="1">
  <advance width="2026"/>
  <unicode hex="00C6"/>
  <outline>
    <contour>
      <point x="51" y="54" type="line"/>
      <point x="170" y="54" type="line"/>
      <point x="1019" y="1456" type="line"/>
      <point x="1795" y="1456" type="line"/>
      <point x="1795" y="1163" type="line"/>
      <point x="1741" y="1163" type="line"/>
      <point x="1741" y="1402" type="line"/>
      <point x="1099" y="1402" type="line"/>
      <point x="1125" y="786" type="line"/>
      <point x="1713" y="786" type="line"/>
      <point x="1713" y="732" type="line"/>
      <point x="1127" y="732" type="line"/>
      <point x="1155" y="54" type="line"/>
      <point x="1802" y="54" type="line"/>
      <point x="1802" y="293" type="line"/>
      <point x="1856" y="293" type="line"/>
      <point x="1856" y="0" type="line"/>
      <point x="941" y="0" type="line"/>
      <point x="941" y="54" type="line"/>
      <point x="1101" y="54" type="line"/>
      <point x="1086" y="425" type="line"/>
      <point x="458" y="425" type="line"/>
      <point x="235" y="54" type="line"/>
      <point x="366" y="54" type="line"/>
      <point x="366" y="0" type="line"/>
      <point x="51" y="0" type="line"/>
    </contour>
    <contour>
      <point x="490" y="478" type="line"/>
      <point x="1084" y="478" type="line"/>
      <point x="1045" y="1402" type="line"/>
      <point x="1040" y="1403" type="line"/>
      <point x="983" y="1298" type="line"/>
    </contour>
  </outline>
</glyph>
<glyph name="Eth" format="2">
  <advance width="1416"/>
  <unicode hex="00D0"/>
  <outline>
    <contour>
      <point x="667" y="1456" type="line" smooth="yes"/>
      <point x="918" y="1456"/>
      <point x="1268" y="1096"/>
      <point x="1268" y="817" type="qcurve" smooth="yes"/>
      <point x="1268" y="639" type="line" smooth="yes"/>
      <point x="1268" y="359"/>
      <point x="918" y="0"/>
      <point x="667" y="0" type="qcurve" smooth="yes"/>
      <point x="101" y="0" type="line"/>
      <point x="101" y="54" type="line"/>
      <point x="264" y="54" type="line"/>
      <point x="264" y="713" type="line"/>
      <point x="136" y="713" type="line"/>
      <point x="136" y="767" type="line"/>
      <point x="264" y="767" type="line"/>
      <point x="264" y="1402" type="line"/>
      <point x="101" y="1402" type="line"/>
      <point x="101" y="1456" type="line"/>
    </contour>
    <contour>
      <point x="723" y="713" type="line"/>
      <point x="318" y="713" type="line"/>
      <point x="318" y="54" type="line"/>
      <point x="667" y="54" type="line" smooth="yes"/>
      <point x="894" y="54"/>
      <point x="1214" y="386"/>
      <point x="1214" y="639" type="qcurve" smooth="yes"/>
      <point x="1214" y="820" type="line" smooth="yes"/>
      <point x="1214" y="1070"/>
      <point x="894" y="1402"/>
      <point x="667" y="1402" type="qcurve" smooth="yes"/>
      <point x="318" y="1402" type="line"/>
      <point x="318" y="767" type="line"/>
      <point x="723" y="767" type="line"/>
    </contour>
  </outline>
</glyph>
<glyph name="Oslash" format="2">
  <advance width="1411"/>
  <unicode hex="00D8"/>
  <outline>
    <contour>
      <point x="1338" y="719" type="line" smooth="yes"/>
      <point x="1338" y="383"/>
      <point x="1001" y="-21"/>
      <point x="730" y="-21" type="qcurve" smooth="yes"/>
      <point x="625" y="-21"/>
      <point x="441" y="42"/>
      <point x="367" y="104" type="qcurve"/>
      <point x="254" y="-75" type="line"/>
      <point x="188" y="-75" type="line"/>
      <point x="325" y="142" type="line"/>
      <point x="226" y="240"/>
      <point x="120" y="534"/>
      <point x="120" y="719" type="qcurve" smooth="yes"/>
      <point x="120" y="737" type="line" smooth="yes"/>
      <point x="120" y="1072"/>
      <point x="456" y="1477"/>
      <point x="728" y="1477" type="qcurve" smooth="yes"/>
      <point x="832" y="1477"/>
      <point x="1018" y="1411"/>
      <point x="1093" y="1350" type="qcurve"/>
      <point x="1185" y="1495" type="line"/>
      <point x="1251" y="1495" type="line"/>
      <point x="1135" y="1312" type="line"/>
      <point x="1231" y="1213"/>
      <point x="1338" y="919"/>
      <point x="1338" y="737" type="qcurve" smooth="yes"/>
    </contour>
    <contour>
      <point x="175" y="719" type="line" smooth="yes"/>
      <point x="175" y="550"/>
      <point x="267" y="281"/>
      <point x="353" y="195" type="qcurve"/>
      <point x="359" y="194" type="line"/>
      <point x="1064" y="1305" type="line"/>
      <point x="996" y="1362"/>
      <point x="826" y="1423"/>
      <point x="728" y="1423" type="qcurve" smooth="yes"/>
      <point x="476" y="1423"/>
      <point x="175" y="1048"/>
      <point x="175" y="739" type="qcurve" smooth="yes"/>
    </contour>
    <contour>
      <point x="1284" y="739" type="line" smooth="yes"/>
      <point x="1284" y="905"/>
      <point x="1192" y="1173"/>
      <point x="1108" y="1259" type="qcurve"/>
      <point x="1102" y="1260" type="line"/>
      <point x="396" y="149" type="line"/>
      <point x="464" y="92"/>
      <point x="632" y="33"/>
      <point x="730" y="33" type="qcurve" smooth="yes"/>
      <point x="983" y="33"/>
      <point x="1284" y="408"/>
      <point x="1284" y="719" type="qcurve" smooth="yes"/>
    </contour>
  </outline>
</glyph>
<glyph name="Thorn" format="2">
  <advance width="1240"/>
  <unicode hex="00DE"/>
  <outline>
    <contour>
      <point x="70" y="54" type="line"/>
      <point x="233" y="54" type="line"/>
      <point x="233" y="1402" type="line"/>
      <point x="70" y="1402" type="line"/>
      <point x="70" y="1456" type="line"/>
      <point x="287" y="1456" type="line"/>
      <point x="450" y="1456" type="line"/>
      <point x="450" y="1402" type="line"/>
      <point x="287" y="1402" type="line"/>
      <point x="287" y="1143" type="line"/>
      <point x="658" y="1143" type="line" smooth="yes"/>
      <point x="870" y="1143"/>
      <point x="1108" y="917"/>
      <point x="1108" y="738" type="qcurve" smooth="yes"/>
      <point x="1108" y="558"/>
      <point x="870" y="334"/>
      <point x="658" y="334" type="qcurve" smooth="yes"/>
      <point x="287" y="334" type="line"/>
      <point x="287" y="54" type="line"/>
      <point x="450" y="54" type="line"/>
      <point x="450" y="0" type="line"/>
      <point x="70" y="0" type="line"/>
    </contour>
    <contour>
      <point x="287" y="1089" type="line"/>
      <point x="287" y="388" type="line"/>
      <point x="658" y="388" type="line" smooth="yes"/>
      <point x="853" y="388"/>
      <point x="1054" y="596"/>
      <point x="1054" y="736" type="qcurve" smooth="yes"/>
      <point x="1054" y="880"/>
      <point x="854" y="1089"/>
      <point x="658" y="1089" type="qcurve" smooth="yes"/>
    </contour>
  </outline>
</glyph>
<glyph name="germandbls" format="2">
  <advance width="1243"/>
  <unicode hex="00DF"/>
  <outline>
    <contour>
      <point x="272" y="0" type="line"/>
      <point x="55" y="0" type="line"/>
      <point x="55" y="54" type="line"/>
      <point x="218" y="54" type="line"/>
      <point x="218" y="1082" type="line" smooth="yes"/>
      <point x="218" y="1270"/>
      <point x="396" y="1474"/>
      <point x="557" y="1474" type="qcurve" smooth="yes"/>
      <point x="680" y="1474"/>
      <point x="849" y="1328"/>
      <point x="849" y="1206" type="qcurve" smooth="yes"/>
      <point x="849" y="1105"/>
      <point x="730" y="898"/>
      <point x="730" y="800" type="qcurve" smooth="yes"/>
      <point x="730" y="710"/>
      <point x="1116" y="427"/>
      <point x="1116" y="277" type="qcurve" smooth="yes"/>
      <point x="1116" y="136"/>
      <point x="888" y="-21"/>
      <point x="749" y="-21" type="qcurve" smooth="yes"/>
      <point x="662" y="-21"/>
      <point x="477" y="31"/>
      <point x="437" y="68" type="qcurve"/>
      <point x="462" y="117" type="line"/>
      <point x="504" y="83"/>
      <point x="665" y="32"/>
      <point x="741" y="32" type="qcurve" smooth="yes"/>
      <point x="881" y="32"/>
      <point x="1062" y="175"/>
      <point x="1062" y="286" type="qcurve" smooth="yes"/>
      <point x="1062" y="399"/>
      <point x="676" y="677"/>
      <point x="676" y="802" type="qcurve" smooth="yes"/>
      <point x="676" y="907"/>
      <point x="789" y="1121"/>
      <point x="789" y="1208" type="qcurve" smooth="yes"/>
      <point x="789" y="1298"/>
      <point x="654" y="1420"/>
      <point x="567" y="1420" type="qcurve" smooth="yes"/>
      <point x="433" y="1420"/>
      <point x="272" y="1245"/>
      <point x="272" y="1082" type="qcurve" smooth="yes"/>
    </contour>
  </outline>
</glyph>
<glyph name="ae" format="2">
  <advance width="1779"/>
  <unicode hex="00E6"/>
  <outline>
    <contour>
      <point x="1272" y="-21" type="qcurve" smooth="yes"/>
      <point x="1129" y="-21"/>
      <point x="925" y="111"/>
      <point x="872" y="230" type="qcurve"/>
      <point x="872" y="218" type="line"/>
      <point x="873" y="218" type="line"/>
      <point x="829" y="123"/>
      <point x="611" y="-21"/>
      <point x="452" y="-21" type="qcurve" smooth="yes"/>
      <point x="283" y="-21"/>
      <point x="97" y="143"/>
      <point x="97" y="284" type="qcurve" smooth="yes"/>
      <point x="97" y="441"/>
      <point x="320" y="630"/>
      <point x="527" y="630" type="qcurve" smooth="yes"/>
      <point x="817" y="630" type="line"/>
      <point x="817" y="720" type="line" smooth="yes"/>
      <point x="817" y="878"/>
      <point x="671" y="1048"/>
      <point x="525" y="1048" type="qcurve" smooth="yes"/>
      <point x="363" y="1048"/>
      <point x="178" y="892"/>
      <point x="178" y="771" type="qcurve"/>
      <point x="133" y="777" type="line"/>
      <point x="131" y="783" type="line"/>
      <point x="126" y="921"/>
      <point x="343" y="1102"/>
      <point x="525" y="1102" type="qcurve" smooth="yes"/>
      <point x="663" y="1102"/>
      <point x="841" y="955"/>
      <point x="864" y="814" type="qcurve"/>
      <point x="917" y="947"/>
      <point x="1125" y="1102"/>
      <point x="1257" y="1102" type="qcurve" smooth="yes"/>
      <point x="1445" y="1102"/>
      <point x="1661" y="865"/>
      <point x="1661" y="660" type="qcurve" smooth="yes"/>
      <point x="1661" y="577" type="line"/>
      <point x="874" y="577" type="line"/>
      <point x="874" y="564" type="line"/>
      <point x="874" y="500" type="line" smooth="yes"/>
      <point x="874" y="292"/>
      <point x="1072" y="33"/>
      <point x="1272" y="33" type="qcurve" smooth="yes"/>
      <point x="1374" y="33"/>
      <point x="1543" y="102"/>
      <point x="1604" y="164" type="qcurve"/>
      <point x="1634" y="122" type="line"/>
      <point x="1569" y="56"/>
      <point x="1402" y="-21"/>
    </contour>
    <contour>
      <point x="451" y="31" type="qcurve" smooth="yes"/>
      <point x="581" y="31"/>
      <point x="795" y="162"/>
      <point x="817" y="225" type="qcurve"/>
      <point x="817" y="575" type="line"/>
      <point x="529" y="575" type="line" smooth="yes"/>
      <point x="344" y="575"/>
      <point x="152" y="407"/>
      <point x="152" y="280" type="qcurve" smooth="yes"/>
      <point x="152" y="163"/>
      <point x="307" y="31"/>
    </contour>
    <contour>
      <point x="1257" y="1048" type="qcurve" smooth="yes"/>
      <point x="1098" y="1048"/>
      <point x="895" y="815"/>
      <point x="882" y="637" type="qcurve"/>
      <point x="884" y="632" type="line"/>
      <point x="1607" y="632" type="line"/>
      <point x="1607" y="664" type="line" smooth="yes"/>
      <point x="1607" y="832"/>
      <point x="1424" y="1048"/>
    </contour>
  </outline>
</glyph>
<glyph name="eth" format="1">
  <advance width="1170"/>
  <unicode hex="00F0"/>
  <outline>
    <contour>
      <point x="760" y="1311" type="line"/>
      <point x="920.0" y="1148.3333333333335"/>
      <point x="996.0" y="930.9999999999999"/>
      <point x="996" y="615" type="curve" smooth="yes"/>
      <point x="996" y="535" type="line" smooth="yes"/>
      <point x="996.0" y="208.33333333333337"/>
      <point x="799.3333333333333" y="-21.0"/>
      <point x="534" y="-21" type="curve" smooth="yes"/>
      <point x="268.6666666666667" y="-21.0"/>
      <point x="78.0" y="182.00000000000006"/>
      <point x="78" y="446" type="curve" smooth="yes"/>
      <point x="78.0" y="767.3333333333333"/>
      <point x="251.33333333333337" y="953.0"/>
      <point x="546" y="953" type="curve" smooth="yes"/>
      <point x="712.6666666666667" y="953.0"/>
      <point x="856.6666666666667" y="887.0"/>
      <point x="926" y="779" type="curve"/>
      <point x="931" y="783" type="line"/>
      <point x="909.6666666666667" y="1000.3333333333333"/>
      <point x="831.3333333333333" y="1162.0"/>
      <point x="710" y="1282" type="curve"/>
      <point x="372" y="1089" type="line"/>
      <point x="344" y="1137" type="line"/>
      <point x="667" y="1322" type="line"/>
      <point x="600.3333333333333" y="1376.6666666666665"/>
      <point x="523.6666666666666" y="1423.0"/>
      <point x="433" y="1467" type="curve"/>
      <point x="453" y="1517" type="line"/>
      <point x="555.6666666666666" y="1467.6666666666665"/>
      <point x="643.6666666666667" y="1413.6666666666665"/>
      <point x="717" y="1351" type="curve"/>
      <point x="997" y="1511" type="line"/>
      <point x="1026" y="1463" type="line"/>
    </contour>
    <contour>
      <point x="942" y="617" type="line" smooth="yes"/>
      <point x="942.0" y="630.3333333333333"/>
      <point x="941.0" y="662.6666666666667"/>
      <point x="941" y="676" type="curve"/>
      <point x="887.6666666666667" y="798.6666666666667"/>
      <point x="756.6666666666667" y="895.0"/>
      <point x="546" y="895" type="curve" smooth="yes"/>
      <point x="268.66666666666674" y="895.0"/>
      <point x="133.0" y="712.6666666666665"/>
      <point x="133" y="446" type="curve" smooth="yes"/>
      <point x="133.0" y="227.33333333333337"/>
      <point x="290.0" y="37.0"/>
      <point x="538" y="37" type="curve" smooth="yes"/>
      <point x="776.6666666666667" y="37.0"/>
      <point x="942.0" y="243.0"/>
      <point x="942" y="535" type="curve" smooth="yes"/>
    </contour>
  </outline>
</glyph>
<glyph name="oslash" format="1">
  <advance width="1155"/>
  <unicode hex="00F8"/>
  <outline>
    <contour>
      <point x="104" y="562" type="line" smooth="yes"/>
      <point x="104.0" y="879.3333333333333"/>
      <point x="297.00000000000006" y="1102.0"/>
      <point x="577" y="1102" type="curve" smooth="yes"/>
      <point x="669.0" y="1102.0"/>
      <point x="751.3333333333333" y="1078.0"/>
      <point x="822" y="1034" type="curve"/>
      <point x="920" y="1219" type="line"/>
      <point x="983" y="1219" type="line"/>
      <point x="867" y="1001" type="line"/>
      <point x="983.0" y="903.6666666666667"/>
      <point x="1051.0" y="748.6666666666669"/>
      <point x="1051" y="562" type="curve" smooth="yes"/>
      <point x="1051" y="520" type="line" smooth="yes"/>
      <point x="1051.0" y="201.33333333333337"/>
      <point x="857.6666666666665" y="-21.0"/>
      <point x="579" y="-21" type="curve" smooth="yes"/>
      <point x="496.33333333333326" y="-21.0"/>
      <point x="420.33333333333337" y="-2.0"/>
      <point x="355" y="34" type="curve"/>
      <point x="260" y="-145" type="line"/>
      <point x="197" y="-145" type="line"/>
      <point x="308" y="64" type="line"/>
      <point x="178.66666666666669" y="157.33333333333331"/>
      <point x="104.0" y="321.33333333333337"/>
      <point x="104" y="520" type="curve" smooth="yes"/>
    </contour>
    <contour>
      <point x="158" y="520" type="line" smooth="yes"/>
      <point x="158.0" y="352.0"/>
      <point x="220.33333333333337" y="201.33333333333331"/>
      <point x="331" y="120" type="curve"/>
      <point x="337" y="120" type="line"/>
      <point x="795" y="984" type="line"/>
      <point x="732.3333333333333" y="1024.0"/>
      <point x="658.3333333333333" y="1048.0"/>
      <point x="577" y="1048" type="curve" smooth="yes"/>
      <point x="322.33333333333337" y="1048.0"/>
      <point x="158.0" y="827.3333333333333"/>
      <point x="158" y="562" type="curve" smooth="yes"/>
    </contour>
    <contour>
      <point x="997" y="562" type="line" smooth="yes"/>
      <point x="997.0" y="714.0"/>
      <point x="939.0" y="858.0"/>
      <point x="843" y="942" type="curve"/>
      <point x="837" y="943" type="line"/>
      <point x="381" y="83" type="line"/>
      <point x="437.0" y="49.666666666666686"/>
      <point x="504.33333333333326" y="33.0"/>
      <point x="579" y="33" type="curve" smooth="yes"/>
      <point x="832.3333333333333" y="33.0"/>
      <point x="997.0" y="249.33333333333331"/>
      <point x="997" y="520" type="curve" smooth="yes"/>
    </contour>
  </outline>
</glyph>
<glyph name="Dcroat" format="1">
  <advance width="1416"/>
  <unicode hex="0110"/>
  <outline>
    <contour>
      <point x="667" y="1456" type="line" smooth="yes"/>
      <point x="1001.6666666666665" y="1456.0"/>
      <point x="1268.0" y="1189.0"/>
      <point x="1268" y="817" type="curve" smooth="yes"/>
      <point x="1268" y="639" type="line" smooth="yes"/>
      <point x="1268.0" y="265.6666666666668"/>
      <point x="1001.6666666666665" y="0.0"/>
      <point x="667" y="0" type="curve" smooth="yes"/>
      <point x="101" y="0" type="line"/>
      <point x="101" y="54" type="line"/>
      <point x="264" y="54" type="line"/>
      <point x="264" y="713" type="line"/>
      <point x="136" y="713" type="line"/>
      <point x="136" y="767" type="line"/>
      <point x="264" y="767" type="line"/>
      <point x="264" y="1402" type="line"/>
      <point x="101" y="1402" type="line"/>
      <point x="101" y="1456" type="line"/>
    </contour>
    <contour>
      <point x="723" y="713" type="line"/>
      <point x="318" y="713" type="line"/>
      <point x="318" y="54" type="line"/>
      <point x="667" y="54" type="line" smooth="yes"/>
      <point x="969.6666666666665" y="54.0"/>
      <point x="1214.0" y="301.6666666666668"/>
      <point x="1214" y="639" type="curve" smooth="yes"/>
      <point x="1214" y="820" type="line" smooth="yes"/>
      <point x="1214.0" y="1153.3333333333333"/>
      <point x="969.6666666666665" y="1402.0"/>
      <point x="667" y="1402" type="curve" smooth="yes"/>
      <point x="318" y="1402" type="line"/>
      <point x="318" y="767" type="line"/>
      <point x="723" y="767" type="line"/>
    </contour>
  </outline>
</glyph>
<glyph name="dcroat" format="2">
  <advance width="1235"/>
  <unicode hex="0111"/>
  <outline>
    <contour>
      <point x="879" y="173" type="line"/>
      <point x="826" y="84"/>
      <point x="638" y="-21"/>
      <point x="510" y="-21" type="qcurve" smooth="yes"/>
      <point x="319" y="-21"/>
      <point x="104" y="271"/>
      <point x="104" y="521" type="qcurve" smooth="yes"/>
      <point x="104" y="542" type="line" smooth="yes"/>
      <point x="104" y="799"/>
      <point x="320" y="1102"/>
      <point x="512" y="1102" type="qcurve" smooth="yes"/>
      <point x="640" y="1102"/>
      <point x="824" y="985"/>
      <point x="879" y="883" type="qcurve"/>
      <point x="879" y="1251" type="line"/>
      <point x="570" y="1251" type="line"/>
      <point x="570" y="1305" type="line"/>
      <point x="879" y="1305" type="line"/>
      <point x="879" y="1506" type="line"/>
      <point x="716" y="1506" type="line"/>
      <point x="716" y="1560" type="line"/>
      <point x="933" y="1560" type="line"/>
      <point x="933" y="1305" type="line"/>
      <point x="1157" y="1305" type="line"/>
      <point x="1157" y="1251" type="line"/>
      <point x="933" y="1251" type="line"/>
      <point x="933" y="54" type="line"/>
      <point x="1096" y="54" type="line"/>
      <point x="1096" y="0" type="line"/>
      <point x="881" y="0" type="line"/>
    </contour>
    <contour>
      <point x="160" y="521" type="line" smooth="yes"/>
      <point x="160" y="297"/>
      <point x="337" y="33"/>
      <point x="509" y="33" type="qcurve" smooth="yes"/>
      <point x="650" y="33"/>
      <point x="837" y="161"/>
      <point x="879" y="268" type="qcurve"/>
      <point x="879" y="775" type="line"/>
      <point x="840" y="891"/>
      <point x="666" y="1048"/>
      <point x="511" y="1048" type="qcurve" smooth="yes"/>
      <point x="339" y="1048"/>
      <point x="160" y="767"/>
      <point x="160" y="542" type="qcurve" smooth="yes"/>
    </contour>
  </outline>
</glyph>
<glyph name="hbar" format="1">
  <advance width="1308"/>
  <unicode hex="0127"/>
  <outline>
    <contour>
      <point x="92" y="54" type="line"/>
      <point x="255" y="54" type="line"/>
      <point x="255" y="1259" type="line"/>
      <point x="107" y="1259" type="line"/>
      <point x="107" y="1313" type="line"/>
      <point x="255" y="1313" type="line"/>
      <point x="255" y="1506" type="line"/>
      <point x="92" y="1506" type="line"/>
      <point x="92" y="1560" type="line"/>
      <point x="309" y="1560" type="line"/>
      <point x="309" y="1313" type="line"/>
      <point x="694" y="1313" type="line"/>
      <point x="694" y="1259" type="line"/>
      <point x="309" y="1259" type="line"/>
      <point x="309" y="854" type="line"/>
      <point x="375.66666666666663" y="1011.3333333333333"/>
      <point x="506.33333333333314" y="1102.0"/>
      <point x="693" y="1102" type="curve" smooth="yes"/>
      <point x="918.3333333333334" y="1102.0"/>
      <point x="1037.0" y="964.6666666666664"/>
      <point x="1037" y="658" type="curve" smooth="yes"/>
      <point x="1037" y="54" type="line"/>
      <point x="1200" y="54" type="line"/>
      <point x="1200" y="0" type="line"/>
      <point x="819" y="0" type="line"/>
      <point x="819" y="54" type="line"/>
      <point x="982" y="54" type="line"/>
      <point x="982" y="660" type="line" smooth="yes"/>
      <point x="982.0" y="944.0"/>
      <point x="868.6666666666667" y="1048.0"/>
      <point x="694" y="1048" type="curve" smooth="yes"/>
      <point x="460.66666666666674" y="1048.0"/>
      <point x="341.0" y="893.3333333333333"/>
      <point x="309" y="676" type="curve"/>
      <point x="309" y="54" type="line"/>
      <point x="472" y="54" type="line"/>
      <point x="472" y="0" type="line"/>
      <point x="92" y="0" type="line"/>
    </contour>
  </outline>
</glyph>
<glyph name="Eng" format="2">
  <advance width="1537"/>
  <unicode hex="014A"/>
  <outline>
    <contour>
      <point x="70" y="54" type="line"/>
      <point x="233" y="54" type="line"/>
      <point x="233" y="1402" type="line"/>
      <point x="70" y="1402" type="line"/>
      <point x="70" y="1456" type="line"/>
      <point x="287" y="1456" type="line"/>
      <point x="1223" y="101" type="line"/>
      <point x="1229" y="103" type="line"/>
      <point x="1229" y="1402" type="line"/>
      <point x="1066" y="1402" type="line"/>
      <point x="1066" y="1456" type="line"/>
      <point x="1446" y="1456" type="line"/>
      <point x="1446" y="1402" type="line"/>
      <point x="1283" y="1402" type="line"/>
      <point x="1283" y="-89" type="line" smooth="yes"/>
      <point x="1283" y="-256"/>
      <point x="1132" y="-437"/>
      <point x="998" y="-437" type="qcurve" smooth="yes"/>
      <point x="968" y="-437"/>
      <point x="916" y="-427"/>
      <point x="886" y="-417" type="qcurve"/>
      <point x="899" y="-365" type="line"/>
      <point x="917" y="-372"/>
      <point x="971" y="-383"/>
      <point x="998" y="-383" type="qcurve" smooth="yes"/>
      <point x="1108" y="-383"/>
      <point x="1229" y="-229"/>
      <point x="1229" y="-89" type="qcurve" smooth="yes"/>
      <point x="1229" y="0" type="line"/>
      <point x="293" y="1356" type="line"/>
      <point x="287" y="1354" type="line"/>
      <point x="287" y="54" type="line"/>
      <point x="450" y="54" type="line"/>
      <point x="450" y="0" type="line"/>
      <point x="70" y="0" type="line"/>
    </contour>
  </outline>
</glyph>
<glyph name="eng" format="2">
  <advance width="1225"/>
  <unicode hex="014B"/>
  <outline>
    <contour>
      <point x="90" y="1028" type="line"/>
      <point x="90" y="1082" type="line"/>
      <point x="301" y="1082" type="line"/>
      <point x="307" y="858" type="line"/>
      <point x="356" y="974"/>
      <point x="544" y="1102"/>
      <point x="683" y="1102" type="qcurve" smooth="yes"/>
      <point x="860" y="1102"/>
      <point x="1037" y="879"/>
      <point x="1037" y="637" type="qcurve" smooth="yes"/>
      <point x="1037" y="-89" type="line" smooth="yes"/>
      <point x="1037" y="-256"/>
      <point x="886" y="-437"/>
      <point x="752" y="-437" type="qcurve" smooth="yes"/>
      <point x="716" y="-437"/>
      <point x="654" y="-427"/>
      <point x="619" y="-417" type="qcurve"/>
      <point x="632" y="-365" type="line"/>
      <point x="653" y="-372"/>
      <point x="721" y="-384"/>
      <point x="752" y="-384" type="qcurve" smooth="yes"/>
      <point x="862" y="-384"/>
      <point x="983" y="-229"/>
      <point x="983" y="-89" type="qcurve" smooth="yes"/>
      <point x="983" y="639" type="line" smooth="yes"/>
      <point x="983" y="864"/>
      <point x="823" y="1048"/>
      <point x="684" y="1048" type="qcurve" smooth="yes"/>
      <point x="510" y="1048"/>
      <point x="330" y="842"/>
      <point x="307" y="680" type="qcurve"/>
      <point x="307" y="54" type="line"/>
      <point x="470" y="54" type="line"/>
      <point x="470" y="0" type="line"/>
      <point x="90" y="0" type="line"/>
      <point x="90" y="54" type="line"/>
      <point x="253" y="54" type="line"/>
      <point x="253" y="1028" type="line"/>
    </contour>
  </outline>
</glyph>
<glyph name="OE" format="1">
  <advance width="1973"/>
  <unicode hex="0152"/>
  <outline>
    <contour>
      <point x="963" y="0" type="line"/>
      <point x="825.6666666666667" y="-13.333333333333332"/>
      <point x="735.6666666666667" y="-21.0"/>
      <point x="633" y="-21" type="curve" smooth="yes"/>
      <point x="325.0" y="-21.0"/>
      <point x="114.0" y="222.66666666666674"/>
      <point x="114" y="576" type="curve" smooth="yes"/>
      <point x="114" y="880" type="line" smooth="yes"/>
      <point x="114.0" y="1233.3333333333335"/>
      <point x="323.0" y="1477.0"/>
      <point x="631" y="1477" type="curve" smooth="yes"/>
      <point x="737.6666666666667" y="1477.0"/>
      <point x="844.3333333333333" y="1468.0"/>
      <point x="963" y="1456" type="curve"/>
      <point x="1835" y="1456" type="line"/>
      <point x="1835" y="1163" type="line"/>
      <point x="1781" y="1163" type="line"/>
      <point x="1781" y="1402" type="line"/>
      <point x="1003" y="1402" type="line"/>
      <point x="1003" y="786" type="line"/>
      <point x="1633" y="786" type="line"/>
      <point x="1633" y="732" type="line"/>
      <point x="1003" y="732" type="line"/>
      <point x="1003" y="54" type="line"/>
      <point x="1781" y="54" type="line"/>
      <point x="1781" y="293" type="line"/>
      <point x="1835" y="293" type="line"/>
      <point x="1835" y="0" type="line"/>
    </contour>
    <contour>
      <point x="633" y="33" type="curve" smooth="yes"/>
      <point x="682.3333333333333" y="33.0"/>
      <point x="735.3333333333333" y="33.33333333333333"/>
      <point x="786" y="36" type="curve"/>
      <point x="786" y="54" type="line"/>
      <point x="949" y="54" type="line"/>
      <point x="949" y="1402" type="line"/>
      <point x="786" y="1402" type="line"/>
      <point x="786" y="1420" type="line"/>
      <point x="735.3333333333333" y="1421.3333333333335"/>
      <point x="683.0" y="1423.0"/>
      <point x="631" y="1423" type="curve" smooth="yes"/>
      <point x="349.66666666666674" y="1423.0"/>
      <point x="168.0" y="1206.0"/>
      <point x="168" y="882" type="curve" smooth="yes"/>
      <point x="168" y="576" type="line" smooth="yes"/>
      <point x="168.0" y="256.0"/>
      <point x="353.0" y="33.0"/>
    </contour>
  </outline>
</glyph>
<glyph name="oe" format="1">
  <advance width="1932"/>
  <unicode hex="0153"/>
  <outline>
    <contour>
      <point x="104" y="562" type="line" smooth="yes"/>
      <point x="104.0" y="879.3333333333333"/>
      <point x="297.00000000000006" y="1102.0"/>
      <point x="577" y="1102" type="curve" smooth="yes"/>
      <point x="797.0" y="1102.0"/>
      <point x="965.6666666666667" y="964.3333333333333"/>
      <point x="1027" y="747" type="curve"/>
      <point x="1087.0" y="961.6666666666669"/>
      <point x="1254.3333333333335" y="1102.0"/>
      <point x="1453" y="1102" type="curve" smooth="yes"/>
      <point x="1697.0" y="1102.0"/>
      <point x="1867.0" y="929.3333333333333"/>
      <point x="1867" y="660" type="curve" smooth="yes"/>
      <point x="1867" y="577" type="line"/>
      <point x="1056" y="577" type="line"/>
      <point x="1056" y="564" type="line"/>
      <point x="1056" y="500" type="line" smooth="yes"/>
      <point x="1056.0" y="238.66666666666674"/>
      <point x="1229.3333333333335" y="33.0"/>
      <point x="1456" y="33" type="curve" smooth="yes"/>
      <point x="1617.3333333333335" y="33.0"/>
      <point x="1720.6666666666665" y="77.0"/>
      <point x="1798" y="165" type="curve"/>
      <point x="1827" y="123" type="line"/>
      <point x="1741.6666666666665" y="28.333333333333343"/>
      <point x="1621.3333333333335" y="-21.0"/>
      <point x="1456" y="-21" type="curve" smooth="yes"/>
      <point x="1261.3333333333335" y="-21.0"/>
      <point x="1087.3333333333335" y="120.33333333333337"/>
      <point x="1026" y="331" type="curve"/>
      <point x="963.3333333333333" y="113.66666666666669"/>
      <point x="796.3333333333333" y="-21.0"/>
      <point x="579" y="-21" type="curve" smooth="yes"/>
      <point x="297.66666666666674" y="-21.0"/>
      <point x="104.0" y="201.33333333333337"/>
      <point x="104" y="520" type="curve" smooth="yes"/>
    </contour>
    <contour>
      <point x="158" y="520" type="line" smooth="yes"/>
      <point x="158.0" y="248.0"/>
      <point x="321.66666666666674" y="33.0"/>
      <point x="579" y="33" type="curve" smooth="yes"/>
      <point x="832.3333333333333" y="33.0"/>
      <point x="997.0" y="249.33333333333331"/>
      <point x="997" y="520" type="curve" smooth="yes"/>
      <point x="997" y="562" type="line" smooth="yes"/>
      <point x="997.0" y="827.3333333333333"/>
      <point x="830.3333333333333" y="1048.0"/>
      <point x="577" y="1048" type="curve" smooth="yes"/>
      <point x="322.33333333333337" y="1048.0"/>
      <point x="158.0" y="827.3333333333333"/>
      <point x="158" y="562" type="curve" smooth="yes"/>
    </contour>
    <contour>
      <point x="1453" y="1048" type="curve" smooth="yes"/>
      <point x="1238.3333333333335" y="1048.0"/>
      <point x="1082.6666666666665" y="871.6666666666667"/>
      <point x="1064" y="637" type="curve"/>
      <point x="1067" y="631" type="line"/>
      <point x="1813" y="631" type="line"/>
      <point x="1813" y="664" type="line" smooth="yes"/>
      <point x="1813.0" y="884.0"/>
      <point x="1666.3333333333335" y="1048.0"/>
    </contour>
  </outline>
</glyph>
<glyph name="tbar" format="2">
  <advance width="719"/>
  <unicode hex="0167"/>
  <outline>
    <contour>
      <point x="320" y="1374" type="line"/>
      <point x="320" y="1082" type="line"/>
      <point x="586" y="1082" type="line"/>
      <point x="586" y="1027" type="line"/>
      <point x="320" y="1027" type="line"/>
      <point x="320" y="688" type="line"/>
      <point x="674" y="688" type="line"/>
      <point x="674" y="634" type="line"/>
      <point x="320" y="634" type="line"/>
      <point x="320" y="279" type="line" smooth="yes"/>
      <point x="320" y="146"/>
      <point x="410" y="33"/>
      <point x="484" y="33" type="qcurve" smooth="yes"/>
      <point x="516" y="33"/>
      <point x="566" y="37"/>
      <point x="610" y="42" type="qcurve"/>
      <point x="620" y="-7" type="line"/>
      <point x="590" y="-15"/>
      <point x="527" y="-21"/>
      <point x="487" y="-21" type="qcurve" smooth="yes"/>
      <point x="378" y="-21"/>
      <point x="265" y="121"/>
      <point x="265" y="279" type="qcurve" smooth="yes"/>
      <point x="265" y="634" type="line"/>
      <point x="87" y="634" type="line"/>
      <point x="87" y="688" type="line"/>
      <point x="265" y="688" type="line"/>
      <point x="265" y="1027" type="line"/>
      <point x="65" y="1027" type="line"/>
      <point x="65" y="1082" type="line"/>
      <point x="265" y="1082" type="line"/>
      <point x="265" y="1374" type="line"/>
    </contour>
  </outline>
</glyph>
<glyph name="longs" format="2">
  <advance width="699"/>
  <unicode hex="017F"/>
  <outline>
    <contour>
      <point x="220" y="1260" type="line"/>
      <point x="220" y="1414"/>
      <point x="368" y="1581"/>
      <point x="502" y="1581" type="qcurve" smooth="yes"/>
      <point x="536" y="1581"/>
      <point x="601" y="1573"/>
      <point x="630" y="1564" type="qcurve"/>
      <point x="622" y="1512" type="line"/>
      <point x="592" y="1520"/>
      <point x="541" y="1527"/>
      <point x="503" y="1527" type="qcurve" smooth="yes"/>
      <point x="395" y="1527"/>
      <point x="274" y="1386"/>
      <point x="274" y="1260" type="qcurve" smooth="yes"/>
      <point x="274" y="54" type="line"/>
      <point x="437" y="54" type="line"/>
      <point x="437" y="0" type="line"/>
      <point x="57" y="0" type="line"/>
      <point x="57" y="54" type="line"/>
      <point x="220" y="54" type="line"/>
      <point x="220" y="1260" type="line"/>
    </contour>
  </outline>
</glyph>
<glyph name="florin" format="2">
  <advance width="780"/>
  <unicode hex="0192"/>
  <outline>
    <contour>
      <point x="680" y="1027" type="line"/>
      <point x="394" y="1027" type="line"/>
      <point x="394" y="-89" type="line" smooth="yes"/>
      <point x="394" y="-256"/>
      <point x="244" y="-437"/>
      <point x="109" y="-437" type="qcurve" smooth="yes"/>
      <point x="79" y="-437"/>
      <point x="27" y="-427"/>
      <point x="-3" y="-417" type="qcurve"/>
      <point x="10" y="-365" type="line"/>
      <point x="28" y="-371"/>
      <point x="83" y="-383"/>
      <point x="109" y="-383" type="qcurve" smooth="yes"/>
      <point x="219" y="-383"/>
      <point x="340" y="-230"/>
      <point x="340" y="-89" type="qcurve" smooth="yes"/>
      <point x="340" y="1027" type="line"/>
      <point x="152" y="1027" type="line"/>
      <point x="152" y="1082" type="line"/>
      <point x="340" y="1082" type="line"/>
      <point x="340" y="1260" type="line" smooth="yes"/>
      <point x="340" y="1413"/>
      <point x="489" y="1581"/>
      <point x="623" y="1581" type="qcurve" smooth="yes"/>
      <point x="656" y="1581"/>
      <point x="721" y="1573"/>
      <point x="751" y="1564" type="qcurve"/>
      <point x="743" y="1512" type="line"/>
      <point x="711" y="1520"/>
      <point x="662" y="1527"/>
      <point x="624" y="1527" type="qcurve" smooth="yes"/>
      <point x="516" y="1527"/>
      <point x="394" y="1385"/>
      <point x="394" y="1260" type="qcurve" smooth="yes"/>
      <point x="394" y="1082" type="line"/>
      <point x="680" y="1082" type="line"/>
    </contour>
  </outline>
</glyph>
<glyph name="Ohorn" format="2">
  <advance width="1453"/>
  <unicode hex="01A0"/>
  <outline>
    <contour>
      <point x="1338" y="719" type="line" smooth="yes"/>
      <point x="1338" y="383"/>
      <point x="1001" y="-21"/>
      <point x="730" y="-21" type="qcurve" smooth="yes"/>
      <point x="458" y="-21"/>
      <point x="120" y="384"/>
      <point x="120" y="719" type="qcurve" smooth="yes"/>
      <point x="120" y="737" type="line" smooth="yes"/>
      <point x="120" y="1072"/>
      <point x="456" y="1477"/>
      <point x="728" y="1477" type="qcurve" smooth="yes"/>
      <point x="874" y="1477"/>
      <point x="1115" y="1353"/>
      <point x="1197" y="1238" type="qcurve"/>
      <point x="1339" y="1240"/>
      <point x="1445" y="1386"/>
      <point x="1445" y="1541" type="qcurve"/>
      <point x="1499" y="1541" type="line"/>
      <point x="1499" y="1372"/>
      <point x="1374" y="1196"/>
      <point x="1230" y="1185" type="qcurve"/>
      <point x="1282" y="1094"/>
      <point x="1338" y="867"/>
      <point x="1338" y="737" type="qcurve" smooth="yes"/>
    </contour>
    <contour>
      <point x="1284" y="739" type="line" smooth="yes"/>
      <point x="1284" y="1048"/>
      <point x="981" y="1423"/>
      <point x="728" y="1423" type="qcurve" smooth="yes"/>
      <point x="476" y="1423"/>
      <point x="175" y="1048"/>
      <point x="175" y="739" type="qcurve" smooth="yes"/>
      <point x="175" y="719" type="line" smooth="yes"/>
      <point x="175" y="408"/>
      <point x="477" y="33"/>
      <point x="730" y="33" type="qcurve" smooth="yes"/>
      <point x="983" y="33"/>
      <point x="1284" y="408"/>
      <point x="1284" y="719" type="qcurve" smooth="yes"/>
    </contour>
  </outline>
</glyph>
<glyph name="ohorn" format="2">
  <advance width="1241"/>
  <unicode hex="01A1"/>
  <outline>
    <contour>
      <point x="104" y="562" type="line" smooth="yes"/>
      <point x="104" y="800"/>
      <point x="367" y="1102"/>
      <point x="577" y="1102" type="qcurve" smooth="yes"/>
      <point x="680" y="1102"/>
      <point x="854" y="1024"/>
      <point x="918" y="953" type="qcurve"/>
      <point x="1034" y="957"/>
      <point x="1115" y="1074"/>
      <point x="1115" y="1196" type="qcurve"/>
      <point x="1170" y="1196" type="line"/>
      <point x="1170" y="1060"/>
      <point x="1072" y="915"/>
      <point x="957" y="902" type="qcurve"/>
      <point x="1002" y="833"/>
      <point x="1051" y="660"/>
      <point x="1051" y="562" type="qcurve" smooth="yes"/>
      <point x="1051" y="520" type="line" smooth="yes"/>
      <point x="1051" y="281"/>
      <point x="788" y="-21"/>
      <point x="579" y="-21" type="qcurve" smooth="yes"/>
      <point x="368" y="-21"/>
      <point x="104" y="281"/>
      <point x="104" y="520" type="qcurve" smooth="yes"/>
    </contour>
    <contour>
      <point x="158" y="520" type="line" smooth="yes"/>
      <point x="158" y="316"/>
      <point x="386" y="33"/>
      <point x="579" y="33" type="qcurve" smooth="yes"/>
      <point x="769" y="33"/>
      <point x="997" y="317"/>
      <point x="997" y="520" type="qcurve" smooth="yes"/>
      <point x="997" y="562" type="line" smooth="yes"/>
      <point x="997" y="761"/>
      <point x="767" y="1048"/>
      <point x="577" y="1048" type="qcurve" smooth="yes"/>
      <point x="386" y="1048"/>
      <point x="158" y="761"/>
      <point x="158" y="562" type="qcurve" smooth="yes"/>
    </contour>
  </outline>
</glyph>
<glyph name="Uhorn" format="2">
  <advance width="1509"/>
  <unicode hex="01AF"/>
  <outline>
    <contour>
      <point x="1218" y="1456" type="line"/>
      <point x="1218" y="1258" type="line"/>
      <point x="1224" y="1256" type="line"/>
      <point x="1352" y="1257"/>
      <point x="1450" y="1401"/>
      <point x="1450" y="1551" type="qcurve"/>
      <point x="1497" y="1551" type="line"/>
      <point x="1500" y="1546" type="line"/>
      <point x="1503" y="1376"/>
      <point x="1371" y="1201"/>
      <point x="1218" y="1194" type="qcurve"/>
      <point x="1218" y="469" type="line" smooth="yes"/>
      <point x="1218" y="231"/>
      <point x="942" y="-21"/>
      <point x="721" y="-21" type="qcurve" smooth="yes"/>
      <point x="498" y="-21"/>
      <point x="223" y="232"/>
      <point x="223" y="469" type="qcurve" smooth="yes"/>
      <point x="223" y="1402" type="line"/>
      <point x="60" y="1402" type="line"/>
      <point x="60" y="1456" type="line"/>
      <point x="223" y="1456" type="line"/>
      <point x="277" y="1456" type="line"/>
      <point x="440" y="1456" type="line"/>
      <point x="440" y="1402" type="line"/>
      <point x="277" y="1402" type="line"/>
      <point x="277" y="469" type="line" smooth="yes"/>
      <point x="277" y="264"/>
      <point x="525" y="33"/>
      <point x="721" y="33" type="qcurve" smooth="yes"/>
      <point x="916" y="33"/>
      <point x="1164" y="264"/>
      <point x="1164" y="469" type="qcurve" smooth="yes"/>
      <point x="1164" y="1402" type="line"/>
      <point x="1001" y="1402" type="line"/>
      <point x="1001" y="1456" type="line"/>
      <point x="1164" y="1456" type="line"/>
    </contour>
  </outline>
</glyph>
<glyph name="uhorn" format="2">
  <advance width="1319"/>
  <unicode hex="01B0"/>
  <outline>
    <contour>
      <point x="999" y="944" type="line"/>
      <point x="1005" y="942" type="line"/>
      <point x="1120" y="940"/>
      <point x="1201" y="1055"/>
      <point x="1201" y="1179" type="qcurve"/>
      <point x="1249" y="1179" type="line"/>
      <point x="1251" y="1174" type="line"/>
      <point x="1254" y="1030"/>
      <point x="1139" y="884"/>
      <point x="999" y="881" type="qcurve"/>
      <point x="999" y="54" type="line"/>
      <point x="1162" y="54" type="line"/>
      <point x="1162" y="0" type="line"/>
      <point x="954" y="0" type="line"/>
      <point x="946" y="194" type="line"/>
      <point x="895" y="91"/>
      <point x="706" y="-21"/>
      <point x="571" y="-21" type="qcurve" smooth="yes"/>
      <point x="404" y="-21"/>
      <point x="215" y="216"/>
      <point x="215" y="465" type="qcurve" smooth="yes"/>
      <point x="215" y="1028" type="line"/>
      <point x="72" y="1028" type="line"/>
      <point x="72" y="1082" type="line"/>
      <point x="215" y="1082" type="line"/>
      <point x="269" y="1082" type="line"/>
      <point x="269" y="463" type="line" smooth="yes"/>
      <point x="269" y="243"/>
      <point x="431" y="33"/>
      <point x="569" y="33" type="qcurve" smooth="yes"/>
      <point x="738" y="33"/>
      <point x="919" y="199"/>
      <point x="944" y="336" type="qcurve"/>
      <point x="944" y="1028" type="line"/>
      <point x="781" y="1028" type="line"/>
      <point x="781" y="1082" type="line"/>
      <point x="999" y="1082" type="line"/>
    </contour>
  </outline>
</glyph>
<glyph name="uni0237" format="2">
  <advance width="563"/>
  <unicode hex="0237"/>
  <outline>
    <contour>
      <point x="393" y="-89" type="line" smooth="yes"/>
      <point x="393" y="-256"/>
      <point x="243" y="-437"/>
      <point x="108" y="-437" type="qcurve" smooth="yes"/>
      <point x="78" y="-437"/>
      <point x="26" y="-427"/>
      <point x="-4" y="-417" type="qcurve"/>
      <point x="9" y="-365" type="line"/>
      <point x="27" y="-371"/>
      <point x="82" y="-383"/>
      <point x="108" y="-383" type="qcurve" smooth="yes"/>
      <point x="218" y="-383"/>
      <point x="339" y="-230"/>
      <point x="339" y="-89" type="qcurve" smooth="yes"/>
      <point x="339" y="1028" type="line"/>
      <point x="176" y="1028" type="line"/>
      <point x="176" y="1082" type="line"/>
      <point x="393" y="1082" type="line"/>
    </contour>
  </outline>
</glyph>
<glyph name="schwa" format="2">
  <advance width="1032"/>
  <unicode hex="0259"/>
  <outline>
    <contour>
      <point x="498" y="1102" type="qcurve" smooth="yes"/>
      <point x="682" y="1102"/>
      <point x="952" y="802"/>
      <point x="952" y="581" type="qcurve" smooth="yes"/>
      <point x="952" y="517" type="line" smooth="yes"/>
      <point x="952" y="283"/>
      <point x="691" y="-21"/>
      <point x="501" y="-21" type="qcurve" smooth="yes"/>
      <point x="317" y="-21"/>
      <point x="87" y="218"/>
      <point x="87" y="421" type="qcurve" smooth="yes"/>
      <point x="87" y="504" type="line"/>
      <point x="897" y="504" type="line"/>
      <point x="897" y="505"/>
      <point x="898" y="514"/>
      <point x="898" y="517" type="qcurve" smooth="yes"/>
      <point x="898" y="581" type="line" smooth="yes"/>
      <point x="898" y="776"/>
      <point x="667" y="1048"/>
      <point x="498" y="1048" type="qcurve" smooth="yes"/>
      <point x="376" y="1048"/>
      <point x="213" y="981"/>
      <point x="156" y="916" type="qcurve"/>
      <point x="127" y="958" type="line"/>
      <point x="190" y="1028"/>
      <point x="373" y="1102"/>
    </contour>
    <contour>
      <point x="501" y="33" type="qcurve" smooth="yes"/>
      <point x="661" y="33"/>
      <point x="874" y="267"/>
      <point x="889" y="444" type="qcurve"/>
      <point x="886" y="450" type="line"/>
      <point x="141" y="450" type="line"/>
      <point x="141" y="417" type="line" smooth="yes"/>
      <point x="141" y="251"/>
      <point x="340" y="33"/>
    </contour>
  </outline>
</glyph>
<glyph name="circumflex" format="1">
  <advance width="779"/>
  <unicode hex="02C6"/>
  <outline>
    <contour>
      <point x="608" y="1265" type="line"/>
      <point x="608" y="1252" type="line"/>
      <point x="548" y="1252" type="line"/>
      <point x="353" y="1438" type="line"/>
      <point x="163" y="1252" type="line"/>
      <point x="104" y="1252" type="line"/>
      <point x="104" y="1269" type="line"/>
      <point x="322" y="1475" type="line"/>
      <point x="387" y="1475" type="line"/>
    </contour>
  </outline>
</glyph>
<glyph name="caron" format="1">
  <advance width="754"/>
  <unicode hex="02C7"/>
  <outline>
    <contour>
      <point x="344" y="1288" type="line"/>
      <point x="535" y="1475" type="line"/>
      <point x="595" y="1475" type="line"/>
      <point x="595" y="1459" type="line"/>
      <point x="379" y="1252" type="line"/>
      <point x="311" y="1252" type="line"/>
      <point x="90" y="1461" type="line"/>
      <point x="90" y="1475" type="line"/>
      <point x="153" y="1475" type="line"/>
    </contour>
  </outline>
</glyph>
<glyph name="firsttonechinese" format="1">
  <advance width="986"/>
  <unicode hex="02C9"/>
  <outline>
    <contour>
      <point x="781" y="1403" type="line"/>
      <point x="154" y="1403" type="line"/>
      <point x="154" y="1456" type="line"/>
      <point x="781" y="1456" type="line"/>
    </contour>
  </outline>
</glyph>
<glyph name="breve" format="2">
  <advance width="819"/>
  <unicode hex="02D8"/>
  <outline>
    <contour>
      <point x="668" y="1456" type="line"/>
      <point x="670" y="1450" type="line"/>
      <point x="674" y="1343"/>
      <point x="526" y="1208"/>
      <point x="398" y="1208" type="qcurve" smooth="yes"/>
      <point x="269" y="1208"/>
      <point x="120" y="1343"/>
      <point x="125" y="1450" type="qcurve"/>
      <point x="127" y="1456" type="line"/>
      <point x="173" y="1456" type="line"/>
      <point x="173" y="1370"/>
      <point x="281" y="1264"/>
      <point x="398" y="1264" type="qcurve" smooth="yes"/>
      <point x="510" y="1264"/>
      <point x="622" y="1372"/>
      <point x="622" y="1456" type="qcurve"/>
    </contour>
  </outline>
</glyph>
<glyph name="ring" format="2">
  <advance width="623"/>
  <unicode hex="02DA"/>
  <outline>
    <contour>
      <point x="138" y="1338" type="qcurve" smooth="yes"/>
      <point x="138" y="1394"/>
      <point x="218" y="1477"/>
      <point x="274" y="1477" type="qcurve" smooth="yes"/>
      <point x="328" y="1477"/>
      <point x="407" y="1395"/>
      <point x="407" y="1338" type="qcurve" smooth="yes"/>
      <point x="407" y="1281"/>
      <point x="329" y="1203"/>
      <point x="274" y="1203" type="qcurve" smooth="yes"/>
      <point x="218" y="1203"/>
      <point x="138" y="1281"/>
    </contour>
    <contour>
      <point x="195" y="1338" type="qcurve" smooth="yes"/>
      <point x="195" y="1304"/>
      <point x="241" y="1259"/>
      <point x="274" y="1259" type="qcurve" smooth="yes"/>
      <point x="306" y="1259"/>
      <point x="350" y="1303"/>
      <point x="350" y="1338" type="qcurve" smooth="yes"/>
      <point x="350" y="1373"/>
      <point x="306" y="1420"/>
      <point x="274" y="1420" type="qcurve" smooth="yes"/>
      <point x="241" y="1420"/>
      <point x="195" y="1373"/>
    </contour>
  </outline>
</glyph>
<glyph name="ogonek" format="2">
  <advance width="413"/>
  <unicode hex="02DB"/>
  <outline>
    <contour>
      <point x="256" y="0" type="line"/>
      <point x="180" y="-69"/>
      <point x="108" y="-164"/>
      <point x="108" y="-223" type="qcurve" smooth="yes"/>
      <point x="108" y="-246"/>
      <point x="140" y="-303"/>
      <point x="192" y="-303" type="qcurve" smooth="yes"/>
      <point x="227" y="-303"/>
      <point x="277" y="-282"/>
      <point x="302" y="-265" type="qcurve"/>
      <point x="318" y="-313" type="line"/>
      <point x="294" y="-331"/>
      <point x="233" y="-357"/>
      <point x="192" y="-357" type="qcurve" smooth="yes"/>
      <point x="131" y="-357"/>
      <point x="54" y="-286"/>
      <point x="54" y="-223" type="qcurve" smooth="yes"/>
      <point x="54" y="-162"/>
      <point x="138" y="-37"/>
      <point x="204" y="20" type="qcurve"/>
    </contour>
  </outline>
</glyph>
<glyph name="tilde" format="2">
  <advance width="923"/>
  <unicode hex="02DC"/>
  <outline>
    <contour>
      <point x="766" y="1472" type="line"/>
      <point x="766" y="1390"/>
      <point x="664" y="1286"/>
      <point x="590" y="1286" type="qcurve" smooth="yes"/>
      <point x="514" y="1286"/>
      <point x="358" y="1411"/>
      <point x="303" y="1411" type="qcurve" smooth="yes"/>
      <point x="251" y="1411"/>
      <point x="182" y="1337"/>
      <point x="182" y="1276" type="qcurve"/>
      <point x="127" y="1286" type="line"/>
      <point x="127" y="1366"/>
      <point x="227" y="1465"/>
      <point x="303" y="1465" type="qcurve" smooth="yes"/>
      <point x="375" y="1465"/>
      <point x="537" y="1341"/>
      <point x="590" y="1341" type="qcurve" smooth="yes"/>
      <point x="640" y="1341"/>
      <point x="711" y="1420"/>
      <point x="711" y="1482" type="qcurve"/>
    </contour>
  </outline>
</glyph>
<glyph name="lowringmod" format="1">
  <advance width="429"/>
  <unicode hex="02F3"/>
  <outline>
    <contour>
      <point x="72" y="-239" type="curve" smooth="yes"/>
      <point x="72.0" y="-172.33333333333337"/>
      <point x="135.66666666666669" y="-109.0"/>
      <point x="209" y="-109" type="curve" smooth="yes"/>
      <point x="279.66666666666663" y="-109.0"/>
      <point x="342.0" y="-172.33333333333337"/>
      <point x="342" y="-239" type="curve" smooth="yes"/>
      <point x="342.0" y="-304.33333333333337"/>
      <point x="281.0" y="-365.0"/>
      <point x="209" y="-365" type="curve" smooth="yes"/>
      <point x="135.66666666666669" y="-365.0"/>
      <point x="72.0" y="-304.33333333333337"/>
    </contour>
    <contour>
      <point x="130" y="-239" type="curve" smooth="yes"/>
      <point x="130.0" y="-273.66666666666663"/>
      <point x="166.33333333333331" y="-309.0"/>
      <point x="209" y="-309" type="curve" smooth="yes"/>
      <point x="250.33333333333331" y="-309.0"/>
      <point x="285.0" y="-275.0"/>
      <point x="285" y="-239" type="curve" smooth="yes"/>
      <point x="285.0" y="-201.66666666666669"/>
      <point x="250.33333333333331" y="-167.0"/>
      <point x="209" y="-167" type="curve" smooth="yes"/>
      <point x="166.33333333333331" y="-167.0"/>
      <point x="130.0" y="-201.66666666666669"/>
    </contour>
  </outline>
</glyph>
<glyph name="uni02F3" format="2">
  <advance width="429"/>
  <unicode hex="02F3"/>
  <outline>
    <contour>
      <point x="72" y="-239" type="qcurve" smooth="yes"/>
      <point x="72" y="-189"/>
      <point x="154" y="-109"/>
      <point x="209" y="-109" type="qcurve" smooth="yes"/>
      <point x="262" y="-109"/>
      <point x="342" y="-189"/>
      <point x="342" y="-239" type="qcurve" smooth="yes"/>
      <point x="342" y="-288"/>
      <point x="263" y="-365"/>
      <point x="209" y="-365" type="qcurve" smooth="yes"/>
      <point x="154" y="-365"/>
      <point x="72" y="-288"/>
    </contour>
    <contour>
      <point x="130" y="-239" type="qcurve" smooth="yes"/>
      <point x="130" y="-265"/>
      <point x="177" y="-309"/>
      <point x="209" y="-309" type="qcurve" smooth="yes"/>
      <point x="240" y="-309"/>
      <point x="285" y="-266"/>
      <point x="285" y="-239" type="qcurve" smooth="yes"/>
      <point x="285" y="-211"/>
      <point x="240" y="-167"/>
      <point x="209" y="-167" type="qcurve" smooth="yes"/>
      <point x="177" y="-167"/>
      <point x="130" y="-211"/>
    </contour>
  </outline>
</glyph>
<glyph name="gravecomb" format="1">
  <advance width="476"/>
  <unicode hex="0300"/>
  <outline>
    <contour>
      <point x="315" y="1218" type="line"/>
      <point x="263" y="1218" type="line"/>
      <point x="101" y="1509" type="line"/>
      <point x="162" y="1509" type="line"/>
    </contour>
  </outline>
</glyph>
<glyph name="acutecomb" format="1">
  <advance width="466"/>
  <unicode hex="0301"/>
  <outline>
    <contour>
      <point x="275" y="1511" type="line"/>
      <point x="338" y="1511" type="line"/>
      <point x="172" y="1220" type="line"/>
      <point x="118" y="1220" type="line"/>
    </contour>
  </outline>
</glyph>
<glyph name="hook" format="2">
  <advance width="565"/>
  <unicode hex="0309"/>
  <outline>
    <contour>
      <point x="182" y="1227" type="line"/>
      <point x="182" y="1326" type="line"/>
      <point x="282" y="1334"/>
      <point x="371" y="1385"/>
      <point x="371" y="1440" type="qcurve" smooth="yes"/>
      <point x="371" y="1497"/>
      <point x="230" y="1550"/>
      <point x="135" y="1550" type="qcurve"/>
      <point x="142" y="1599" type="line"/>
      <point x="268" y="1599"/>
      <point x="427" y="1513"/>
      <point x="427" y="1440" type="qcurve" smooth="yes"/>
      <point x="427" y="1364"/>
      <point x="319" y="1287"/>
      <point x="230" y="1281" type="qcurve"/>
      <point x="230" y="1227" type="line"/>
    </contour>
  </outline>
</glyph>
<glyph name="dblgravecomb" format="1">
  <advance width="866"/>
  <unicode hex="030F"/>
  <outline>
    <contour>
      <point x="445" y="1258" type="line"/>
      <point x="443" y="1252" type="line"/>
      <point x="378" y="1252" type="line"/>
      <point x="86" y="1512" type="line"/>
      <point x="88" y="1518" type="line"/>
      <point x="160" y="1518" type="line"/>
    </contour>
    <contour>
      <point x="607" y="1252" type="line"/>
      <point x="359" y="1512" type="line"/>
      <point x="362" y="1518" type="line"/>
      <point x="430" y="1518" type="line"/>
      <point x="671" y="1257" type="line"/>
      <point x="669" y="1252" type="line"/>
    </contour>
  </outline>
</glyph>
<glyph name="Delta" format="1">
  <advance width="1404"/>
  <unicode hex="0394"/>
  <outline>
    <contour>
      <point x="647" y="1456" type="line"/>
      <point x="712" y="1456" type="line"/>
      <point x="1329" y="0" type="line"/>
      <point x="31" y="0" type="line"/>
    </contour>
    <contour>
      <point x="113" y="54" type="line"/>
      <point x="1246" y="54" type="line"/>
      <point x="709" y="1325" type="line"/>
      <point x="682" y="1397" type="line"/>
      <point x="676" y="1397" type="line"/>
      <point x="649" y="1325" type="line"/>
    </contour>
  </outline>
</glyph>
<glyph name="Theta" format="1">
  <advance width="1372"/>
  <unicode hex="0398"/>
  <outline>
    <contour>
      <point x="971" y="691" type="line"/>
      <point x="380" y="691" type="line"/>
      <point x="380" y="744" type="line"/>
      <point x="971" y="744" type="line"/>
    </contour>
    <contour>
      <point x="1338" y="719" type="line" smooth="yes"/>
      <point x="1338.0" y="271.0"/>
      <point x="1091.3333333333333" y="-21.0"/>
      <point x="730" y="-21" type="curve" smooth="yes"/>
      <point x="367.3333333333334" y="-21.0"/>
      <point x="120.0" y="272.33333333333337"/>
      <point x="120" y="719" type="curve" smooth="yes"/>
      <point x="120" y="737" type="line" smooth="yes"/>
      <point x="120.0" y="1183.6666666666665"/>
      <point x="365.3333333333335" y="1477.0"/>
      <point x="728" y="1477" type="curve" smooth="yes"/>
      <point x="1089.3333333333333" y="1477.0"/>
      <point x="1338.0" y="1183.6666666666665"/>
      <point x="1338" y="737" type="curve" smooth="yes"/>
    </contour>
    <contour>
      <point x="1284" y="739" type="line" smooth="yes"/>
      <point x="1284.0" y="1151.0"/>
      <point x="1065.3333333333333" y="1423.0"/>
      <point x="728" y="1423" type="curve" smooth="yes"/>
      <point x="392.0" y="1423.0"/>
      <point x="175.0" y="1151.0"/>
      <point x="175" y="739" type="curve" smooth="yes"/>
      <point x="175" y="719" type="line" smooth="yes"/>
      <point x="175.0" y="304.33333333333337"/>
      <point x="392.66666666666674" y="33.0"/>
      <point x="730" y="33" type="curve" smooth="yes"/>
      <point x="1067.3333333333333" y="33.0"/>
      <point x="1284.0" y="304.33333333333337"/>
      <point x="1284" y="719" type="curve" smooth="yes"/>
    </contour>
  </outline>
</glyph>
<glyph name="Sigma" format="1">
  <advance width="1167"/>
  <unicode hex="03A3"/>
  <outline>
    <contour>
      <point x="79.0" y="0.0" type="line"/>
      <point x="79.0" y="44.0" type="line"/>
      <point x="626.0" y="787.0" type="line"/>
      <point x="79.0" y="1412.0" type="line"/>
      <point x="79.0" y="1456.0" type="line"/>
      <point x="1011.0" y="1456.0" type="line"/>
      <point x="1011.0" y="1163.0" type="line"/>
      <point x="957.0" y="1163.0" type="line"/>
      <point x="957.0" y="1403.0" type="line"/>
      <point x="169.0" y="1403.0" type="line"/>
      <point x="167.0" y="1398.0" type="line"/>
      <point x="678.0" y="815.0" type="line"/>
      <point x="678.0" y="768.0" type="line"/>
      <point x="155.0" y="54.0" type="line"/>
      <point x="180.0" y="54.0" type="line"/>
      <point x="1017.0" y="54.0" type="line"/>
      <point x="1017.0" y="293.0" type="line"/>
      <point x="1071.0" y="293.0" type="line"/>
      <point x="1071.0" y="0.0" type="line"/>
    </contour>
  </outline>
</glyph>
<glyph name="Phi" format="2">
  <advance width="1448"/>
  <unicode hex="03A6"/>
  <outline>
    <contour>
      <point x="681" y="209" type="line"/>
      <point x="406" y="210"/>
      <point x="79" y="512"/>
      <point x="79" y="737" type="qcurve" smooth="yes"/>
      <point x="79" y="960"/>
      <point x="407" y="1264"/>
      <point x="681" y="1266" type="qcurve"/>
      <point x="681" y="1402" type="line"/>
      <point x="518" y="1402" type="line"/>
      <point x="518" y="1456" type="line"/>
      <point x="899" y="1456" type="line"/>
      <point x="899" y="1402" type="line"/>
      <point x="736" y="1402" type="line"/>
      <point x="736" y="1266" type="line"/>
      <point x="1010" y="1265"/>
      <point x="1341" y="963"/>
      <point x="1341" y="739" type="qcurve" smooth="yes"/>
      <point x="1341" y="513"/>
      <point x="1010" y="209"/>
      <point x="736" y="209" type="qcurve"/>
      <point x="736" y="54" type="line"/>
      <point x="899" y="54" type="line"/>
      <point x="899" y="0" type="line"/>
      <point x="518" y="0" type="line"/>
      <point x="518" y="54" type="line"/>
      <point x="681" y="54" type="line"/>
    </contour>
    <contour>
      <point x="1286" y="739" type="qcurve" smooth="yes"/>
      <point x="1286" y="944"/>
      <point x="988" y="1210"/>
      <point x="741" y="1207" type="qcurve"/>
      <point x="736" y="1205" type="line"/>
      <point x="736" y="270" type="line"/>
      <point x="741" y="268" type="line"/>
      <point x="988" y="264"/>
      <point x="1286" y="531"/>
    </contour>
    <contour>
      <point x="134" y="737" type="qcurve" smooth="yes"/>
      <point x="134" y="530"/>
      <point x="428" y="265"/>
      <point x="676" y="268" type="qcurve"/>
      <point x="681" y="270" type="line"/>
      <point x="681" y="1205" type="line"/>
      <point x="676" y="1207" type="line"/>
      <point x="430" y="1209"/>
      <point x="134" y="940"/>
    </contour>
  </outline>
</glyph>
<glyph name="Psi" format="2">
  <advance width="1620"/>
  <unicode hex="03A8"/>
  <outline>
    <contour>
      <point x="966" y="1456" type="line"/>
      <point x="966" y="1402" type="line"/>
      <point x="803" y="1402" type="line"/>
      <point x="803" y="479" type="line"/>
      <point x="809" y="476" type="line"/>
      <point x="1016" y="476"/>
      <point x="1282" y="733"/>
      <point x="1282" y="946" type="qcurve" smooth="yes"/>
      <point x="1282" y="1456" type="line"/>
      <point x="1336" y="1456" type="line"/>
      <point x="1499" y="1456" type="line"/>
      <point x="1499" y="1402" type="line"/>
      <point x="1336" y="1402" type="line"/>
      <point x="1336" y="946" type="line" smooth="yes"/>
      <point x="1336" y="701"/>
      <point x="1041" y="420"/>
      <point x="803" y="416" type="qcurve"/>
      <point x="803" y="54" type="line"/>
      <point x="966" y="54" type="line"/>
      <point x="966" y="0" type="line"/>
      <point x="585" y="0" type="line"/>
      <point x="585" y="54" type="line"/>
      <point x="748" y="54" type="line"/>
      <point x="748" y="416" type="line"/>
      <point x="510" y="422"/>
      <point x="218" y="702"/>
      <point x="218" y="946" type="qcurve" smooth="yes"/>
      <point x="218" y="1402" type="line"/>
      <point x="55" y="1402" type="line"/>
      <point x="55" y="1456" type="line"/>
      <point x="218" y="1456" type="line"/>
      <point x="273" y="1456" type="line"/>
      <point x="273" y="946" type="line" smooth="yes"/>
      <point x="273" y="735"/>
      <point x="535" y="479"/>
      <point x="742" y="477" type="qcurve"/>
      <point x="748" y="479" type="line"/>
      <point x="748" y="1402" type="line"/>
      <point x="585" y="1402" type="line"/>
      <point x="585" y="1456" type="line"/>
      <point x="748" y="1456" type="line"/>
      <point x="803" y="1456" type="line"/>
    </contour>
  </outline>
</glyph>
<glyph name="Omega" format="2">
  <advance width="1336"/>
  <unicode hex="03A9"/>
  <outline>
    <contour>
      <point x="753" y="78" type="line"/>
      <point x="915" y="153"/>
      <point x="1172" y="496"/>
      <point x="1172" y="772" type="qcurve" smooth="yes"/>
      <point x="1172" y="811" type="line" smooth="yes"/>
      <point x="1172" y="1073"/>
      <point x="882" y="1423"/>
      <point x="647" y="1423" type="qcurve" smooth="yes"/>
      <point x="411" y="1423"/>
      <point x="124" y="1073"/>
      <point x="124" y="811" type="qcurve" smooth="yes"/>
      <point x="124" y="772" type="line" smooth="yes"/>
      <point x="124" y="495"/>
      <point x="385" y="153"/>
      <point x="549" y="78" type="qcurve"/>
      <point x="549" y="0" type="line"/>
      <point x="114" y="0" type="line"/>
      <point x="114" y="54" type="line"/>
      <point x="476" y="54" type="line"/>
      <point x="310" y="145"/>
      <point x="70" y="507"/>
      <point x="70" y="772" type="qcurve" smooth="yes"/>
      <point x="70" y="809" type="line" smooth="yes"/>
      <point x="70" y="1094"/>
      <point x="392" y="1477"/>
      <point x="647" y="1477" type="qcurve" smooth="yes"/>
      <point x="901" y="1477"/>
      <point x="1226" y="1093"/>
      <point x="1226" y="809" type="qcurve" smooth="yes"/>
      <point x="1226" y="772" type="line" smooth="yes"/>
      <point x="1226" y="508"/>
      <point x="986" y="147"/>
      <point x="822" y="54" type="qcurve"/>
      <point x="1187" y="54" type="line"/>
      <point x="1187" y="0" type="line"/>
      <point x="753" y="0" type="line"/>
    </contour>
  </outline>
</glyph>
<glyph name="alpha" format="2">
  <advance width="1201"/>
  <unicode hex="03B1"/>
  <outline>
    <contour>
      <point x="932" y="1082" type="line"/>
      <point x="932" y="255" type="line" smooth="yes"/>
      <point x="932" y="133"/>
      <point x="996" y="32"/>
      <point x="1055" y="32" type="qcurve" smooth="yes"/>
      <point x="1071" y="32"/>
      <point x="1094" y="36"/>
      <point x="1120" y="42" type="qcurve"/>
      <point x="1131" y="-7" type="line"/>
      <point x="1114" y="-15"/>
      <point x="1079" y="-21"/>
      <point x="1058" y="-21" type="qcurve" smooth="yes"/>
      <point x="971" y="-21"/>
      <point x="884" y="90"/>
      <point x="879" y="217" type="qcurve"/>
      <point x="827" y="108"/>
      <point x="640" y="-21"/>
      <point x="510" y="-21" type="qcurve" smooth="yes"/>
      <point x="319" y="-21"/>
      <point x="104" y="271"/>
      <point x="104" y="521" type="qcurve" smooth="yes"/>
      <point x="104" y="542" type="line" smooth="yes"/>
      <point x="104" y="799"/>
      <point x="320" y="1102"/>
      <point x="512" y="1102" type="qcurve" smooth="yes"/>
      <point x="642" y="1102"/>
      <point x="825" y="961"/>
      <point x="878" y="837" type="qcurve"/>
      <point x="878" y="854" type="line"/>
      <point x="884" y="1082" type="line"/>
    </contour>
    <contour>
      <point x="160" y="521" type="line" smooth="yes"/>
      <point x="160" y="297"/>
      <point x="337" y="33"/>
      <point x="509" y="33" type="qcurve" smooth="yes"/>
      <point x="657" y="33"/>
      <point x="841" y="202"/>
      <point x="878" y="343" type="qcurve"/>
      <point x="878" y="694" type="line"/>
      <point x="842" y="836"/>
      <point x="661" y="1048"/>
      <point x="511" y="1048" type="qcurve" smooth="yes"/>
      <point x="339" y="1048"/>
      <point x="160" y="767"/>
      <point x="160" y="542" type="qcurve" smooth="yes"/>
    </contour>
  </outline>
</glyph>
<glyph name="beta" format="1">
  <advance width="1146"/>
  <unicode hex="03B2"/>
  <outline>
    <contour>
      <point x="533" y="1477" type="curve" smooth="yes"/>
      <point x="767.6666666666667" y="1477.0"/>
      <point x="924.0" y="1323.0"/>
      <point x="924" y="1103" type="curve" smooth="yes"/>
      <point x="924.0" y="952.3333333333335"/>
      <point x="846.0" y="826.0"/>
      <point x="710" y="770" type="curve"/>
      <point x="918.0" y="726.0"/>
      <point x="1029.0" y="578.3333333333333"/>
      <point x="1029" y="385" type="curve" smooth="yes"/>
      <point x="1029.0" y="130.33333333333337"/>
      <point x="852.0" y="-21.0"/>
      <point x="584" y="-21" type="curve" smooth="yes"/>
      <point x="438.66666666666674" y="-21.0"/>
      <point x="279.0" y="38.666666666666686"/>
      <point x="199" y="148" type="curve"/>
      <point x="199" y="-413" type="line"/>
      <point x="145" y="-413" type="line"/>
      <point x="145" y="284" type="line"/>
      <point x="143.66666666666669" y="298.66666666666663"/>
      <point x="143.0" y="307.33333333333337"/>
      <point x="143" y="318" type="curve"/>
      <point x="145" y="319" type="line"/>
      <point x="145" y="1054" type="line" smooth="yes"/>
      <point x="145.0" y="1296.6666666666665"/>
      <point x="317.0" y="1477.0"/>
    </contour>
    <contour>
      <point x="529" y="791" type="line" smooth="yes"/>
      <point x="762.3333333333333" y="791.0"/>
      <point x="870.0" y="904.0"/>
      <point x="870" y="1108" type="curve" smooth="yes"/>
      <point x="870.0" y="1280.0"/>
      <point x="751.6666666666667" y="1423.0"/>
      <point x="533" y="1423" type="curve" smooth="yes"/>
      <point x="343.66666666666674" y="1423.0"/>
      <point x="199.0" y="1266.0"/>
      <point x="199" y="1054" type="curve" smooth="yes"/>
      <point x="199" y="244" type="line"/>
      <point x="251.0" y="117.33333333333337"/>
      <point x="408.0" y="33.0"/>
      <point x="584" y="33" type="curve" smooth="yes"/>
      <point x="836.0" y="33.0"/>
      <point x="974.0" y="161.0"/>
      <point x="974" y="381" type="curve" smooth="yes"/>
      <point x="974.0" y="602.3333333333333"/>
      <point x="829.0" y="735.0"/>
      <point x="569" y="735" type="curve" smooth="yes"/>
      <point x="426" y="735" type="line"/>
      <point x="426" y="791" type="line"/>
    </contour>
  </outline>
</glyph>
<glyph name="gamma" format="2">
  <advance width="1084"/>
  <unicode hex="03B3"/>
  <outline>
    <contour>
      <point x="1092" y="1028" type="line"/>
      <point x="984" y="1028" type="line"/>
      <point x="586" y="5" type="line"/>
      <point x="586" y="-415" type="line"/>
      <point x="532" y="-415" type="line"/>
      <point x="532" y="0" type="line"/>
      <point x="227" y="879" type="line" smooth="yes"/>
      <point x="190" y="984"/>
      <point x="122" y="1044"/>
      <point x="73" y="1044" type="qcurve" smooth="yes"/>
      <point x="47" y="1044"/>
      <point x="2" y="1030"/>
      <point x="-11" y="1022" type="qcurve"/>
      <point x="-30" y="1063" type="line"/>
      <point x="-9" y="1074"/>
      <point x="39" y="1091"/>
      <point x="69" y="1091" type="qcurve" smooth="yes"/>
      <point x="144" y="1091"/>
      <point x="236" y="1007"/>
      <point x="271" y="904" type="qcurve" smooth="yes"/>
      <point x="508" y="229" type="line"/>
      <point x="556" y="83" type="line"/>
      <point x="562" y="83" type="line"/>
      <point x="614" y="229" type="line"/>
      <point x="926" y="1028" type="line"/>
      <point x="784" y="1028" type="line"/>
      <point x="784" y="1082" type="line"/>
      <point x="1092" y="1082" type="line"/>
    </contour>
  </outline>
</glyph>
<glyph name="delta" format="2">
  <advance width="1121"/>
  <unicode hex="03B4"/>
  <outline>
    <contour>
      <point x="215" y="1309" type="qcurve" smooth="yes"/>
      <point x="215" y="1416"/>
      <point x="415" y="1563"/>
      <point x="568" y="1563" type="qcurve" smooth="yes"/>
      <point x="653" y="1563"/>
      <point x="807" y="1527"/>
      <point x="875" y="1486" type="qcurve"/>
      <point x="857" y="1437" type="line"/>
      <point x="775" y="1476"/>
      <point x="661" y="1509"/>
      <point x="569" y="1509" type="qcurve" smooth="yes"/>
      <point x="441" y="1509"/>
      <point x="269" y="1403"/>
      <point x="269" y="1309" type="qcurve" smooth="yes"/>
      <point x="269" y="1216"/>
      <point x="415" y="1096"/>
      <point x="592" y="1060" type="qcurve" smooth="yes"/>
      <point x="801" y="1013"/>
      <point x="1034" y="719"/>
      <point x="1034" y="542" type="qcurve" smooth="yes"/>
      <point x="1034" y="500" type="line" smooth="yes"/>
      <point x="1034" y="270"/>
      <point x="771" y="-21"/>
      <point x="562" y="-21" type="qcurve" smooth="yes"/>
      <point x="351" y="-21"/>
      <point x="87" y="270"/>
      <point x="87" y="500" type="qcurve" smooth="yes"/>
      <point x="87" y="542" type="line" smooth="yes"/>
      <point x="87" y="747"/>
      <point x="314" y="1009"/>
      <point x="458" y="1029" type="qcurve"/>
      <point x="458" y="1040" type="line"/>
      <point x="327" y="1089"/>
      <point x="215" y="1229"/>
    </contour>
    <contour>
      <point x="141" y="500" type="line" smooth="yes"/>
      <point x="141" y="305"/>
      <point x="369" y="33"/>
      <point x="562" y="33" type="qcurve" smooth="yes"/>
      <point x="752" y="33"/>
      <point x="980" y="305"/>
      <point x="980" y="500" type="qcurve" smooth="yes"/>
      <point x="980" y="542" type="line" smooth="yes"/>
      <point x="980" y="720"/>
      <point x="740" y="970"/>
      <point x="583" y="997" type="qcurve"/>
      <point x="382" y="997"/>
      <point x="141" y="726"/>
      <point x="141" y="542" type="qcurve" smooth="yes"/>
    </contour>
  </outline>
</glyph>
<glyph name="epsilon" format="2">
  <advance width="1089"/>
  <unicode hex="03B5"/>
  <outline>
    <contour>
      <point x="105" y="290" type="qcurve" smooth="yes"/>
      <point x="105" y="393"/>
      <point x="230" y="527"/>
      <point x="354" y="554" type="qcurve"/>
      <point x="243" y="585"/>
      <point x="124" y="717"/>
      <point x="124" y="802" type="qcurve" smooth="yes"/>
      <point x="124" y="944"/>
      <point x="346" y="1098"/>
      <point x="539" y="1098" type="qcurve" smooth="yes"/>
      <point x="719" y="1098"/>
      <point x="965" y="935"/>
      <point x="960" y="805" type="qcurve"/>
      <point x="958" y="799" type="line"/>
      <point x="914" y="799" type="line"/>
      <point x="914" y="909"/>
      <point x="699" y="1044"/>
      <point x="539" y="1044" type="qcurve" smooth="yes"/>
      <point x="358" y="1044"/>
      <point x="180" y="913"/>
      <point x="180" y="805" type="qcurve" smooth="yes"/>
      <point x="180" y="697"/>
      <point x="355" y="580"/>
      <point x="542" y="580" type="qcurve" smooth="yes"/>
      <point x="707" y="580" type="line"/>
      <point x="707" y="525" type="line"/>
      <point x="542" y="525" type="line" smooth="yes"/>
      <point x="352" y="525"/>
      <point x="159" y="410"/>
      <point x="159" y="287" type="qcurve" smooth="yes"/>
      <point x="159" y="169"/>
      <point x="357" y="38"/>
      <point x="539" y="38" type="qcurve" smooth="yes"/>
      <point x="713" y="38"/>
      <point x="931" y="185"/>
      <point x="931" y="301" type="qcurve"/>
      <point x="976" y="301" type="line"/>
      <point x="978" y="295" type="line"/>
      <point x="983" y="145"/>
      <point x="719" y="-17"/>
      <point x="539" y="-17" type="qcurve" smooth="yes"/>
      <point x="345" y="-17"/>
      <point x="105" y="147"/>
    </contour>
  </outline>
</glyph>
<glyph name="zeta" format="2">
  <advance width="954"/>
  <unicode hex="03B6"/>
  <outline>
    <contour>
      <point x="887" y="1456" type="line"/>
      <point x="887" y="1419" type="line"/>
      <point x="445" y="840" type="line" smooth="yes"/>
      <point x="321" y="682"/>
      <point x="226" y="444"/>
      <point x="226" y="341" type="qcurve" smooth="yes"/>
      <point x="226" y="238"/>
      <point x="388" y="117"/>
      <point x="572" y="71" type="qcurve" smooth="yes"/>
      <point x="661" y="47" type="line" smooth="yes"/>
      <point x="772" y="19"/>
      <point x="871" y="-63"/>
      <point x="871" y="-136" type="qcurve" smooth="yes"/>
      <point x="871" y="-223"/>
      <point x="769" y="-369"/>
      <point x="716" y="-392" type="qcurve"/>
      <point x="679" y="-361" type="line"/>
      <point x="726" y="-338"/>
      <point x="818" y="-208"/>
      <point x="818" y="-135" type="qcurve" smooth="yes"/>
      <point x="818" y="-81"/>
      <point x="741" y="-28"/>
      <point x="654" y="-6" type="qcurve" smooth="yes"/>
      <point x="564" y="18" type="line" smooth="yes"/>
      <point x="355" y="70"/>
      <point x="173" y="217"/>
      <point x="173" y="341" type="qcurve" smooth="yes"/>
      <point x="173" y="454"/>
      <point x="276" y="709"/>
      <point x="408" y="879" type="qcurve" smooth="yes"/>
      <point x="806" y="1403" type="line"/>
      <point x="38" y="1403" type="line"/>
      <point x="38" y="1456" type="line"/>
    </contour>
  </outline>
</glyph>
<glyph name="eta" format="2">
  <advance width="1199"/>
  <unicode hex="03B7"/>
  <outline>
    <contour>
      <point x="225" y="0" type="line"/>
      <point x="226" y="955" type="line" smooth="yes"/>
      <point x="226" y="1000"/>
      <point x="187" y="1038"/>
      <point x="148" y="1038" type="qcurve" smooth="yes"/>
      <point x="113" y="1038"/>
      <point x="49" y="1021"/>
      <point x="16" y="1005" type="qcurve"/>
      <point x="-4" y="1051" type="line"/>
      <point x="23" y="1066"/>
      <point x="106" y="1092"/>
      <point x="148" y="1092" type="qcurve" smooth="yes"/>
      <point x="220" y="1092"/>
      <point x="280" y="1030"/>
      <point x="280" y="956" type="qcurve" smooth="yes"/>
      <point x="280" y="859" type="line"/>
      <point x="329" y="975"/>
      <point x="518" y="1102"/>
      <point x="656" y="1102" type="qcurve" smooth="yes"/>
      <point x="833" y="1102"/>
      <point x="1010" y="879"/>
      <point x="1010" y="637" type="qcurve" smooth="yes"/>
      <point x="1010" y="-416" type="line"/>
      <point x="956" y="-416" type="line"/>
      <point x="956" y="639" type="line" smooth="yes"/>
      <point x="956" y="864"/>
      <point x="796" y="1048"/>
      <point x="657" y="1048" type="qcurve" smooth="yes"/>
      <point x="483" y="1048"/>
      <point x="303" y="842"/>
      <point x="280" y="680" type="qcurve"/>
      <point x="280" y="0" type="line"/>
    </contour>
  </outline>
</glyph>
<glyph name="theta" format="2">
  <advance width="1143"/>
  <unicode hex="03B8"/>
  <outline>
    <contour>
      <point x="1015" y="574" type="line" smooth="yes"/>
      <point x="1015" y="289"/>
      <point x="784" y="-21"/>
      <point x="573" y="-21" type="qcurve" smooth="yes"/>
      <point x="362" y="-21"/>
      <point x="128" y="290"/>
      <point x="128" y="574" type="qcurve" smooth="yes"/>
      <point x="128" y="882" type="line" smooth="yes"/>
      <point x="128" y="1166"/>
      <point x="360" y="1477"/>
      <point x="571" y="1477" type="qcurve" smooth="yes"/>
      <point x="782" y="1477"/>
      <point x="1015" y="1166"/>
      <point x="1015" y="882" type="qcurve" smooth="yes"/>
    </contour>
    <contour>
      <point x="182" y="749" type="line"/>
      <point x="961" y="749" type="line"/>
      <point x="961" y="882" type="line" smooth="yes"/>
      <point x="961" y="1136"/>
      <point x="761" y="1423"/>
      <point x="571" y="1423" type="qcurve" smooth="yes"/>
      <point x="381" y="1423"/>
      <point x="182" y="1136"/>
      <point x="182" y="882" type="qcurve" smooth="yes"/>
    </contour>
    <contour>
      <point x="961" y="695" type="line"/>
      <point x="182" y="695" type="line"/>
      <point x="182" y="576" type="line" smooth="yes"/>
      <point x="182" y="324"/>
      <point x="383" y="33"/>
      <point x="573" y="33" type="qcurve" smooth="yes"/>
      <point x="762" y="33"/>
      <point x="961" y="323"/>
      <point x="961" y="576" type="qcurve" smooth="yes"/>
    </contour>
  </outline>
</glyph>
<glyph name="iota" format="2">
  <advance width="594"/>
  <unicode hex="03B9"/>
  <outline>
    <contour>
      <point x="245" y="279" type="line" smooth="yes"/>
      <point x="245" y="144"/>
      <point x="341" y="33"/>
      <point x="430" y="33" type="qcurve" smooth="yes"/>
      <point x="457" y="33"/>
      <point x="499" y="37"/>
      <point x="537" y="42" type="qcurve"/>
      <point x="546" y="-8" type="line"/>
      <point x="522" y="-15"/>
      <point x="465" y="-21"/>
      <point x="433" y="-21" type="qcurve" smooth="yes"/>
      <point x="307" y="-21"/>
      <point x="190" y="118"/>
      <point x="190" y="279" type="qcurve" smooth="yes"/>
      <point x="190" y="1028" type="line"/>
      <point x="27" y="1028" type="line"/>
      <point x="27" y="1082" type="line"/>
      <point x="245" y="1082" type="line"/>
    </contour>
  </outline>
</glyph>
